<ttFont>
    <TTGlyph name="A" xMin="1" yMin="0" xMax="649" yMax="690">
      <contour>
        <pt x="444" y="181" on="1"/>
        <pt x="207" y="181" on="1"/>
        <pt x="157" y="0" on="1"/>
        <pt x="1" y="0" on="1"/>
        <pt x="200" y="650" on="1"/>
        <pt x="204" y="668" on="0"/>
        <pt x="234" y="690" on="0"/>
        <pt x="253" y="690" on="1"/>
        <pt x="397" y="690" on="1"/>
        <pt x="440" y="690" on="0"/>
        <pt x="450" y="650" on="1"/>
        <pt x="649" y="0" on="1"/>
        <pt x="494" y="0" on="1"/>
      </contour>
      <contour>
        <pt x="411" y="299" on="1"/>
        <pt x="353" y="510" on="1"/>
        <pt x="341" y="560" on="0"/>
        <pt x="339" y="575" on="1"/>
        <pt x="312" y="575" on="1"/>
        <pt x="310" y="565" on="0"/>
        <pt x="300" y="521" on="0"/>
        <pt x="297" y="510" on="1"/>
        <pt x="239" y="299" on="1"/>
      </contour>
    </TTGlyph>
    <TTGlyph name="AE" xMin="-11" yMin="-3" xMax="891" yMax="691">
      <contour>
        <pt x="884" y="119" on="1"/>
        <pt x="891" y="7" on="1"/>
        <pt x="792" y="-3" on="0"/>
        <pt x="574" y="-3" on="1"/>
        <pt x="515" y="-3" on="0"/>
        <pt x="444" y="75" on="0"/>
        <pt x="444" y="136" on="1"/>
        <pt x="444" y="190" on="1"/>
        <pt x="240" y="190" on="1"/>
        <pt x="146" y="0" on="1"/>
        <pt x="-11" y="0" on="1"/>
        <pt x="280" y="558" on="1"/>
        <pt x="306" y="610" on="0"/>
        <pt x="370" y="665" on="0"/>
        <pt x="479" y="691" on="0"/>
        <pt x="569" y="691" on="1"/>
        <pt x="786" y="691" on="0"/>
        <pt x="891" y="683" on="1"/>
        <pt x="884" y="571" on="1"/>
        <pt x="639" y="571" on="1"/>
        <pt x="616" y="571" on="0"/>
        <pt x="586" y="542" on="0"/>
        <pt x="586" y="517" on="1"/>
        <pt x="586" y="413" on="1"/>
        <pt x="847" y="413" on="1"/>
        <pt x="847" y="305" on="1"/>
        <pt x="586" y="305" on="1"/>
        <pt x="586" y="171" on="1"/>
        <pt x="586" y="143" on="0"/>
        <pt x="611" y="119" on="0"/>
        <pt x="639" y="119" on="1"/>
      </contour>
      <contour>
        <pt x="444" y="304" on="1"/>
        <pt x="444" y="528" on="1"/>
        <pt x="444" y="568" on="0"/>
        <pt x="467" y="595" on="1"/>
        <pt x="456" y="595" on="1"/>
        <pt x="437" y="579" on="0"/>
        <pt x="416" y="542" on="1"/>
        <pt x="297" y="304" on="1"/>
      </contour>
    </TTGlyph>
    <TTGlyph name="Aacute" xMin="1" yMin="0" xMax="649" yMax="935">
      <contour>
        <pt x="286" y="723" on="1"/>
        <pt x="242" y="786" on="1"/>
        <pt x="444" y="935" on="1"/>
        <pt x="511" y="832" on="1"/>
      </contour>
      <contour>
        <pt x="444" y="181" on="1"/>
        <pt x="207" y="181" on="1"/>
        <pt x="157" y="0" on="1"/>
        <pt x="1" y="0" on="1"/>
        <pt x="200" y="650" on="1"/>
        <pt x="204" y="668" on="0"/>
        <pt x="234" y="690" on="0"/>
        <pt x="253" y="690" on="1"/>
        <pt x="397" y="690" on="1"/>
        <pt x="440" y="690" on="0"/>
        <pt x="450" y="650" on="1"/>
        <pt x="649" y="0" on="1"/>
        <pt x="494" y="0" on="1"/>
      </contour>
      <contour>
        <pt x="411" y="299" on="1"/>
        <pt x="353" y="510" on="1"/>
        <pt x="341" y="560" on="0"/>
        <pt x="339" y="575" on="1"/>
        <pt x="312" y="575" on="1"/>
        <pt x="310" y="565" on="0"/>
        <pt x="300" y="521" on="0"/>
        <pt x="297" y="510" on="1"/>
        <pt x="239" y="299" on="1"/>
      </contour>
    </TTGlyph>
    <TTGlyph name="Abreve" xMin="1" yMin="0" xMax="649" yMax="901">
      <contour>
        <pt x="419" y="901" on="1"/>
        <pt x="490" y="891" on="1"/>
        <pt x="498" y="827" on="0"/>
        <pt x="406" y="740" on="0"/>
        <pt x="326" y="740" on="1"/>
        <pt x="245" y="740" on="0"/>
        <pt x="153" y="827" on="0"/>
        <pt x="161" y="891" on="1"/>
        <pt x="231" y="901" on="1"/>
        <pt x="231" y="837" on="0"/>
        <pt x="326" y="837" on="1"/>
        <pt x="419" y="837" on="0"/>
      </contour>
      <contour>
        <pt x="444" y="181" on="1"/>
        <pt x="207" y="181" on="1"/>
        <pt x="157" y="0" on="1"/>
        <pt x="1" y="0" on="1"/>
        <pt x="200" y="650" on="1"/>
        <pt x="204" y="668" on="0"/>
        <pt x="234" y="690" on="0"/>
        <pt x="253" y="690" on="1"/>
        <pt x="397" y="690" on="1"/>
        <pt x="440" y="690" on="0"/>
        <pt x="450" y="650" on="1"/>
        <pt x="649" y="0" on="1"/>
        <pt x="494" y="0" on="1"/>
      </contour>
      <contour>
        <pt x="411" y="299" on="1"/>
        <pt x="353" y="510" on="1"/>
        <pt x="341" y="560" on="0"/>
        <pt x="339" y="575" on="1"/>
        <pt x="312" y="575" on="1"/>
        <pt x="310" y="565" on="0"/>
        <pt x="300" y="521" on="0"/>
        <pt x="297" y="510" on="1"/>
        <pt x="239" y="299" on="1"/>
      </contour>
    </TTGlyph>
    <TTGlyph name="Acircumflex" xMin="1" yMin="0" xMax="649" yMax="909">
      <contour>
        <pt x="180" y="719" on="1"/>
        <pt x="139" y="777" on="1"/>
        <pt x="273" y="909" on="1"/>
        <pt x="380" y="909" on="1"/>
        <pt x="512" y="774" on="1"/>
        <pt x="471" y="719" on="1"/>
        <pt x="330" y="814" on="1"/>
        <pt x="322" y="814" on="1"/>
      </contour>
      <contour>
        <pt x="444" y="181" on="1"/>
        <pt x="207" y="181" on="1"/>
        <pt x="157" y="0" on="1"/>
        <pt x="1" y="0" on="1"/>
        <pt x="200" y="650" on="1"/>
        <pt x="204" y="668" on="0"/>
        <pt x="234" y="690" on="0"/>
        <pt x="253" y="690" on="1"/>
        <pt x="397" y="690" on="1"/>
        <pt x="440" y="690" on="0"/>
        <pt x="450" y="650" on="1"/>
        <pt x="649" y="0" on="1"/>
        <pt x="494" y="0" on="1"/>
      </contour>
      <contour>
        <pt x="411" y="299" on="1"/>
        <pt x="353" y="510" on="1"/>
        <pt x="341" y="560" on="0"/>
        <pt x="339" y="575" on="1"/>
        <pt x="312" y="575" on="1"/>
        <pt x="310" y="565" on="0"/>
        <pt x="300" y="521" on="0"/>
        <pt x="297" y="510" on="1"/>
        <pt x="239" y="299" on="1"/>
      </contour>
    </TTGlyph>
    <TTGlyph name="Adieresis" xMin="1" yMin="0" xMax="649" yMax="886">
      <contour>
        <pt x="258" y="763" on="1"/>
        <pt x="210" y="763" on="1"/>
        <pt x="177" y="763" on="0"/>
        <pt x="177" y="796" on="1"/>
        <pt x="177" y="853" on="1"/>
        <pt x="177" y="886" on="0"/>
        <pt x="210" y="886" on="1"/>
        <pt x="258" y="886" on="1"/>
        <pt x="291" y="886" on="0"/>
        <pt x="291" y="853" on="1"/>
        <pt x="291" y="796" on="1"/>
        <pt x="291" y="763" on="0"/>
      </contour>
      <contour>
        <pt x="440" y="763" on="1"/>
        <pt x="392" y="763" on="1"/>
        <pt x="359" y="763" on="0"/>
        <pt x="359" y="796" on="1"/>
        <pt x="359" y="853" on="1"/>
        <pt x="359" y="886" on="0"/>
        <pt x="392" y="886" on="1"/>
        <pt x="440" y="886" on="1"/>
        <pt x="473" y="886" on="0"/>
        <pt x="473" y="853" on="1"/>
        <pt x="473" y="796" on="1"/>
        <pt x="473" y="763" on="0"/>
      </contour>
      <contour>
        <pt x="444" y="181" on="1"/>
        <pt x="207" y="181" on="1"/>
        <pt x="157" y="0" on="1"/>
        <pt x="1" y="0" on="1"/>
        <pt x="200" y="650" on="1"/>
        <pt x="204" y="668" on="0"/>
        <pt x="234" y="690" on="0"/>
        <pt x="253" y="690" on="1"/>
        <pt x="397" y="690" on="1"/>
        <pt x="440" y="690" on="0"/>
        <pt x="450" y="650" on="1"/>
        <pt x="649" y="0" on="1"/>
        <pt x="494" y="0" on="1"/>
      </contour>
      <contour>
        <pt x="411" y="299" on="1"/>
        <pt x="353" y="510" on="1"/>
        <pt x="341" y="560" on="0"/>
        <pt x="339" y="575" on="1"/>
        <pt x="312" y="575" on="1"/>
        <pt x="310" y="565" on="0"/>
        <pt x="300" y="521" on="0"/>
        <pt x="297" y="510" on="1"/>
        <pt x="239" y="299" on="1"/>
      </contour>
    </TTGlyph>
    <TTGlyph name="Agrave" xMin="1" yMin="0" xMax="649" yMax="935">
      <contour>
        <pt x="354" y="723" on="1"/>
        <pt x="129" y="832" on="1"/>
        <pt x="196" y="935" on="1"/>
        <pt x="398" y="786" on="1"/>
      </contour>
      <contour>
        <pt x="444" y="181" on="1"/>
        <pt x="207" y="181" on="1"/>
        <pt x="157" y="0" on="1"/>
        <pt x="1" y="0" on="1"/>
        <pt x="200" y="650" on="1"/>
        <pt x="204" y="668" on="0"/>
        <pt x="234" y="690" on="0"/>
        <pt x="253" y="690" on="1"/>
        <pt x="397" y="690" on="1"/>
        <pt x="440" y="690" on="0"/>
        <pt x="450" y="650" on="1"/>
        <pt x="649" y="0" on="1"/>
        <pt x="494" y="0" on="1"/>
      </contour>
      <contour>
        <pt x="411" y="299" on="1"/>
        <pt x="353" y="510" on="1"/>
        <pt x="341" y="560" on="0"/>
        <pt x="339" y="575" on="1"/>
        <pt x="312" y="575" on="1"/>
        <pt x="310" y="565" on="0"/>
        <pt x="300" y="521" on="0"/>
        <pt x="297" y="510" on="1"/>
        <pt x="239" y="299" on="1"/>
      </contour>
    </TTGlyph>
    <TTGlyph name="Amacron" xMin="1" yMin="0" xMax="649" yMax="872">
      <contour>
        <pt x="476" y="776" on="1"/>
        <pt x="177" y="776" on="1"/>
        <pt x="177" y="872" on="1"/>
        <pt x="476" y="872" on="1"/>
      </contour>
      <contour>
        <pt x="444" y="181" on="1"/>
        <pt x="207" y="181" on="1"/>
        <pt x="157" y="0" on="1"/>
        <pt x="1" y="0" on="1"/>
        <pt x="200" y="650" on="1"/>
        <pt x="204" y="668" on="0"/>
        <pt x="234" y="690" on="0"/>
        <pt x="253" y="690" on="1"/>
        <pt x="397" y="690" on="1"/>
        <pt x="440" y="690" on="0"/>
        <pt x="450" y="650" on="1"/>
        <pt x="649" y="0" on="1"/>
        <pt x="494" y="0" on="1"/>
      </contour>
      <contour>
        <pt x="411" y="299" on="1"/>
        <pt x="353" y="510" on="1"/>
        <pt x="341" y="560" on="0"/>
        <pt x="339" y="575" on="1"/>
        <pt x="312" y="575" on="1"/>
        <pt x="310" y="565" on="0"/>
        <pt x="300" y="521" on="0"/>
        <pt x="297" y="510" on="1"/>
        <pt x="239" y="299" on="1"/>
      </contour>
    </TTGlyph>
    <TTGlyph name="Aogonek" xMin="1" yMin="-200" xMax="664" yMax="690">
      <contour>
        <pt x="652" y="-138" on="1"/>
        <pt x="664" y="-193" on="1"/>
        <pt x="558" y="-229" on="0"/>
        <pt x="469" y="-171" on="0"/>
        <pt x="490" y="-111" on="1"/>
        <pt x="507" y="-56" on="0"/>
        <pt x="587" y="0" on="1"/>
        <pt x="494" y="0" on="1"/>
        <pt x="444" y="181" on="1"/>
        <pt x="207" y="181" on="1"/>
        <pt x="157" y="0" on="1"/>
        <pt x="1" y="0" on="1"/>
        <pt x="200" y="650" on="1"/>
        <pt x="204" y="668" on="0"/>
        <pt x="234" y="690" on="0"/>
        <pt x="253" y="690" on="1"/>
        <pt x="397" y="690" on="1"/>
        <pt x="440" y="690" on="0"/>
        <pt x="450" y="650" on="1"/>
        <pt x="649" y="0" on="1"/>
        <pt x="606" y="-60" on="0"/>
        <pt x="589" y="-100" on="1"/>
        <pt x="575" y="-130" on="0"/>
        <pt x="614" y="-149" on="0"/>
      </contour>
      <contour>
        <pt x="411" y="299" on="1"/>
        <pt x="353" y="510" on="1"/>
        <pt x="341" y="560" on="0"/>
        <pt x="339" y="575" on="1"/>
        <pt x="312" y="575" on="1"/>
        <pt x="310" y="565" on="0"/>
        <pt x="300" y="521" on="0"/>
        <pt x="297" y="510" on="1"/>
        <pt x="239" y="299" on="1"/>
      </contour>
    </TTGlyph>
    <TTGlyph name="Aring" xMin="1" yMin="0" xMax="649" yMax="943">
      <contour>
        <pt x="375" y="713" on="0"/>
        <pt x="277" y="713" on="0"/>
        <pt x="208" y="780" on="0"/>
        <pt x="208" y="876" on="0"/>
        <pt x="278" y="943" on="0"/>
        <pt x="374" y="943" on="0"/>
        <pt x="444" y="876" on="0"/>
        <pt x="444" y="780" on="0"/>
      </contour>
      <contour>
        <pt x="347" y="879" on="0"/>
        <pt x="305" y="879" on="0"/>
        <pt x="276" y="850" on="0"/>
        <pt x="276" y="828" on="1"/>
        <pt x="276" y="805" on="0"/>
        <pt x="305" y="777" on="0"/>
        <pt x="347" y="777" on="0"/>
        <pt x="376" y="805" on="0"/>
        <pt x="376" y="828" on="1"/>
        <pt x="376" y="850" on="0"/>
      </contour>
      <contour>
        <pt x="444" y="181" on="1"/>
        <pt x="207" y="181" on="1"/>
        <pt x="157" y="0" on="1"/>
        <pt x="1" y="0" on="1"/>
        <pt x="200" y="650" on="1"/>
        <pt x="204" y="668" on="0"/>
        <pt x="234" y="690" on="0"/>
        <pt x="253" y="690" on="1"/>
        <pt x="397" y="690" on="1"/>
        <pt x="440" y="690" on="0"/>
        <pt x="450" y="650" on="1"/>
        <pt x="649" y="0" on="1"/>
        <pt x="494" y="0" on="1"/>
      </contour>
      <contour>
        <pt x="411" y="299" on="1"/>
        <pt x="353" y="510" on="1"/>
        <pt x="341" y="560" on="0"/>
        <pt x="339" y="575" on="1"/>
        <pt x="312" y="575" on="1"/>
        <pt x="310" y="565" on="0"/>
        <pt x="300" y="521" on="0"/>
        <pt x="297" y="510" on="1"/>
        <pt x="239" y="299" on="1"/>
      </contour>
    </TTGlyph>
    <TTGlyph name="Atilde" xMin="1" yMin="0" xMax="649" yMax="899">
      <contour>
        <pt x="215" y="757" on="1"/>
        <pt x="152" y="757" on="1"/>
        <pt x="141" y="828" on="0"/>
        <pt x="191" y="902" on="0"/>
        <pt x="233" y="899" on="1"/>
        <pt x="268" y="896" on="0"/>
        <pt x="369" y="855" on="0"/>
        <pt x="393" y="851" on="1"/>
        <pt x="416" y="847" on="0"/>
        <pt x="431" y="866" on="0"/>
        <pt x="431" y="894" on="1"/>
        <pt x="495" y="894" on="1"/>
        <pt x="505" y="826" on="0"/>
        <pt x="457" y="750" on="0"/>
        <pt x="413" y="753" on="1"/>
        <pt x="375" y="756" on="0"/>
        <pt x="272" y="799" on="0"/>
        <pt x="253" y="802" on="1"/>
        <pt x="229" y="806" on="0"/>
        <pt x="215" y="786" on="0"/>
      </contour>
      <contour>
        <pt x="444" y="181" on="1"/>
        <pt x="207" y="181" on="1"/>
        <pt x="157" y="0" on="1"/>
        <pt x="1" y="0" on="1"/>
        <pt x="200" y="650" on="1"/>
        <pt x="204" y="668" on="0"/>
        <pt x="234" y="690" on="0"/>
        <pt x="253" y="690" on="1"/>
        <pt x="397" y="690" on="1"/>
        <pt x="440" y="690" on="0"/>
        <pt x="450" y="650" on="1"/>
        <pt x="649" y="0" on="1"/>
        <pt x="494" y="0" on="1"/>
      </contour>
      <contour>
        <pt x="411" y="299" on="1"/>
        <pt x="353" y="510" on="1"/>
        <pt x="341" y="560" on="0"/>
        <pt x="339" y="575" on="1"/>
        <pt x="312" y="575" on="1"/>
        <pt x="310" y="565" on="0"/>
        <pt x="300" y="521" on="0"/>
        <pt x="297" y="510" on="1"/>
        <pt x="239" y="299" on="1"/>
      </contour>
    </TTGlyph>
    <TTGlyph name="B" xMin="70" yMin="-8" xMax="595" yMax="698">
      <contour>
        <pt x="452" y="360" on="1"/>
        <pt x="452" y="356" on="1"/>
        <pt x="529" y="349" on="0"/>
        <pt x="595" y="258" on="0"/>
        <pt x="595" y="172" on="1"/>
        <pt x="595" y="68" on="0"/>
        <pt x="489" y="-8" on="0"/>
        <pt x="361" y="-8" on="1"/>
        <pt x="169" y="-8" on="0"/>
        <pt x="70" y="0" on="1"/>
        <pt x="70" y="690" on="1"/>
        <pt x="159" y="698" on="0"/>
        <pt x="329" y="698" on="1"/>
        <pt x="467" y="698" on="0"/>
        <pt x="573" y="623" on="0"/>
        <pt x="573" y="518" on="1"/>
        <pt x="573" y="443" on="0"/>
        <pt x="516" y="366" on="0"/>
      </contour>
      <contour>
        <pt x="219" y="408" on="1"/>
        <pt x="330" y="408" on="1"/>
        <pt x="386" y="408" on="0"/>
        <pt x="427" y="444" on="0"/>
        <pt x="427" y="497" on="1"/>
        <pt x="427" y="549" on="0"/>
        <pt x="383" y="583" on="0"/>
        <pt x="322" y="583" on="1"/>
        <pt x="219" y="584" on="1"/>
      </contour>
      <contour>
        <pt x="219" y="107" on="1"/>
        <pt x="335" y="107" on="1"/>
        <pt x="398" y="107" on="0"/>
        <pt x="442" y="144" on="0"/>
        <pt x="442" y="201" on="1"/>
        <pt x="442" y="263" on="0"/>
        <pt x="396" y="306" on="0"/>
        <pt x="331" y="307" on="1"/>
        <pt x="219" y="307" on="1"/>
      </contour>
    </TTGlyph>
    <TTGlyph name="C" xMin="47" yMin="-12" xMax="558" yMax="702">
      <contour>
        <pt x="545" y="129" on="1"/>
        <pt x="558" y="16" on="1"/>
        <pt x="468" y="-12" on="0"/>
        <pt x="337" y="-12" on="1"/>
        <pt x="177" y="-12" on="0"/>
        <pt x="47" y="148" on="0"/>
        <pt x="47" y="542" on="0"/>
        <pt x="177" y="702" on="0"/>
        <pt x="337" y="702" on="1"/>
        <pt x="453" y="702" on="0"/>
        <pt x="544" y="679" on="1"/>
        <pt x="531" y="565" on="1"/>
        <pt x="450" y="570" on="0"/>
        <pt x="337" y="570" on="1"/>
        <pt x="262" y="570" on="0"/>
        <pt x="207" y="475" on="0"/>
        <pt x="207" y="215" on="0"/>
        <pt x="262" y="120" on="0"/>
        <pt x="337" y="120" on="1"/>
        <pt x="476" y="120" on="0"/>
      </contour>
    </TTGlyph>
    <TTGlyph name="Cacute" xMin="47" yMin="-12" xMax="558" yMax="935">
      <contour>
        <pt x="514" y="832" on="1"/>
        <pt x="289" y="723" on="1"/>
        <pt x="246" y="786" on="1"/>
        <pt x="447" y="935" on="1"/>
      </contour>
      <contour>
        <pt x="545" y="129" on="1"/>
        <pt x="558" y="16" on="1"/>
        <pt x="468" y="-12" on="0"/>
        <pt x="337" y="-12" on="1"/>
        <pt x="177" y="-12" on="0"/>
        <pt x="47" y="148" on="0"/>
        <pt x="47" y="542" on="0"/>
        <pt x="177" y="702" on="0"/>
        <pt x="337" y="702" on="1"/>
        <pt x="453" y="702" on="0"/>
        <pt x="544" y="679" on="1"/>
        <pt x="531" y="565" on="1"/>
        <pt x="450" y="570" on="0"/>
        <pt x="337" y="570" on="1"/>
        <pt x="262" y="570" on="0"/>
        <pt x="207" y="475" on="0"/>
        <pt x="207" y="215" on="0"/>
        <pt x="262" y="120" on="0"/>
        <pt x="337" y="120" on="1"/>
        <pt x="476" y="120" on="0"/>
      </contour>
    </TTGlyph>
    <TTGlyph name="Ccaron" xMin="47" yMin="-12" xMax="558" yMax="928">
      <contour>
        <pt x="513" y="870" on="1"/>
        <pt x="361" y="739" on="1"/>
        <pt x="299" y="739" on="1"/>
        <pt x="147" y="870" on="1"/>
        <pt x="188" y="928" on="1"/>
        <pt x="326" y="849" on="1"/>
        <pt x="334" y="849" on="1"/>
        <pt x="472" y="928" on="1"/>
      </contour>
      <contour>
        <pt x="545" y="129" on="1"/>
        <pt x="558" y="16" on="1"/>
        <pt x="468" y="-12" on="0"/>
        <pt x="337" y="-12" on="1"/>
        <pt x="177" y="-12" on="0"/>
        <pt x="47" y="148" on="0"/>
        <pt x="47" y="542" on="0"/>
        <pt x="177" y="702" on="0"/>
        <pt x="337" y="702" on="1"/>
        <pt x="453" y="702" on="0"/>
        <pt x="544" y="679" on="1"/>
        <pt x="531" y="565" on="1"/>
        <pt x="450" y="570" on="0"/>
        <pt x="337" y="570" on="1"/>
        <pt x="262" y="570" on="0"/>
        <pt x="207" y="475" on="0"/>
        <pt x="207" y="215" on="0"/>
        <pt x="262" y="120" on="0"/>
        <pt x="337" y="120" on="1"/>
        <pt x="476" y="120" on="0"/>
      </contour>
    </TTGlyph>
    <TTGlyph name="Ccedilla" xMin="47" yMin="-257" xMax="558" yMax="702">
      <contour>
        <pt x="545" y="129" on="1"/>
        <pt x="558" y="16" on="1"/>
        <pt x="468" y="-12" on="0"/>
        <pt x="337" y="-12" on="1"/>
        <pt x="177" y="-12" on="0"/>
        <pt x="47" y="148" on="0"/>
        <pt x="47" y="542" on="0"/>
        <pt x="177" y="702" on="0"/>
        <pt x="337" y="702" on="1"/>
        <pt x="453" y="702" on="0"/>
        <pt x="544" y="679" on="1"/>
        <pt x="531" y="565" on="1"/>
        <pt x="450" y="570" on="0"/>
        <pt x="337" y="570" on="1"/>
        <pt x="262" y="570" on="0"/>
        <pt x="207" y="475" on="0"/>
        <pt x="207" y="215" on="0"/>
        <pt x="262" y="120" on="0"/>
        <pt x="337" y="120" on="1"/>
        <pt x="476" y="120" on="0"/>
      </contour>
      <contour>
        <pt x="252" y="-116" on="1"/>
        <pt x="267" y="-58" on="1"/>
        <pt x="349" y="-49" on="0"/>
        <pt x="413" y="-73" on="0"/>
        <pt x="411" y="-123" on="1"/>
        <pt x="408" y="-196" on="0"/>
        <pt x="295" y="-269" on="0"/>
        <pt x="211" y="-257" on="1"/>
        <pt x="230" y="-193" on="1"/>
        <pt x="267" y="-194" on="0"/>
        <pt x="314" y="-165" on="0"/>
        <pt x="316" y="-135" on="1"/>
        <pt x="317" y="-122" on="0"/>
        <pt x="294" y="-116" on="0"/>
      </contour>
    </TTGlyph>
    <TTGlyph name="Cdotaccent" xMin="47" yMin="-12" xMax="558" yMax="887">
      <contour>
        <pt x="307" y="887" on="1"/>
        <pt x="352" y="887" on="1"/>
        <pt x="394" y="887" on="0"/>
        <pt x="394" y="846" on="1"/>
        <pt x="394" y="794" on="1"/>
        <pt x="394" y="753" on="0"/>
        <pt x="352" y="753" on="1"/>
        <pt x="307" y="753" on="1"/>
        <pt x="265" y="753" on="0"/>
        <pt x="265" y="794" on="1"/>
        <pt x="265" y="846" on="1"/>
        <pt x="265" y="887" on="0"/>
      </contour>
      <contour>
        <pt x="545" y="129" on="1"/>
        <pt x="558" y="16" on="1"/>
        <pt x="468" y="-12" on="0"/>
        <pt x="337" y="-12" on="1"/>
        <pt x="177" y="-12" on="0"/>
        <pt x="47" y="148" on="0"/>
        <pt x="47" y="542" on="0"/>
        <pt x="177" y="702" on="0"/>
        <pt x="337" y="702" on="1"/>
        <pt x="453" y="702" on="0"/>
        <pt x="544" y="679" on="1"/>
        <pt x="531" y="565" on="1"/>
        <pt x="450" y="570" on="0"/>
        <pt x="337" y="570" on="1"/>
        <pt x="262" y="570" on="0"/>
        <pt x="207" y="475" on="0"/>
        <pt x="207" y="215" on="0"/>
        <pt x="262" y="120" on="0"/>
        <pt x="337" y="120" on="1"/>
        <pt x="476" y="120" on="0"/>
      </contour>
    </TTGlyph>
    <TTGlyph name="D" xMin="70" yMin="-9" xMax="632" yMax="699">
      <contour>
        <pt x="70" y="0" on="1"/>
        <pt x="70" y="690" on="1"/>
        <pt x="212" y="699" on="0"/>
        <pt x="338" y="699" on="1"/>
        <pt x="503" y="699" on="0"/>
        <pt x="632" y="547" on="0"/>
        <pt x="632" y="143" on="0"/>
        <pt x="503" y="-9" on="0"/>
        <pt x="338" y="-9" on="1"/>
        <pt x="212" y="-9" on="0"/>
      </contour>
      <contour>
        <pt x="222" y="579" on="1"/>
        <pt x="222" y="112" on="1"/>
        <pt x="239" y="112" on="0"/>
        <pt x="316" y="111" on="0"/>
        <pt x="338" y="111" on="1"/>
        <pt x="415" y="111" on="0"/>
        <pt x="472" y="209" on="0"/>
        <pt x="472" y="481" on="0"/>
        <pt x="415" y="580" on="0"/>
        <pt x="338" y="580" on="1"/>
      </contour>
    </TTGlyph>
    <TTGlyph name="Dcaron" xMin="70" yMin="-9" xMax="632" yMax="928">
      <contour>
        <pt x="298" y="739" on="1"/>
        <pt x="146" y="870" on="1"/>
        <pt x="187" y="928" on="1"/>
        <pt x="325" y="849" on="1"/>
        <pt x="333" y="849" on="1"/>
        <pt x="471" y="928" on="1"/>
        <pt x="512" y="870" on="1"/>
        <pt x="360" y="739" on="1"/>
      </contour>
      <contour>
        <pt x="70" y="0" on="1"/>
        <pt x="70" y="690" on="1"/>
        <pt x="212" y="699" on="0"/>
        <pt x="338" y="699" on="1"/>
        <pt x="503" y="699" on="0"/>
        <pt x="632" y="547" on="0"/>
        <pt x="632" y="143" on="0"/>
        <pt x="503" y="-9" on="0"/>
        <pt x="338" y="-9" on="1"/>
        <pt x="212" y="-9" on="0"/>
      </contour>
      <contour>
        <pt x="222" y="579" on="1"/>
        <pt x="222" y="112" on="1"/>
        <pt x="239" y="112" on="0"/>
        <pt x="316" y="111" on="0"/>
        <pt x="338" y="111" on="1"/>
        <pt x="415" y="111" on="0"/>
        <pt x="472" y="209" on="0"/>
        <pt x="472" y="481" on="0"/>
        <pt x="415" y="580" on="0"/>
        <pt x="338" y="580" on="1"/>
      </contour>
    </TTGlyph>
    <TTGlyph name="Dcroat" xMin="16" yMin="-9" xMax="635" yMax="699">
      <contour>
        <pt x="73" y="400" on="1"/>
        <pt x="73" y="690" on="1"/>
        <pt x="215" y="699" on="0"/>
        <pt x="342" y="699" on="1"/>
        <pt x="506" y="699" on="0"/>
        <pt x="635" y="547" on="0"/>
        <pt x="635" y="143" on="0"/>
        <pt x="506" y="-9" on="0"/>
        <pt x="342" y="-9" on="1"/>
        <pt x="215" y="-9" on="0"/>
        <pt x="73" y="0" on="1"/>
        <pt x="73" y="323" on="1"/>
        <pt x="16" y="323" on="1"/>
        <pt x="16" y="400" on="1"/>
      </contour>
      <contour>
        <pt x="225" y="323" on="1"/>
        <pt x="225" y="112" on="1"/>
        <pt x="242" y="112" on="0"/>
        <pt x="320" y="111" on="0"/>
        <pt x="342" y="111" on="1"/>
        <pt x="419" y="111" on="0"/>
        <pt x="475" y="210" on="0"/>
        <pt x="475" y="345" on="1"/>
        <pt x="475" y="481" on="0"/>
        <pt x="419" y="580" on="0"/>
        <pt x="342" y="580" on="1"/>
        <pt x="225" y="579" on="1"/>
        <pt x="225" y="400" on="1"/>
        <pt x="349" y="400" on="1"/>
        <pt x="349" y="323" on="1"/>
      </contour>
    </TTGlyph>
    <TTGlyph name="Delta" xMin="19" yMin="0" xMax="640" yMax="690">
      <contour>
        <pt x="640" y="53" on="1"/>
        <pt x="640" y="0" on="1"/>
        <pt x="19" y="0" on="1"/>
        <pt x="19" y="53" on="1"/>
        <pt x="254" y="690" on="1"/>
        <pt x="405" y="690" on="1"/>
      </contour>
      <contour>
        <pt x="466" y="114" on="1"/>
        <pt x="351" y="455" on="1"/>
        <pt x="346" y="472" on="0"/>
        <pt x="331" y="540" on="0"/>
        <pt x="330" y="544" on="1"/>
        <pt x="327" y="532" on="0"/>
        <pt x="313" y="471" on="0"/>
        <pt x="308" y="454" on="1"/>
        <pt x="192" y="114" on="1"/>
      </contour>
    </TTGlyph>
    <TTGlyph name="E" xMin="64" yMin="-3" xMax="536" yMax="693">
      <contour>
        <pt x="529" y="119" on="1"/>
        <pt x="536" y="7" on="1"/>
        <pt x="442" y="-3" on="0"/>
        <pt x="216" y="-3" on="1"/>
        <pt x="147" y="-3" on="0"/>
        <pt x="65" y="72" on="0"/>
        <pt x="64" y="136" on="1"/>
        <pt x="64" y="554" on="1"/>
        <pt x="65" y="618" on="0"/>
        <pt x="147" y="693" on="0"/>
        <pt x="216" y="693" on="1"/>
        <pt x="442" y="693" on="0"/>
        <pt x="536" y="683" on="1"/>
        <pt x="529" y="570" on="1"/>
        <pt x="264" y="570" on="1"/>
        <pt x="239" y="570" on="0"/>
        <pt x="217" y="546" on="0"/>
        <pt x="217" y="519" on="1"/>
        <pt x="217" y="414" on="1"/>
        <pt x="492" y="414" on="1"/>
        <pt x="492" y="304" on="1"/>
        <pt x="217" y="304" on="1"/>
        <pt x="217" y="171" on="1"/>
        <pt x="217" y="143" on="0"/>
        <pt x="239" y="119" on="0"/>
        <pt x="264" y="119" on="1"/>
      </contour>
    </TTGlyph>
    <TTGlyph name="Eacute" xMin="64" yMin="-3" xMax="536" yMax="946">
      <contour>
        <pt x="275" y="735" on="1"/>
        <pt x="231" y="798" on="1"/>
        <pt x="433" y="946" on="1"/>
        <pt x="500" y="844" on="1"/>
      </contour>
      <contour>
        <pt x="529" y="119" on="1"/>
        <pt x="536" y="7" on="1"/>
        <pt x="442" y="-3" on="0"/>
        <pt x="216" y="-3" on="1"/>
        <pt x="147" y="-3" on="0"/>
        <pt x="65" y="72" on="0"/>
        <pt x="64" y="136" on="1"/>
        <pt x="64" y="554" on="1"/>
        <pt x="65" y="618" on="0"/>
        <pt x="147" y="693" on="0"/>
        <pt x="216" y="693" on="1"/>
        <pt x="442" y="693" on="0"/>
        <pt x="536" y="683" on="1"/>
        <pt x="529" y="570" on="1"/>
        <pt x="264" y="570" on="1"/>
        <pt x="239" y="570" on="0"/>
        <pt x="217" y="546" on="0"/>
        <pt x="217" y="519" on="1"/>
        <pt x="217" y="414" on="1"/>
        <pt x="492" y="414" on="1"/>
        <pt x="492" y="304" on="1"/>
        <pt x="217" y="304" on="1"/>
        <pt x="217" y="171" on="1"/>
        <pt x="217" y="143" on="0"/>
        <pt x="239" y="119" on="0"/>
        <pt x="264" y="119" on="1"/>
      </contour>
    </TTGlyph>
    <TTGlyph name="Ecaron" xMin="64" yMin="-3" xMax="536" yMax="940">
      <contour>
        <pt x="285" y="751" on="1"/>
        <pt x="133" y="882" on="1"/>
        <pt x="173" y="940" on="1"/>
        <pt x="312" y="860" on="1"/>
        <pt x="320" y="860" on="1"/>
        <pt x="458" y="940" on="1"/>
        <pt x="499" y="882" on="1"/>
        <pt x="346" y="751" on="1"/>
      </contour>
      <contour>
        <pt x="529" y="119" on="1"/>
        <pt x="536" y="7" on="1"/>
        <pt x="442" y="-3" on="0"/>
        <pt x="216" y="-3" on="1"/>
        <pt x="147" y="-3" on="0"/>
        <pt x="65" y="72" on="0"/>
        <pt x="64" y="136" on="1"/>
        <pt x="64" y="554" on="1"/>
        <pt x="65" y="618" on="0"/>
        <pt x="147" y="693" on="0"/>
        <pt x="216" y="693" on="1"/>
        <pt x="442" y="693" on="0"/>
        <pt x="536" y="683" on="1"/>
        <pt x="529" y="570" on="1"/>
        <pt x="264" y="570" on="1"/>
        <pt x="239" y="570" on="0"/>
        <pt x="217" y="546" on="0"/>
        <pt x="217" y="519" on="1"/>
        <pt x="217" y="414" on="1"/>
        <pt x="492" y="414" on="1"/>
        <pt x="492" y="304" on="1"/>
        <pt x="217" y="304" on="1"/>
        <pt x="217" y="171" on="1"/>
        <pt x="217" y="143" on="0"/>
        <pt x="239" y="119" on="0"/>
        <pt x="264" y="119" on="1"/>
      </contour>
    </TTGlyph>
    <TTGlyph name="Ecircumflex" xMin="64" yMin="-3" xMax="536" yMax="921">
      <contour>
        <pt x="169" y="731" on="1"/>
        <pt x="128" y="789" on="1"/>
        <pt x="262" y="921" on="1"/>
        <pt x="369" y="921" on="1"/>
        <pt x="501" y="786" on="1"/>
        <pt x="460" y="731" on="1"/>
        <pt x="319" y="826" on="1"/>
        <pt x="311" y="826" on="1"/>
      </contour>
      <contour>
        <pt x="529" y="119" on="1"/>
        <pt x="536" y="7" on="1"/>
        <pt x="442" y="-3" on="0"/>
        <pt x="216" y="-3" on="1"/>
        <pt x="147" y="-3" on="0"/>
        <pt x="65" y="72" on="0"/>
        <pt x="64" y="136" on="1"/>
        <pt x="64" y="554" on="1"/>
        <pt x="65" y="618" on="0"/>
        <pt x="147" y="693" on="0"/>
        <pt x="216" y="693" on="1"/>
        <pt x="442" y="693" on="0"/>
        <pt x="536" y="683" on="1"/>
        <pt x="529" y="570" on="1"/>
        <pt x="264" y="570" on="1"/>
        <pt x="239" y="570" on="0"/>
        <pt x="217" y="546" on="0"/>
        <pt x="217" y="519" on="1"/>
        <pt x="217" y="414" on="1"/>
        <pt x="492" y="414" on="1"/>
        <pt x="492" y="304" on="1"/>
        <pt x="217" y="304" on="1"/>
        <pt x="217" y="171" on="1"/>
        <pt x="217" y="143" on="0"/>
        <pt x="239" y="119" on="0"/>
        <pt x="264" y="119" on="1"/>
      </contour>
    </TTGlyph>
    <TTGlyph name="Edieresis" xMin="64" yMin="-3" xMax="536" yMax="898">
      <contour>
        <pt x="248" y="775" on="1"/>
        <pt x="199" y="775" on="1"/>
        <pt x="166" y="775" on="0"/>
        <pt x="166" y="807" on="1"/>
        <pt x="166" y="865" on="1"/>
        <pt x="166" y="898" on="0"/>
        <pt x="199" y="898" on="1"/>
        <pt x="248" y="898" on="1"/>
        <pt x="280" y="898" on="0"/>
        <pt x="280" y="865" on="1"/>
        <pt x="280" y="807" on="1"/>
        <pt x="280" y="775" on="0"/>
      </contour>
      <contour>
        <pt x="429" y="775" on="1"/>
        <pt x="381" y="775" on="1"/>
        <pt x="348" y="775" on="0"/>
        <pt x="348" y="807" on="1"/>
        <pt x="348" y="865" on="1"/>
        <pt x="348" y="898" on="0"/>
        <pt x="381" y="898" on="1"/>
        <pt x="429" y="898" on="1"/>
        <pt x="462" y="898" on="0"/>
        <pt x="462" y="865" on="1"/>
        <pt x="462" y="807" on="1"/>
        <pt x="462" y="775" on="0"/>
      </contour>
      <contour>
        <pt x="529" y="119" on="1"/>
        <pt x="536" y="7" on="1"/>
        <pt x="442" y="-3" on="0"/>
        <pt x="216" y="-3" on="1"/>
        <pt x="147" y="-3" on="0"/>
        <pt x="65" y="72" on="0"/>
        <pt x="64" y="136" on="1"/>
        <pt x="64" y="554" on="1"/>
        <pt x="65" y="618" on="0"/>
        <pt x="147" y="693" on="0"/>
        <pt x="216" y="693" on="1"/>
        <pt x="442" y="693" on="0"/>
        <pt x="536" y="683" on="1"/>
        <pt x="529" y="570" on="1"/>
        <pt x="264" y="570" on="1"/>
        <pt x="239" y="570" on="0"/>
        <pt x="217" y="546" on="0"/>
        <pt x="217" y="519" on="1"/>
        <pt x="217" y="414" on="1"/>
        <pt x="492" y="414" on="1"/>
        <pt x="492" y="304" on="1"/>
        <pt x="217" y="304" on="1"/>
        <pt x="217" y="171" on="1"/>
        <pt x="217" y="143" on="0"/>
        <pt x="239" y="119" on="0"/>
        <pt x="264" y="119" on="1"/>
      </contour>
    </TTGlyph>
    <TTGlyph name="Edotaccent" xMin="64" yMin="-3" xMax="536" yMax="898">
      <contour>
        <pt x="338" y="764" on="1"/>
        <pt x="293" y="764" on="1"/>
        <pt x="251" y="764" on="0"/>
        <pt x="251" y="805" on="1"/>
        <pt x="251" y="857" on="1"/>
        <pt x="251" y="898" on="0"/>
        <pt x="293" y="898" on="1"/>
        <pt x="338" y="898" on="1"/>
        <pt x="380" y="898" on="0"/>
        <pt x="380" y="857" on="1"/>
        <pt x="380" y="805" on="1"/>
        <pt x="380" y="764" on="0"/>
      </contour>
      <contour>
        <pt x="529" y="119" on="1"/>
        <pt x="536" y="7" on="1"/>
        <pt x="442" y="-3" on="0"/>
        <pt x="216" y="-3" on="1"/>
        <pt x="147" y="-3" on="0"/>
        <pt x="65" y="72" on="0"/>
        <pt x="64" y="136" on="1"/>
        <pt x="64" y="554" on="1"/>
        <pt x="65" y="618" on="0"/>
        <pt x="147" y="693" on="0"/>
        <pt x="216" y="693" on="1"/>
        <pt x="442" y="693" on="0"/>
        <pt x="536" y="683" on="1"/>
        <pt x="529" y="570" on="1"/>
        <pt x="264" y="570" on="1"/>
        <pt x="239" y="570" on="0"/>
        <pt x="217" y="546" on="0"/>
        <pt x="217" y="519" on="1"/>
        <pt x="217" y="414" on="1"/>
        <pt x="492" y="414" on="1"/>
        <pt x="492" y="304" on="1"/>
        <pt x="217" y="304" on="1"/>
        <pt x="217" y="171" on="1"/>
        <pt x="217" y="143" on="0"/>
        <pt x="239" y="119" on="0"/>
        <pt x="264" y="119" on="1"/>
      </contour>
    </TTGlyph>
    <TTGlyph name="Egrave" xMin="64" yMin="-3" xMax="536" yMax="946">
      <contour>
        <pt x="343" y="735" on="1"/>
        <pt x="118" y="844" on="1"/>
        <pt x="185" y="946" on="1"/>
        <pt x="387" y="798" on="1"/>
      </contour>
      <contour>
        <pt x="529" y="119" on="1"/>
        <pt x="536" y="7" on="1"/>
        <pt x="442" y="-3" on="0"/>
        <pt x="216" y="-3" on="1"/>
        <pt x="147" y="-3" on="0"/>
        <pt x="65" y="72" on="0"/>
        <pt x="64" y="136" on="1"/>
        <pt x="64" y="554" on="1"/>
        <pt x="65" y="618" on="0"/>
        <pt x="147" y="693" on="0"/>
        <pt x="216" y="693" on="1"/>
        <pt x="442" y="693" on="0"/>
        <pt x="536" y="683" on="1"/>
        <pt x="529" y="570" on="1"/>
        <pt x="264" y="570" on="1"/>
        <pt x="239" y="570" on="0"/>
        <pt x="217" y="546" on="0"/>
        <pt x="217" y="519" on="1"/>
        <pt x="217" y="414" on="1"/>
        <pt x="492" y="414" on="1"/>
        <pt x="492" y="304" on="1"/>
        <pt x="217" y="304" on="1"/>
        <pt x="217" y="171" on="1"/>
        <pt x="217" y="143" on="0"/>
        <pt x="239" y="119" on="0"/>
        <pt x="264" y="119" on="1"/>
      </contour>
    </TTGlyph>
    <TTGlyph name="Emacron" xMin="64" yMin="-3" xMax="536" yMax="883">
      <contour>
        <pt x="465" y="788" on="1"/>
        <pt x="166" y="788" on="1"/>
        <pt x="166" y="883" on="1"/>
        <pt x="465" y="883" on="1"/>
      </contour>
      <contour>
        <pt x="529" y="119" on="1"/>
        <pt x="536" y="7" on="1"/>
        <pt x="442" y="-3" on="0"/>
        <pt x="216" y="-3" on="1"/>
        <pt x="147" y="-3" on="0"/>
        <pt x="65" y="72" on="0"/>
        <pt x="64" y="136" on="1"/>
        <pt x="64" y="554" on="1"/>
        <pt x="65" y="618" on="0"/>
        <pt x="147" y="693" on="0"/>
        <pt x="216" y="693" on="1"/>
        <pt x="442" y="693" on="0"/>
        <pt x="536" y="683" on="1"/>
        <pt x="529" y="570" on="1"/>
        <pt x="264" y="570" on="1"/>
        <pt x="239" y="570" on="0"/>
        <pt x="217" y="546" on="0"/>
        <pt x="217" y="519" on="1"/>
        <pt x="217" y="414" on="1"/>
        <pt x="492" y="414" on="1"/>
        <pt x="492" y="304" on="1"/>
        <pt x="217" y="304" on="1"/>
        <pt x="217" y="171" on="1"/>
        <pt x="217" y="143" on="0"/>
        <pt x="239" y="119" on="0"/>
        <pt x="264" y="119" on="1"/>
      </contour>
    </TTGlyph>
    <TTGlyph name="Eng" xMin="70" yMin="-210" xMax="652" yMax="690">
      <contour>
        <pt x="652" y="690" on="1"/>
        <pt x="652" y="-56" on="1"/>
        <pt x="652" y="-129" on="0"/>
        <pt x="575" y="-211" on="0"/>
        <pt x="511" y="-210" on="1"/>
        <pt x="442" y="-210" on="0"/>
        <pt x="395" y="-191" on="1"/>
        <pt x="411" y="-95" on="1"/>
        <pt x="453" y="-95" on="1"/>
        <pt x="516" y="-95" on="0"/>
        <pt x="516" y="-44" on="1"/>
        <pt x="516" y="4" on="1"/>
        <pt x="492" y="4" on="1"/>
        <pt x="477" y="4" on="0"/>
        <pt x="456" y="43" on="1"/>
        <pt x="261" y="401" on="1"/>
        <pt x="242" y="436" on="0"/>
        <pt x="217" y="508" on="1"/>
        <pt x="208" y="508" on="1"/>
        <pt x="215" y="458" on="0"/>
        <pt x="215" y="401" on="1"/>
        <pt x="215" y="0" on="1"/>
        <pt x="70" y="0" on="1"/>
        <pt x="70" y="635" on="1"/>
        <pt x="70" y="690" on="0"/>
        <pt x="125" y="690" on="1"/>
        <pt x="204" y="690" on="1"/>
        <pt x="227" y="690" on="0"/>
        <pt x="253" y="670" on="0"/>
        <pt x="267" y="645" on="1"/>
        <pt x="453" y="300" on="1"/>
        <pt x="475" y="260" on="0"/>
        <pt x="503" y="189" on="1"/>
        <pt x="513" y="189" on="1"/>
        <pt x="507" y="246" on="0"/>
        <pt x="507" y="302" on="1"/>
        <pt x="507" y="690" on="1"/>
      </contour>
    </TTGlyph>
    <TTGlyph name="Eogonek" xMin="64" yMin="-205" xMax="551" yMax="693">
      <contour>
        <pt x="539" y="-131" on="1"/>
        <pt x="551" y="-185" on="1"/>
        <pt x="478" y="-213" on="0"/>
        <pt x="394" y="-197" on="0"/>
        <pt x="364" y="-141" on="0"/>
        <pt x="377" y="-104" on="1"/>
        <pt x="394" y="-50" on="0"/>
        <pt x="466" y="2" on="1"/>
        <pt x="387" y="-3" on="0"/>
        <pt x="216" y="-3" on="1"/>
        <pt x="147" y="-3" on="0"/>
        <pt x="65" y="72" on="0"/>
        <pt x="64" y="136" on="1"/>
        <pt x="64" y="554" on="1"/>
        <pt x="65" y="618" on="0"/>
        <pt x="147" y="693" on="0"/>
        <pt x="216" y="693" on="1"/>
        <pt x="442" y="693" on="0"/>
        <pt x="536" y="683" on="1"/>
        <pt x="529" y="570" on="1"/>
        <pt x="264" y="570" on="1"/>
        <pt x="239" y="570" on="0"/>
        <pt x="217" y="546" on="0"/>
        <pt x="217" y="519" on="1"/>
        <pt x="217" y="414" on="1"/>
        <pt x="492" y="414" on="1"/>
        <pt x="492" y="304" on="1"/>
        <pt x="217" y="304" on="1"/>
        <pt x="217" y="171" on="1"/>
        <pt x="217" y="143" on="0"/>
        <pt x="239" y="119" on="0"/>
        <pt x="264" y="119" on="1"/>
        <pt x="529" y="119" on="1"/>
        <pt x="536" y="7" on="1"/>
        <pt x="493" y="-53" on="0"/>
        <pt x="476" y="-93" on="1"/>
        <pt x="462" y="-123" on="0"/>
        <pt x="501" y="-142" on="0"/>
      </contour>
    </TTGlyph>
    <TTGlyph name="Eth" xMin="16" yMin="-9" xMax="635" yMax="699">
      <contour>
        <pt x="73" y="400" on="1"/>
        <pt x="73" y="690" on="1"/>
        <pt x="215" y="699" on="0"/>
        <pt x="342" y="699" on="1"/>
        <pt x="506" y="699" on="0"/>
        <pt x="635" y="547" on="0"/>
        <pt x="635" y="143" on="0"/>
        <pt x="506" y="-9" on="0"/>
        <pt x="342" y="-9" on="1"/>
        <pt x="215" y="-9" on="0"/>
        <pt x="73" y="0" on="1"/>
        <pt x="73" y="323" on="1"/>
        <pt x="16" y="323" on="1"/>
        <pt x="16" y="400" on="1"/>
      </contour>
      <contour>
        <pt x="225" y="323" on="1"/>
        <pt x="225" y="112" on="1"/>
        <pt x="242" y="112" on="0"/>
        <pt x="320" y="111" on="0"/>
        <pt x="342" y="111" on="1"/>
        <pt x="419" y="111" on="0"/>
        <pt x="475" y="210" on="0"/>
        <pt x="475" y="345" on="1"/>
        <pt x="475" y="481" on="0"/>
        <pt x="419" y="580" on="0"/>
        <pt x="342" y="580" on="1"/>
        <pt x="225" y="579" on="1"/>
        <pt x="225" y="400" on="1"/>
        <pt x="349" y="400" on="1"/>
        <pt x="349" y="323" on="1"/>
      </contour>
    </TTGlyph>
    <TTGlyph name="Euro" xMin="39" yMin="-12" xMax="600" yMax="702">
      <contour>
        <pt x="492" y="368" on="1"/>
        <pt x="40" y="368" on="1"/>
        <pt x="40" y="463" on="1"/>
        <pt x="116" y="463" on="1"/>
        <pt x="135" y="586" on="0"/>
        <pt x="274" y="702" on="0"/>
        <pt x="411" y="702" on="1"/>
        <pt x="504" y="702" on="0"/>
        <pt x="585" y="679" on="1"/>
        <pt x="572" y="568" on="1"/>
        <pt x="463" y="582" on="0"/>
        <pt x="400" y="573" on="1"/>
        <pt x="350" y="568" on="0"/>
        <pt x="292" y="516" on="0"/>
        <pt x="279" y="463" on="1"/>
        <pt x="502" y="463" on="1"/>
      </contour>
      <contour>
        <pt x="588" y="126" on="1"/>
        <pt x="600" y="16" on="1"/>
        <pt x="518" y="-12" on="0"/>
        <pt x="411" y="-12" on="1"/>
        <pt x="273" y="-12" on="0"/>
        <pt x="134" y="109" on="0"/>
        <pt x="116" y="236" on="1"/>
        <pt x="39" y="236" on="1"/>
        <pt x="39" y="330" on="1"/>
        <pt x="474" y="330" on="1"/>
        <pt x="465" y="236" on="1"/>
        <pt x="277" y="236" on="1"/>
        <pt x="288" y="177" on="0"/>
        <pt x="346" y="120" on="0"/>
        <pt x="400" y="117" on="1"/>
        <pt x="488" y="108" on="0"/>
      </contour>
    </TTGlyph>
    <TTGlyph name="F" xMin="68" yMin="0" xMax="530" yMax="693">
      <contour>
        <pt x="522" y="570" on="1"/>
        <pt x="275" y="570" on="1"/>
        <pt x="246" y="570" on="0"/>
        <pt x="221" y="546" on="0"/>
        <pt x="221" y="519" on="1"/>
        <pt x="221" y="401" on="1"/>
        <pt x="485" y="401" on="1"/>
        <pt x="485" y="290" on="1"/>
        <pt x="221" y="290" on="1"/>
        <pt x="221" y="0" on="1"/>
        <pt x="68" y="0" on="1"/>
        <pt x="68" y="550" on="1"/>
        <pt x="68" y="616" on="0"/>
        <pt x="151" y="693" on="0"/>
        <pt x="220" y="693" on="1"/>
        <pt x="440" y="693" on="0"/>
        <pt x="530" y="682" on="1"/>
      </contour>
    </TTGlyph>
    <TTGlyph name="G" xMin="47" yMin="-13" xMax="592" yMax="703">
      <contour>
        <pt x="592" y="398" on="1"/>
        <pt x="592" y="0" on="1"/>
        <pt x="480" y="0" on="1"/>
        <pt x="466" y="69" on="1"/>
        <pt x="386" y="-13" on="0"/>
        <pt x="267" y="-13" on="1"/>
        <pt x="151" y="-13" on="0"/>
        <pt x="47" y="157" on="0"/>
        <pt x="47" y="347" on="1"/>
        <pt x="47" y="549" on="0"/>
        <pt x="184" y="703" on="0"/>
        <pt x="356" y="703" on="1"/>
        <pt x="481" y="703" on="0"/>
        <pt x="568" y="679" on="1"/>
        <pt x="556" y="567" on="1"/>
        <pt x="443" y="572" on="0"/>
        <pt x="361" y="572" on="1"/>
        <pt x="315" y="572" on="0"/>
        <pt x="262" y="557" on="0"/>
        <pt x="222" y="507" on="0"/>
        <pt x="208" y="418" on="0"/>
        <pt x="208" y="342" on="1"/>
        <pt x="208" y="213" on="0"/>
        <pt x="256" y="117" on="0"/>
        <pt x="321" y="117" on="1"/>
        <pt x="381" y="117" on="0"/>
        <pt x="445" y="152" on="1"/>
        <pt x="445" y="398" on="1"/>
      </contour>
    </TTGlyph>
    <TTGlyph name="Gbreve" xMin="47" yMin="-13" xMax="592" yMax="901">
      <contour>
        <pt x="431" y="901" on="1"/>
        <pt x="502" y="891" on="1"/>
        <pt x="510" y="827" on="0"/>
        <pt x="419" y="740" on="0"/>
        <pt x="257" y="740" on="0"/>
        <pt x="165" y="827" on="0"/>
        <pt x="173" y="891" on="1"/>
        <pt x="244" y="901" on="1"/>
        <pt x="243" y="869" on="0"/>
        <pt x="290" y="837" on="0"/>
        <pt x="338" y="837" on="1"/>
        <pt x="431" y="837" on="0"/>
      </contour>
      <contour>
        <pt x="592" y="398" on="1"/>
        <pt x="592" y="0" on="1"/>
        <pt x="480" y="0" on="1"/>
        <pt x="466" y="69" on="1"/>
        <pt x="386" y="-13" on="0"/>
        <pt x="267" y="-13" on="1"/>
        <pt x="151" y="-13" on="0"/>
        <pt x="47" y="157" on="0"/>
        <pt x="47" y="347" on="1"/>
        <pt x="47" y="549" on="0"/>
        <pt x="184" y="703" on="0"/>
        <pt x="356" y="703" on="1"/>
        <pt x="481" y="703" on="0"/>
        <pt x="568" y="679" on="1"/>
        <pt x="556" y="567" on="1"/>
        <pt x="443" y="572" on="0"/>
        <pt x="361" y="572" on="1"/>
        <pt x="315" y="572" on="0"/>
        <pt x="262" y="557" on="0"/>
        <pt x="222" y="507" on="0"/>
        <pt x="208" y="418" on="0"/>
        <pt x="208" y="342" on="1"/>
        <pt x="208" y="213" on="0"/>
        <pt x="256" y="117" on="0"/>
        <pt x="321" y="117" on="1"/>
        <pt x="381" y="117" on="0"/>
        <pt x="445" y="152" on="1"/>
        <pt x="445" y="398" on="1"/>
      </contour>
    </TTGlyph>
    <TTGlyph name="Gcommaaccent" xMin="47" yMin="-292" xMax="592" yMax="703">
      <contour>
        <pt x="592" y="398" on="1"/>
        <pt x="592" y="0" on="1"/>
        <pt x="480" y="0" on="1"/>
        <pt x="466" y="69" on="1"/>
        <pt x="386" y="-13" on="0"/>
        <pt x="267" y="-13" on="1"/>
        <pt x="151" y="-13" on="0"/>
        <pt x="47" y="157" on="0"/>
        <pt x="47" y="347" on="1"/>
        <pt x="47" y="549" on="0"/>
        <pt x="184" y="703" on="0"/>
        <pt x="356" y="703" on="1"/>
        <pt x="481" y="703" on="0"/>
        <pt x="568" y="679" on="1"/>
        <pt x="556" y="567" on="1"/>
        <pt x="443" y="572" on="0"/>
        <pt x="361" y="572" on="1"/>
        <pt x="315" y="572" on="0"/>
        <pt x="262" y="557" on="0"/>
        <pt x="222" y="507" on="0"/>
        <pt x="208" y="418" on="0"/>
        <pt x="208" y="342" on="1"/>
        <pt x="208" y="213" on="0"/>
        <pt x="256" y="117" on="0"/>
        <pt x="321" y="117" on="1"/>
        <pt x="381" y="117" on="0"/>
        <pt x="445" y="152" on="1"/>
        <pt x="445" y="398" on="1"/>
      </contour>
      <contour>
        <pt x="320" y="-52" on="1"/>
        <pt x="352" y="-52" on="1"/>
        <pt x="378" y="-52" on="0"/>
        <pt x="398" y="-71" on="0"/>
        <pt x="398" y="-94" on="1"/>
        <pt x="398" y="-146" on="1"/>
        <pt x="398" y="-227" on="0"/>
        <pt x="352" y="-292" on="1"/>
        <pt x="296" y="-278" on="1"/>
        <pt x="309" y="-233" on="0"/>
        <pt x="309" y="-174" on="1"/>
        <pt x="271" y="-174" on="0"/>
        <pt x="271" y="-137" on="1"/>
        <pt x="272" y="-94" on="1"/>
        <pt x="273" y="-71" on="0"/>
        <pt x="294" y="-52" on="0"/>
      </contour>
    </TTGlyph>
    <TTGlyph name="Gdotaccent" xMin="47" yMin="-13" xMax="592" yMax="887">
      <contour>
        <pt x="361" y="753" on="1"/>
        <pt x="316" y="753" on="1"/>
        <pt x="274" y="753" on="0"/>
        <pt x="274" y="794" on="1"/>
        <pt x="274" y="846" on="1"/>
        <pt x="274" y="887" on="0"/>
        <pt x="316" y="887" on="1"/>
        <pt x="361" y="887" on="1"/>
        <pt x="403" y="887" on="0"/>
        <pt x="403" y="846" on="1"/>
        <pt x="403" y="794" on="1"/>
        <pt x="403" y="753" on="0"/>
      </contour>
      <contour>
        <pt x="592" y="398" on="1"/>
        <pt x="592" y="0" on="1"/>
        <pt x="480" y="0" on="1"/>
        <pt x="466" y="69" on="1"/>
        <pt x="386" y="-13" on="0"/>
        <pt x="267" y="-13" on="1"/>
        <pt x="151" y="-13" on="0"/>
        <pt x="47" y="157" on="0"/>
        <pt x="47" y="347" on="1"/>
        <pt x="47" y="549" on="0"/>
        <pt x="184" y="703" on="0"/>
        <pt x="356" y="703" on="1"/>
        <pt x="481" y="703" on="0"/>
        <pt x="568" y="679" on="1"/>
        <pt x="556" y="567" on="1"/>
        <pt x="443" y="572" on="0"/>
        <pt x="361" y="572" on="1"/>
        <pt x="315" y="572" on="0"/>
        <pt x="262" y="557" on="0"/>
        <pt x="222" y="507" on="0"/>
        <pt x="208" y="418" on="0"/>
        <pt x="208" y="342" on="1"/>
        <pt x="208" y="213" on="0"/>
        <pt x="256" y="117" on="0"/>
        <pt x="321" y="117" on="1"/>
        <pt x="381" y="117" on="0"/>
        <pt x="445" y="152" on="1"/>
        <pt x="445" y="398" on="1"/>
      </contour>
    </TTGlyph>
    <TTGlyph name="H" xMin="70" yMin="0" xMax="618" yMax="690">
      <contour>
        <pt x="618" y="690" on="1"/>
        <pt x="618" y="0" on="1"/>
        <pt x="466" y="0" on="1"/>
        <pt x="466" y="308" on="1"/>
        <pt x="222" y="308" on="1"/>
        <pt x="222" y="0" on="1"/>
        <pt x="70" y="0" on="1"/>
        <pt x="70" y="690" on="1"/>
        <pt x="222" y="690" on="1"/>
        <pt x="222" y="426" on="1"/>
        <pt x="466" y="426" on="1"/>
        <pt x="466" y="690" on="1"/>
      </contour>
    </TTGlyph>
    <TTGlyph name="Hbar" xMin="13" yMin="0" xMax="681" yMax="690">
      <contour>
        <pt x="681" y="513" on="1"/>
        <pt x="621" y="513" on="1"/>
        <pt x="621" y="0" on="1"/>
        <pt x="468" y="0" on="1"/>
        <pt x="468" y="308" on="1"/>
        <pt x="225" y="308" on="1"/>
        <pt x="225" y="0" on="1"/>
        <pt x="73" y="0" on="1"/>
        <pt x="73" y="513" on="1"/>
        <pt x="13" y="513" on="1"/>
        <pt x="13" y="585" on="1"/>
        <pt x="73" y="585" on="1"/>
        <pt x="73" y="690" on="1"/>
        <pt x="225" y="690" on="1"/>
        <pt x="225" y="585" on="1"/>
        <pt x="468" y="585" on="1"/>
        <pt x="468" y="690" on="1"/>
        <pt x="621" y="690" on="1"/>
        <pt x="621" y="585" on="1"/>
        <pt x="681" y="585" on="1"/>
      </contour>
      <contour>
        <pt x="468" y="513" on="1"/>
        <pt x="225" y="513" on="1"/>
        <pt x="225" y="426" on="1"/>
        <pt x="468" y="426" on="1"/>
      </contour>
    </TTGlyph>
    <TTGlyph name="I" xMin="70" yMin="0" xMax="222" yMax="690">
      <contour>
        <pt x="222" y="0" on="1"/>
        <pt x="70" y="0" on="1"/>
        <pt x="70" y="690" on="1"/>
        <pt x="222" y="690" on="1"/>
      </contour>
    </TTGlyph>
    <TTGlyph name="IJ" xMin="70" yMin="-12" xMax="593" yMax="690">
      <contour>
        <pt x="222" y="0" on="1"/>
        <pt x="70" y="0" on="1"/>
        <pt x="70" y="690" on="1"/>
        <pt x="222" y="690" on="1"/>
      </contour>
      <contour>
        <pt x="593" y="690" on="1"/>
        <pt x="593" y="145" on="1"/>
        <pt x="593" y="70" on="0"/>
        <pt x="512" y="-12" on="0"/>
        <pt x="438" y="-12" on="1"/>
        <pt x="355" y="-12" on="0"/>
        <pt x="312" y="8" on="1"/>
        <pt x="328" y="110" on="1"/>
        <pt x="375" y="110" on="1"/>
        <pt x="442" y="110" on="0"/>
        <pt x="442" y="163" on="1"/>
        <pt x="442" y="690" on="1"/>
      </contour>
    </TTGlyph>
    <TTGlyph name="Iacute" xMin="63" yMin="0" xMax="331" yMax="935">
      <contour>
        <pt x="331" y="832" on="1"/>
        <pt x="106" y="723" on="1"/>
        <pt x="63" y="786" on="1"/>
        <pt x="264" y="935" on="1"/>
      </contour>
      <contour>
        <pt x="222" y="0" on="1"/>
        <pt x="70" y="0" on="1"/>
        <pt x="70" y="690" on="1"/>
        <pt x="222" y="690" on="1"/>
      </contour>
    </TTGlyph>
    <TTGlyph name="Icircumflex" xMin="-41" yMin="0" xMax="333" yMax="909">
      <contour>
        <pt x="333" y="774" on="1"/>
        <pt x="291" y="719" on="1"/>
        <pt x="151" y="814" on="1"/>
        <pt x="143" y="814" on="1"/>
        <pt x="0" y="719" on="1"/>
        <pt x="-41" y="777" on="1"/>
        <pt x="93" y="909" on="1"/>
        <pt x="200" y="909" on="1"/>
      </contour>
      <contour>
        <pt x="222" y="0" on="1"/>
        <pt x="70" y="0" on="1"/>
        <pt x="70" y="690" on="1"/>
        <pt x="222" y="690" on="1"/>
      </contour>
    </TTGlyph>
    <TTGlyph name="Idieresis" xMin="-2" yMin="0" xMax="294" yMax="886">
      <contour>
        <pt x="30" y="886" on="1"/>
        <pt x="79" y="886" on="1"/>
        <pt x="111" y="886" on="0"/>
        <pt x="111" y="853" on="1"/>
        <pt x="111" y="796" on="1"/>
        <pt x="111" y="763" on="0"/>
        <pt x="79" y="763" on="1"/>
        <pt x="30" y="763" on="1"/>
        <pt x="-2" y="763" on="0"/>
        <pt x="-2" y="796" on="1"/>
        <pt x="-2" y="853" on="1"/>
        <pt x="-2" y="886" on="0"/>
      </contour>
      <contour>
        <pt x="212" y="886" on="1"/>
        <pt x="261" y="886" on="1"/>
        <pt x="294" y="886" on="0"/>
        <pt x="294" y="853" on="1"/>
        <pt x="294" y="796" on="1"/>
        <pt x="294" y="763" on="0"/>
        <pt x="261" y="763" on="1"/>
        <pt x="212" y="763" on="1"/>
        <pt x="179" y="763" on="0"/>
        <pt x="179" y="796" on="1"/>
        <pt x="179" y="853" on="1"/>
        <pt x="179" y="886" on="0"/>
      </contour>
      <contour>
        <pt x="222" y="0" on="1"/>
        <pt x="70" y="0" on="1"/>
        <pt x="70" y="690" on="1"/>
        <pt x="222" y="690" on="1"/>
      </contour>
    </TTGlyph>
    <TTGlyph name="Idotaccent" xMin="70" yMin="0" xMax="222" yMax="887">
      <contour>
        <pt x="124" y="887" on="1"/>
        <pt x="169" y="887" on="1"/>
        <pt x="211" y="887" on="0"/>
        <pt x="211" y="846" on="1"/>
        <pt x="211" y="794" on="1"/>
        <pt x="211" y="753" on="0"/>
        <pt x="169" y="753" on="1"/>
        <pt x="124" y="753" on="1"/>
        <pt x="82" y="753" on="0"/>
        <pt x="82" y="794" on="1"/>
        <pt x="82" y="846" on="1"/>
        <pt x="82" y="887" on="0"/>
      </contour>
      <contour>
        <pt x="222" y="0" on="1"/>
        <pt x="70" y="0" on="1"/>
        <pt x="70" y="690" on="1"/>
        <pt x="222" y="690" on="1"/>
      </contour>
    </TTGlyph>
    <TTGlyph name="Igrave" xMin="-51" yMin="0" xMax="222" yMax="935">
      <contour>
        <pt x="218" y="786" on="1"/>
        <pt x="174" y="723" on="1"/>
        <pt x="-51" y="832" on="1"/>
        <pt x="17" y="935" on="1"/>
      </contour>
      <contour>
        <pt x="222" y="0" on="1"/>
        <pt x="70" y="0" on="1"/>
        <pt x="70" y="690" on="1"/>
        <pt x="222" y="690" on="1"/>
      </contour>
    </TTGlyph>
    <TTGlyph name="Imacron" xMin="-3" yMin="0" xMax="296" yMax="872">
      <contour>
        <pt x="296" y="776" on="1"/>
        <pt x="-3" y="776" on="1"/>
        <pt x="-3" y="872" on="1"/>
        <pt x="296" y="872" on="1"/>
      </contour>
      <contour>
        <pt x="222" y="0" on="1"/>
        <pt x="70" y="0" on="1"/>
        <pt x="70" y="690" on="1"/>
        <pt x="222" y="690" on="1"/>
      </contour>
    </TTGlyph>
    <TTGlyph name="Iogonek" xMin="43" yMin="-212" xMax="222" yMax="690">
      <contour>
        <pt x="222" y="0" on="1"/>
        <pt x="203" y="0" on="1"/>
        <pt x="161" y="-57" on="0"/>
        <pt x="142" y="-100" on="1"/>
        <pt x="129" y="-130" on="0"/>
        <pt x="167" y="-149" on="0"/>
        <pt x="205" y="-138" on="1"/>
        <pt x="218" y="-193" on="1"/>
        <pt x="145" y="-220" on="0"/>
        <pt x="60" y="-204" on="0"/>
        <pt x="30" y="-148" on="0"/>
        <pt x="43" y="-111" on="1"/>
        <pt x="63" y="-54" on="0"/>
        <pt x="141" y="0" on="1"/>
        <pt x="70" y="0" on="1"/>
        <pt x="70" y="690" on="1"/>
        <pt x="222" y="690" on="1"/>
      </contour>
    </TTGlyph>
    <TTGlyph name="J" xMin="20" yMin="-12" xMax="302" yMax="690">
      <contour>
        <pt x="302" y="690" on="1"/>
        <pt x="302" y="145" on="1"/>
        <pt x="302" y="70" on="0"/>
        <pt x="220" y="-12" on="0"/>
        <pt x="146" y="-12" on="1"/>
        <pt x="63" y="-12" on="0"/>
        <pt x="20" y="8" on="1"/>
        <pt x="37" y="110" on="1"/>
        <pt x="84" y="110" on="1"/>
        <pt x="150" y="110" on="0"/>
        <pt x="150" y="163" on="1"/>
        <pt x="150" y="690" on="1"/>
      </contour>
    </TTGlyph>
    <TTGlyph name="K" xMin="70" yMin="0" xMax="626" yMax="690">
      <contour>
        <pt x="274" y="304" on="1"/>
        <pt x="215" y="304" on="1"/>
        <pt x="222" y="264" on="0"/>
        <pt x="222" y="238" on="1"/>
        <pt x="222" y="0" on="1"/>
        <pt x="70" y="0" on="1"/>
        <pt x="70" y="690" on="1"/>
        <pt x="222" y="690" on="1"/>
        <pt x="222" y="495" on="1"/>
        <pt x="222" y="451" on="0"/>
        <pt x="215" y="413" on="1"/>
        <pt x="274" y="413" on="1"/>
        <pt x="449" y="690" on="1"/>
        <pt x="614" y="690" on="1"/>
        <pt x="436" y="415" on="1"/>
        <pt x="419" y="385" on="0"/>
        <pt x="386" y="360" on="1"/>
        <pt x="386" y="356" on="1"/>
        <pt x="422" y="331" on="0"/>
        <pt x="444" y="295" on="1"/>
        <pt x="626" y="0" on="1"/>
        <pt x="456" y="0" on="1"/>
      </contour>
    </TTGlyph>
    <TTGlyph name="Kcommaaccent" xMin="70" yMin="-292" xMax="626" yMax="690">
      <contour>
        <pt x="626" y="0" on="1"/>
        <pt x="456" y="0" on="1"/>
        <pt x="274" y="304" on="1"/>
        <pt x="215" y="304" on="1"/>
        <pt x="222" y="264" on="0"/>
        <pt x="222" y="238" on="1"/>
        <pt x="222" y="0" on="1"/>
        <pt x="70" y="0" on="1"/>
        <pt x="70" y="690" on="1"/>
        <pt x="222" y="690" on="1"/>
        <pt x="222" y="495" on="1"/>
        <pt x="222" y="451" on="0"/>
        <pt x="215" y="413" on="1"/>
        <pt x="274" y="413" on="1"/>
        <pt x="449" y="690" on="1"/>
        <pt x="614" y="690" on="1"/>
        <pt x="436" y="415" on="1"/>
        <pt x="419" y="385" on="0"/>
        <pt x="386" y="360" on="1"/>
        <pt x="386" y="356" on="1"/>
        <pt x="422" y="331" on="0"/>
        <pt x="444" y="295" on="1"/>
      </contour>
      <contour>
        <pt x="314" y="-52" on="1"/>
        <pt x="346" y="-52" on="1"/>
        <pt x="372" y="-52" on="0"/>
        <pt x="392" y="-71" on="0"/>
        <pt x="393" y="-94" on="1"/>
        <pt x="393" y="-146" on="1"/>
        <pt x="392" y="-227" on="0"/>
        <pt x="346" y="-292" on="1"/>
        <pt x="290" y="-278" on="1"/>
        <pt x="302" y="-235" on="0"/>
        <pt x="304" y="-174" on="1"/>
        <pt x="267" y="-174" on="0"/>
        <pt x="265" y="-137" on="1"/>
        <pt x="266" y="-94" on="1"/>
        <pt x="268" y="-71" on="0"/>
        <pt x="289" y="-52" on="0"/>
      </contour>
    </TTGlyph>
    <TTGlyph name="L" xMin="68" yMin="-3" xMax="518" yMax="690">
      <contour>
        <pt x="220" y="690" on="1"/>
        <pt x="220" y="175" on="1"/>
        <pt x="220" y="148" on="0"/>
        <pt x="245" y="124" on="0"/>
        <pt x="274" y="124" on="1"/>
        <pt x="511" y="124" on="1"/>
        <pt x="518" y="8" on="1"/>
        <pt x="417" y="-3" on="0"/>
        <pt x="226" y="-3" on="1"/>
        <pt x="146" y="-3" on="0"/>
        <pt x="68" y="77" on="0"/>
        <pt x="68" y="144" on="1"/>
        <pt x="68" y="690" on="1"/>
      </contour>
    </TTGlyph>
    <TTGlyph name="Lacute" xMin="64" yMin="-3" xMax="518" yMax="935">
      <contour>
        <pt x="333" y="832" on="1"/>
        <pt x="107" y="723" on="1"/>
        <pt x="64" y="786" on="1"/>
        <pt x="265" y="935" on="1"/>
      </contour>
      <contour>
        <pt x="220" y="690" on="1"/>
        <pt x="220" y="175" on="1"/>
        <pt x="220" y="148" on="0"/>
        <pt x="245" y="124" on="0"/>
        <pt x="274" y="124" on="1"/>
        <pt x="511" y="124" on="1"/>
        <pt x="518" y="8" on="1"/>
        <pt x="417" y="-3" on="0"/>
        <pt x="226" y="-3" on="1"/>
        <pt x="146" y="-3" on="0"/>
        <pt x="68" y="77" on="0"/>
        <pt x="68" y="144" on="1"/>
        <pt x="68" y="690" on="1"/>
      </contour>
    </TTGlyph>
    <TTGlyph name="Lcaron" xMin="68" yMin="-3" xMax="518" yMax="691">
      <contour>
        <pt x="355" y="691" on="1"/>
        <pt x="387" y="691" on="1"/>
        <pt x="413" y="691" on="0"/>
        <pt x="433" y="673" on="0"/>
        <pt x="434" y="650" on="1"/>
        <pt x="434" y="598" on="1"/>
        <pt x="433" y="517" on="0"/>
        <pt x="387" y="451" on="1"/>
        <pt x="331" y="466" on="1"/>
        <pt x="344" y="510" on="0"/>
        <pt x="344" y="570" on="1"/>
        <pt x="308" y="570" on="0"/>
        <pt x="306" y="606" on="1"/>
        <pt x="307" y="650" on="1"/>
        <pt x="308" y="673" on="0"/>
        <pt x="329" y="691" on="0"/>
      </contour>
      <contour>
        <pt x="220" y="690" on="1"/>
        <pt x="220" y="175" on="1"/>
        <pt x="220" y="148" on="0"/>
        <pt x="245" y="124" on="0"/>
        <pt x="274" y="124" on="1"/>
        <pt x="511" y="124" on="1"/>
        <pt x="518" y="8" on="1"/>
        <pt x="417" y="-3" on="0"/>
        <pt x="226" y="-3" on="1"/>
        <pt x="146" y="-3" on="0"/>
        <pt x="68" y="77" on="0"/>
        <pt x="68" y="144" on="1"/>
        <pt x="68" y="690" on="1"/>
      </contour>
    </TTGlyph>
    <TTGlyph name="Lcommaaccent" xMin="68" yMin="-292" xMax="518" yMax="690">
      <contour>
        <pt x="220" y="690" on="1"/>
        <pt x="220" y="175" on="1"/>
        <pt x="220" y="148" on="0"/>
        <pt x="245" y="124" on="0"/>
        <pt x="274" y="124" on="1"/>
        <pt x="511" y="124" on="1"/>
        <pt x="518" y="8" on="1"/>
        <pt x="417" y="-3" on="0"/>
        <pt x="226" y="-3" on="1"/>
        <pt x="146" y="-3" on="0"/>
        <pt x="68" y="77" on="0"/>
        <pt x="68" y="144" on="1"/>
        <pt x="68" y="690" on="1"/>
      </contour>
      <contour>
        <pt x="279" y="-52" on="1"/>
        <pt x="310" y="-52" on="1"/>
        <pt x="336" y="-52" on="0"/>
        <pt x="357" y="-71" on="0"/>
        <pt x="357" y="-94" on="1"/>
        <pt x="357" y="-146" on="1"/>
        <pt x="356" y="-227" on="0"/>
        <pt x="310" y="-292" on="1"/>
        <pt x="254" y="-278" on="1"/>
        <pt x="268" y="-229" on="0"/>
        <pt x="268" y="-174" on="1"/>
        <pt x="230" y="-174" on="0"/>
        <pt x="230" y="-137" on="1"/>
        <pt x="231" y="-94" on="1"/>
        <pt x="232" y="-71" on="0"/>
        <pt x="253" y="-52" on="0"/>
      </contour>
    </TTGlyph>
    <TTGlyph name="Ldot" xMin="68" yMin="-3" xMax="518" yMax="690">
      <contour>
        <pt x="220" y="690" on="1"/>
        <pt x="220" y="175" on="1"/>
        <pt x="220" y="148" on="0"/>
        <pt x="245" y="124" on="0"/>
        <pt x="274" y="124" on="1"/>
        <pt x="511" y="124" on="1"/>
        <pt x="518" y="8" on="1"/>
        <pt x="417" y="-3" on="0"/>
        <pt x="226" y="-3" on="1"/>
        <pt x="146" y="-3" on="0"/>
        <pt x="68" y="77" on="0"/>
        <pt x="68" y="144" on="1"/>
        <pt x="68" y="690" on="1"/>
      </contour>
      <contour>
        <pt x="435" y="342" on="1"/>
        <pt x="389" y="342" on="1"/>
        <pt x="347" y="342" on="0"/>
        <pt x="347" y="383" on="1"/>
        <pt x="347" y="435" on="1"/>
        <pt x="347" y="476" on="0"/>
        <pt x="389" y="476" on="1"/>
        <pt x="435" y="476" on="1"/>
        <pt x="477" y="476" on="0"/>
        <pt x="477" y="435" on="1"/>
        <pt x="477" y="383" on="1"/>
        <pt x="477" y="342" on="0"/>
      </contour>
    </TTGlyph>
    <TTGlyph name="Lslash" xMin="14" yMin="-3" xMax="522" yMax="690">
      <contour>
        <pt x="515" y="124" on="1"/>
        <pt x="522" y="8" on="1"/>
        <pt x="421" y="-3" on="0"/>
        <pt x="230" y="-3" on="1"/>
        <pt x="150" y="-3" on="0"/>
        <pt x="72" y="77" on="0"/>
        <pt x="72" y="144" on="1"/>
        <pt x="72" y="311" on="1"/>
        <pt x="14" y="287" on="1"/>
        <pt x="14" y="369" on="1"/>
        <pt x="72" y="392" on="1"/>
        <pt x="72" y="690" on="1"/>
        <pt x="224" y="690" on="1"/>
        <pt x="224" y="453" on="1"/>
        <pt x="333" y="496" on="1"/>
        <pt x="333" y="414" on="1"/>
        <pt x="224" y="371" on="1"/>
        <pt x="224" y="175" on="1"/>
        <pt x="224" y="148" on="0"/>
        <pt x="249" y="124" on="0"/>
        <pt x="278" y="124" on="1"/>
      </contour>
    </TTGlyph>
    <TTGlyph name="M" xMin="57" yMin="0" xMax="855" yMax="690">
      <contour>
        <pt x="624" y="690" on="1"/>
        <pt x="771" y="690" on="1"/>
        <pt x="826" y="690" on="0"/>
        <pt x="828" y="633" on="1"/>
        <pt x="855" y="0" on="1"/>
        <pt x="711" y="0" on="1"/>
        <pt x="688" y="571" on="1"/>
        <pt x="671" y="571" on="1"/>
        <pt x="567" y="144" on="1"/>
        <pt x="557" y="95" on="0"/>
        <pt x="505" y="95" on="1"/>
        <pt x="405" y="95" on="1"/>
        <pt x="353" y="95" on="0"/>
        <pt x="343" y="144" on="1"/>
        <pt x="238" y="571" on="1"/>
        <pt x="221" y="571" on="1"/>
        <pt x="201" y="0" on="1"/>
        <pt x="57" y="0" on="1"/>
        <pt x="82" y="633" on="1"/>
        <pt x="85" y="690" on="0"/>
        <pt x="139" y="690" on="1"/>
        <pt x="286" y="690" on="1"/>
        <pt x="335" y="690" on="0"/>
        <pt x="346" y="641" on="1"/>
        <pt x="430" y="297" on="1"/>
        <pt x="438" y="264" on="0"/>
        <pt x="448" y="200" on="1"/>
        <pt x="461" y="200" on="1"/>
        <pt x="462" y="205" on="0"/>
        <pt x="475" y="277" on="0"/>
        <pt x="479" y="297" on="1"/>
        <pt x="562" y="641" on="1"/>
        <pt x="574" y="690" on="0"/>
      </contour>
    </TTGlyph>
    <TTGlyph name="N" xMin="70" yMin="0" xMax="652" yMax="690">
      <contour>
        <pt x="652" y="690" on="1"/>
        <pt x="652" y="55" on="1"/>
        <pt x="652" y="0" on="0"/>
        <pt x="598" y="0" on="1"/>
        <pt x="503" y="0" on="1"/>
        <pt x="480" y="0" on="0"/>
        <pt x="454" y="21" on="0"/>
        <pt x="442" y="45" on="1"/>
        <pt x="261" y="413" on="1"/>
        <pt x="227" y="486" on="0"/>
        <pt x="219" y="520" on="1"/>
        <pt x="208" y="520" on="1"/>
        <pt x="215" y="470" on="0"/>
        <pt x="215" y="410" on="1"/>
        <pt x="215" y="0" on="1"/>
        <pt x="70" y="0" on="1"/>
        <pt x="70" y="635" on="1"/>
        <pt x="70" y="690" on="0"/>
        <pt x="125" y="690" on="1"/>
        <pt x="218" y="690" on="1"/>
        <pt x="241" y="690" on="0"/>
        <pt x="267" y="669" on="0"/>
        <pt x="279" y="645" on="1"/>
        <pt x="454" y="288" on="1"/>
        <pt x="479" y="238" on="0"/>
        <pt x="504" y="177" on="1"/>
        <pt x="514" y="177" on="1"/>
        <pt x="508" y="255" on="0"/>
        <pt x="508" y="293" on="1"/>
        <pt x="508" y="690" on="1"/>
      </contour>
    </TTGlyph>
    <TTGlyph name="Nacute" xMin="70" yMin="0" xMax="652" yMax="935">
      <contour>
        <pt x="553" y="832" on="1"/>
        <pt x="328" y="723" on="1"/>
        <pt x="284" y="786" on="1"/>
        <pt x="485" y="935" on="1"/>
      </contour>
      <contour>
        <pt x="652" y="690" on="1"/>
        <pt x="652" y="55" on="1"/>
        <pt x="652" y="0" on="0"/>
        <pt x="598" y="0" on="1"/>
        <pt x="503" y="0" on="1"/>
        <pt x="480" y="0" on="0"/>
        <pt x="454" y="21" on="0"/>
        <pt x="442" y="45" on="1"/>
        <pt x="261" y="413" on="1"/>
        <pt x="227" y="486" on="0"/>
        <pt x="219" y="520" on="1"/>
        <pt x="208" y="520" on="1"/>
        <pt x="215" y="470" on="0"/>
        <pt x="215" y="410" on="1"/>
        <pt x="215" y="0" on="1"/>
        <pt x="70" y="0" on="1"/>
        <pt x="70" y="635" on="1"/>
        <pt x="70" y="690" on="0"/>
        <pt x="125" y="690" on="1"/>
        <pt x="218" y="690" on="1"/>
        <pt x="241" y="690" on="0"/>
        <pt x="267" y="669" on="0"/>
        <pt x="279" y="645" on="1"/>
        <pt x="454" y="288" on="1"/>
        <pt x="479" y="238" on="0"/>
        <pt x="504" y="177" on="1"/>
        <pt x="514" y="177" on="1"/>
        <pt x="508" y="255" on="0"/>
        <pt x="508" y="293" on="1"/>
        <pt x="508" y="690" on="1"/>
      </contour>
    </TTGlyph>
    <TTGlyph name="Ncaron" xMin="70" yMin="0" xMax="652" yMax="928">
      <contour>
        <pt x="552" y="870" on="1"/>
        <pt x="399" y="739" on="1"/>
        <pt x="338" y="739" on="1"/>
        <pt x="185" y="870" on="1"/>
        <pt x="226" y="928" on="1"/>
        <pt x="364" y="849" on="1"/>
        <pt x="372" y="849" on="1"/>
        <pt x="510" y="928" on="1"/>
      </contour>
      <contour>
        <pt x="652" y="690" on="1"/>
        <pt x="652" y="55" on="1"/>
        <pt x="652" y="0" on="0"/>
        <pt x="598" y="0" on="1"/>
        <pt x="503" y="0" on="1"/>
        <pt x="480" y="0" on="0"/>
        <pt x="454" y="21" on="0"/>
        <pt x="442" y="45" on="1"/>
        <pt x="261" y="413" on="1"/>
        <pt x="227" y="486" on="0"/>
        <pt x="219" y="520" on="1"/>
        <pt x="208" y="520" on="1"/>
        <pt x="215" y="470" on="0"/>
        <pt x="215" y="410" on="1"/>
        <pt x="215" y="0" on="1"/>
        <pt x="70" y="0" on="1"/>
        <pt x="70" y="635" on="1"/>
        <pt x="70" y="690" on="0"/>
        <pt x="125" y="690" on="1"/>
        <pt x="218" y="690" on="1"/>
        <pt x="241" y="690" on="0"/>
        <pt x="267" y="669" on="0"/>
        <pt x="279" y="645" on="1"/>
        <pt x="454" y="288" on="1"/>
        <pt x="479" y="238" on="0"/>
        <pt x="504" y="177" on="1"/>
        <pt x="514" y="177" on="1"/>
        <pt x="508" y="255" on="0"/>
        <pt x="508" y="293" on="1"/>
        <pt x="508" y="690" on="1"/>
      </contour>
    </TTGlyph>
    <TTGlyph name="Ncommaaccent" xMin="70" yMin="-292" xMax="652" yMax="690">
      <contour>
        <pt x="652" y="690" on="1"/>
        <pt x="652" y="55" on="1"/>
        <pt x="652" y="0" on="0"/>
        <pt x="598" y="0" on="1"/>
        <pt x="503" y="0" on="1"/>
        <pt x="480" y="0" on="0"/>
        <pt x="454" y="21" on="0"/>
        <pt x="442" y="45" on="1"/>
        <pt x="261" y="413" on="1"/>
        <pt x="227" y="486" on="0"/>
        <pt x="219" y="520" on="1"/>
        <pt x="208" y="520" on="1"/>
        <pt x="215" y="470" on="0"/>
        <pt x="215" y="410" on="1"/>
        <pt x="215" y="0" on="1"/>
        <pt x="70" y="0" on="1"/>
        <pt x="70" y="635" on="1"/>
        <pt x="70" y="690" on="0"/>
        <pt x="125" y="690" on="1"/>
        <pt x="218" y="690" on="1"/>
        <pt x="241" y="690" on="0"/>
        <pt x="267" y="669" on="0"/>
        <pt x="279" y="645" on="1"/>
        <pt x="454" y="288" on="1"/>
        <pt x="479" y="238" on="0"/>
        <pt x="504" y="177" on="1"/>
        <pt x="514" y="177" on="1"/>
        <pt x="508" y="255" on="0"/>
        <pt x="508" y="293" on="1"/>
        <pt x="508" y="690" on="1"/>
      </contour>
      <contour>
        <pt x="342" y="-52" on="1"/>
        <pt x="373" y="-52" on="1"/>
        <pt x="399" y="-52" on="0"/>
        <pt x="420" y="-71" on="0"/>
        <pt x="420" y="-94" on="1"/>
        <pt x="420" y="-146" on="1"/>
        <pt x="419" y="-227" on="0"/>
        <pt x="373" y="-292" on="1"/>
        <pt x="318" y="-278" on="1"/>
        <pt x="331" y="-227" on="0"/>
        <pt x="331" y="-174" on="1"/>
        <pt x="293" y="-174" on="0"/>
        <pt x="293" y="-137" on="1"/>
        <pt x="294" y="-94" on="1"/>
        <pt x="295" y="-71" on="0"/>
        <pt x="316" y="-52" on="0"/>
      </contour>
    </TTGlyph>
    <TTGlyph name="Ntilde" xMin="70" yMin="0" xMax="652" yMax="899">
      <contour>
        <pt x="257" y="757" on="1"/>
        <pt x="194" y="757" on="1"/>
        <pt x="183" y="828" on="0"/>
        <pt x="233" y="902" on="0"/>
        <pt x="275" y="899" on="1"/>
        <pt x="310" y="896" on="0"/>
        <pt x="411" y="855" on="0"/>
        <pt x="435" y="851" on="1"/>
        <pt x="458" y="847" on="0"/>
        <pt x="473" y="866" on="0"/>
        <pt x="473" y="894" on="1"/>
        <pt x="536" y="894" on="1"/>
        <pt x="547" y="826" on="0"/>
        <pt x="499" y="750" on="0"/>
        <pt x="455" y="753" on="1"/>
        <pt x="417" y="756" on="0"/>
        <pt x="314" y="799" on="0"/>
        <pt x="295" y="802" on="1"/>
        <pt x="271" y="806" on="0"/>
        <pt x="257" y="786" on="0"/>
      </contour>
      <contour>
        <pt x="652" y="690" on="1"/>
        <pt x="652" y="55" on="1"/>
        <pt x="652" y="0" on="0"/>
        <pt x="598" y="0" on="1"/>
        <pt x="503" y="0" on="1"/>
        <pt x="480" y="0" on="0"/>
        <pt x="454" y="21" on="0"/>
        <pt x="442" y="45" on="1"/>
        <pt x="261" y="413" on="1"/>
        <pt x="227" y="486" on="0"/>
        <pt x="219" y="520" on="1"/>
        <pt x="208" y="520" on="1"/>
        <pt x="215" y="470" on="0"/>
        <pt x="215" y="410" on="1"/>
        <pt x="215" y="0" on="1"/>
        <pt x="70" y="0" on="1"/>
        <pt x="70" y="635" on="1"/>
        <pt x="70" y="690" on="0"/>
        <pt x="125" y="690" on="1"/>
        <pt x="218" y="690" on="1"/>
        <pt x="241" y="690" on="0"/>
        <pt x="267" y="669" on="0"/>
        <pt x="279" y="645" on="1"/>
        <pt x="454" y="288" on="1"/>
        <pt x="479" y="238" on="0"/>
        <pt x="504" y="177" on="1"/>
        <pt x="514" y="177" on="1"/>
        <pt x="508" y="255" on="0"/>
        <pt x="508" y="293" on="1"/>
        <pt x="508" y="690" on="1"/>
      </contour>
    </TTGlyph>
    <TTGlyph name="O" xMin="47" yMin="-13" xMax="638" yMax="703">
      <contour>
        <pt x="176" y="703" on="0"/>
        <pt x="508" y="703" on="0"/>
        <pt x="638" y="550" on="0"/>
        <pt x="638" y="140" on="0"/>
        <pt x="508" y="-13" on="0"/>
        <pt x="176" y="-13" on="0"/>
        <pt x="47" y="140" on="0"/>
        <pt x="47" y="550" on="0"/>
      </contour>
      <contour>
        <pt x="420" y="580" on="0"/>
        <pt x="264" y="580" on="0"/>
        <pt x="207" y="482" on="0"/>
        <pt x="207" y="208" on="0"/>
        <pt x="264" y="110" on="0"/>
        <pt x="420" y="110" on="0"/>
        <pt x="477" y="208" on="0"/>
        <pt x="477" y="482" on="0"/>
      </contour>
    </TTGlyph>
    <TTGlyph name="OE" xMin="47" yMin="-13" xMax="905" yMax="703">
      <contour>
        <pt x="898" y="119" on="1"/>
        <pt x="905" y="7" on="1"/>
        <pt x="811" y="-3" on="0"/>
        <pt x="582" y="-3" on="1"/>
        <pt x="540" y="-3" on="0"/>
        <pt x="505" y="19" on="1"/>
        <pt x="437" y="-13" on="0"/>
        <pt x="340" y="-13" on="1"/>
        <pt x="229" y="-13" on="0"/>
        <pt x="105" y="51" on="0"/>
        <pt x="47" y="205" on="0"/>
        <pt x="47" y="485" on="0"/>
        <pt x="105" y="639" on="0"/>
        <pt x="229" y="703" on="0"/>
        <pt x="340" y="703" on="1"/>
        <pt x="437" y="703" on="0"/>
        <pt x="515" y="674" on="1"/>
        <pt x="548" y="693" on="0"/>
        <pt x="588" y="693" on="1"/>
        <pt x="813" y="693" on="0"/>
        <pt x="905" y="683" on="1"/>
        <pt x="898" y="570" on="1"/>
        <pt x="651" y="570" on="1"/>
        <pt x="623" y="570" on="0"/>
        <pt x="598" y="546" on="0"/>
        <pt x="598" y="519" on="1"/>
        <pt x="598" y="413" on="1"/>
        <pt x="862" y="413" on="1"/>
        <pt x="862" y="305" on="1"/>
        <pt x="598" y="305" on="1"/>
        <pt x="598" y="171" on="1"/>
        <pt x="598" y="143" on="0"/>
        <pt x="623" y="119" on="0"/>
        <pt x="651" y="119" on="1"/>
      </contour>
      <contour>
        <pt x="445" y="144" on="1"/>
        <pt x="445" y="546" on="1"/>
        <pt x="445" y="562" on="0"/>
        <pt x="446" y="570" on="1"/>
        <pt x="401" y="580" on="0"/>
        <pt x="340" y="580" on="1"/>
        <pt x="263" y="580" on="0"/>
        <pt x="208" y="483" on="0"/>
        <pt x="208" y="345" on="1"/>
        <pt x="208" y="208" on="0"/>
        <pt x="263" y="110" on="0"/>
        <pt x="340" y="110" on="1"/>
        <pt x="404" y="110" on="0"/>
        <pt x="446" y="121" on="1"/>
        <pt x="445" y="129" on="0"/>
      </contour>
    </TTGlyph>
    <TTGlyph name="Oacute" xMin="47" yMin="-13" xMax="638" yMax="935">
      <contour>
        <pt x="526" y="832" on="1"/>
        <pt x="301" y="723" on="1"/>
        <pt x="258" y="786" on="1"/>
        <pt x="459" y="935" on="1"/>
      </contour>
      <contour>
        <pt x="176" y="703" on="0"/>
        <pt x="508" y="703" on="0"/>
        <pt x="638" y="550" on="0"/>
        <pt x="638" y="140" on="0"/>
        <pt x="508" y="-13" on="0"/>
        <pt x="176" y="-13" on="0"/>
        <pt x="47" y="140" on="0"/>
        <pt x="47" y="550" on="0"/>
      </contour>
      <contour>
        <pt x="420" y="580" on="0"/>
        <pt x="264" y="580" on="0"/>
        <pt x="207" y="482" on="0"/>
        <pt x="207" y="208" on="0"/>
        <pt x="264" y="110" on="0"/>
        <pt x="420" y="110" on="0"/>
        <pt x="477" y="208" on="0"/>
        <pt x="477" y="482" on="0"/>
      </contour>
    </TTGlyph>
    <TTGlyph name="Ocircumflex" xMin="47" yMin="-13" xMax="638" yMax="909">
      <contour>
        <pt x="528" y="774" on="1"/>
        <pt x="486" y="719" on="1"/>
        <pt x="346" y="814" on="1"/>
        <pt x="338" y="814" on="1"/>
        <pt x="195" y="719" on="1"/>
        <pt x="154" y="777" on="1"/>
        <pt x="288" y="909" on="1"/>
        <pt x="395" y="909" on="1"/>
      </contour>
      <contour>
        <pt x="176" y="703" on="0"/>
        <pt x="508" y="703" on="0"/>
        <pt x="638" y="550" on="0"/>
        <pt x="638" y="140" on="0"/>
        <pt x="508" y="-13" on="0"/>
        <pt x="176" y="-13" on="0"/>
        <pt x="47" y="140" on="0"/>
        <pt x="47" y="550" on="0"/>
      </contour>
      <contour>
        <pt x="420" y="580" on="0"/>
        <pt x="264" y="580" on="0"/>
        <pt x="207" y="482" on="0"/>
        <pt x="207" y="208" on="0"/>
        <pt x="264" y="110" on="0"/>
        <pt x="420" y="110" on="0"/>
        <pt x="477" y="208" on="0"/>
        <pt x="477" y="482" on="0"/>
      </contour>
    </TTGlyph>
    <TTGlyph name="Odieresis" xMin="47" yMin="-13" xMax="638" yMax="886">
      <contour>
        <pt x="225" y="886" on="1"/>
        <pt x="274" y="886" on="1"/>
        <pt x="306" y="886" on="0"/>
        <pt x="306" y="853" on="1"/>
        <pt x="306" y="796" on="1"/>
        <pt x="306" y="763" on="0"/>
        <pt x="274" y="763" on="1"/>
        <pt x="225" y="763" on="1"/>
        <pt x="193" y="763" on="0"/>
        <pt x="193" y="796" on="1"/>
        <pt x="193" y="853" on="1"/>
        <pt x="193" y="886" on="0"/>
      </contour>
      <contour>
        <pt x="407" y="886" on="1"/>
        <pt x="456" y="886" on="1"/>
        <pt x="489" y="886" on="0"/>
        <pt x="489" y="853" on="1"/>
        <pt x="489" y="796" on="1"/>
        <pt x="489" y="763" on="0"/>
        <pt x="456" y="763" on="1"/>
        <pt x="407" y="763" on="1"/>
        <pt x="374" y="763" on="0"/>
        <pt x="374" y="796" on="1"/>
        <pt x="374" y="853" on="1"/>
        <pt x="374" y="886" on="0"/>
      </contour>
      <contour>
        <pt x="176" y="703" on="0"/>
        <pt x="508" y="703" on="0"/>
        <pt x="638" y="550" on="0"/>
        <pt x="638" y="140" on="0"/>
        <pt x="508" y="-13" on="0"/>
        <pt x="176" y="-13" on="0"/>
        <pt x="47" y="140" on="0"/>
        <pt x="47" y="550" on="0"/>
      </contour>
      <contour>
        <pt x="420" y="580" on="0"/>
        <pt x="264" y="580" on="0"/>
        <pt x="207" y="482" on="0"/>
        <pt x="207" y="208" on="0"/>
        <pt x="264" y="110" on="0"/>
        <pt x="420" y="110" on="0"/>
        <pt x="477" y="208" on="0"/>
        <pt x="477" y="482" on="0"/>
      </contour>
    </TTGlyph>
    <TTGlyph name="Ograve" xMin="47" yMin="-13" xMax="638" yMax="935">
      <contour>
        <pt x="413" y="786" on="1"/>
        <pt x="370" y="723" on="1"/>
        <pt x="144" y="832" on="1"/>
        <pt x="212" y="935" on="1"/>
      </contour>
      <contour>
        <pt x="176" y="703" on="0"/>
        <pt x="508" y="703" on="0"/>
        <pt x="638" y="550" on="0"/>
        <pt x="638" y="140" on="0"/>
        <pt x="508" y="-13" on="0"/>
        <pt x="176" y="-13" on="0"/>
        <pt x="47" y="140" on="0"/>
        <pt x="47" y="550" on="0"/>
      </contour>
      <contour>
        <pt x="420" y="580" on="0"/>
        <pt x="264" y="580" on="0"/>
        <pt x="207" y="482" on="0"/>
        <pt x="207" y="208" on="0"/>
        <pt x="264" y="110" on="0"/>
        <pt x="420" y="110" on="0"/>
        <pt x="477" y="208" on="0"/>
        <pt x="477" y="482" on="0"/>
      </contour>
    </TTGlyph>
    <TTGlyph name="Ohungarumlaut" xMin="47" yMin="-13" xMax="638" yMax="947">
      <contour>
        <pt x="576" y="881" on="1"/>
        <pt x="423" y="714" on="1"/>
        <pt x="364" y="761" on="1"/>
        <pt x="478" y="947" on="1"/>
      </contour>
      <contour>
        <pt x="386" y="881" on="1"/>
        <pt x="234" y="714" on="1"/>
        <pt x="174" y="762" on="1"/>
        <pt x="289" y="947" on="1"/>
      </contour>
      <contour>
        <pt x="176" y="703" on="0"/>
        <pt x="508" y="703" on="0"/>
        <pt x="638" y="550" on="0"/>
        <pt x="638" y="140" on="0"/>
        <pt x="508" y="-13" on="0"/>
        <pt x="176" y="-13" on="0"/>
        <pt x="47" y="140" on="0"/>
        <pt x="47" y="550" on="0"/>
      </contour>
      <contour>
        <pt x="420" y="580" on="0"/>
        <pt x="264" y="580" on="0"/>
        <pt x="207" y="482" on="0"/>
        <pt x="207" y="208" on="0"/>
        <pt x="264" y="110" on="0"/>
        <pt x="420" y="110" on="0"/>
        <pt x="477" y="208" on="0"/>
        <pt x="477" y="482" on="0"/>
      </contour>
    </TTGlyph>
    <TTGlyph name="Omacron" xMin="47" yMin="-13" xMax="638" yMax="872">
      <contour>
        <pt x="491" y="776" on="1"/>
        <pt x="192" y="776" on="1"/>
        <pt x="192" y="872" on="1"/>
        <pt x="491" y="872" on="1"/>
      </contour>
      <contour>
        <pt x="176" y="703" on="0"/>
        <pt x="508" y="703" on="0"/>
        <pt x="638" y="550" on="0"/>
        <pt x="638" y="140" on="0"/>
        <pt x="508" y="-13" on="0"/>
        <pt x="176" y="-13" on="0"/>
        <pt x="47" y="140" on="0"/>
        <pt x="47" y="550" on="0"/>
      </contour>
      <contour>
        <pt x="420" y="580" on="0"/>
        <pt x="264" y="580" on="0"/>
        <pt x="207" y="482" on="0"/>
        <pt x="207" y="208" on="0"/>
        <pt x="264" y="110" on="0"/>
        <pt x="420" y="110" on="0"/>
        <pt x="477" y="208" on="0"/>
        <pt x="477" y="482" on="0"/>
      </contour>
    </TTGlyph>
    <TTGlyph name="Omega" xMin="45" yMin="0" xMax="674" yMax="703">
      <contour>
        <pt x="45" y="123" on="1"/>
        <pt x="128" y="123" on="1"/>
        <pt x="165" y="123" on="0"/>
        <pt x="199" y="110" on="1"/>
        <pt x="123" y="169" on="0"/>
        <pt x="60" y="292" on="0"/>
        <pt x="61" y="389" on="1"/>
        <pt x="61" y="550" on="0"/>
        <pt x="200" y="703" on="0"/>
        <pt x="360" y="703" on="1"/>
        <pt x="519" y="703" on="0"/>
        <pt x="658" y="549" on="0"/>
        <pt x="658" y="386" on="1"/>
        <pt x="658" y="287" on="0"/>
        <pt x="596" y="166" on="0"/>
        <pt x="520" y="110" on="1"/>
        <pt x="559" y="123" on="0"/>
        <pt x="590" y="123" on="1"/>
        <pt x="674" y="123" on="1"/>
        <pt x="674" y="0" on="1"/>
        <pt x="397" y="0" on="1"/>
        <pt x="397" y="116" on="1"/>
        <pt x="455" y="163" on="0"/>
        <pt x="500" y="273" on="0"/>
        <pt x="500" y="367" on="1"/>
        <pt x="500" y="487" on="0"/>
        <pt x="438" y="581" on="0"/>
        <pt x="280" y="581" on="0"/>
        <pt x="219" y="487" on="0"/>
        <pt x="219" y="365" on="1"/>
        <pt x="219" y="268" on="0"/>
        <pt x="264" y="167" on="0"/>
        <pt x="322" y="116" on="1"/>
        <pt x="322" y="0" on="1"/>
        <pt x="45" y="0" on="1"/>
      </contour>
    </TTGlyph>
    <TTGlyph name="Oslash" xMin="47" yMin="-109" xMax="638" yMax="794">
      <contour>
        <pt x="597" y="739" on="1"/>
        <pt x="554" y="646" on="1"/>
        <pt x="599" y="607" on="0"/>
        <pt x="638" y="463" on="0"/>
        <pt x="638" y="345" on="1"/>
        <pt x="638" y="140" on="0"/>
        <pt x="508" y="-13" on="0"/>
        <pt x="342" y="-13" on="1"/>
        <pt x="287" y="-13" on="0"/>
        <pt x="246" y="-6" on="1"/>
        <pt x="198" y="-109" on="1"/>
        <pt x="83" y="-53" on="1"/>
        <pt x="130" y="45" on="1"/>
        <pt x="47" y="118" on="0"/>
        <pt x="47" y="345" on="1"/>
        <pt x="47" y="550" on="0"/>
        <pt x="176" y="703" on="0"/>
        <pt x="342" y="703" on="1"/>
        <pt x="398" y="703" on="0"/>
        <pt x="437" y="696" on="1"/>
        <pt x="482" y="794" on="1"/>
      </contour>
      <contour>
        <pt x="264" y="110" on="0"/>
        <pt x="420" y="110" on="0"/>
        <pt x="477" y="208" on="0"/>
        <pt x="477" y="482" on="0"/>
        <pt x="420" y="580" on="0"/>
        <pt x="264" y="580" on="0"/>
        <pt x="207" y="482" on="0"/>
        <pt x="207" y="208" on="0"/>
      </contour>
    </TTGlyph>
    <TTGlyph name="Otilde" xMin="47" yMin="-13" xMax="638" yMax="899">
      <contour>
        <pt x="231" y="757" on="1"/>
        <pt x="167" y="757" on="1"/>
        <pt x="156" y="828" on="0"/>
        <pt x="207" y="902" on="0"/>
        <pt x="249" y="899" on="1"/>
        <pt x="284" y="896" on="0"/>
        <pt x="385" y="854" on="0"/>
        <pt x="408" y="851" on="1"/>
        <pt x="432" y="847" on="0"/>
        <pt x="447" y="866" on="0"/>
        <pt x="447" y="894" on="1"/>
        <pt x="510" y="894" on="1"/>
        <pt x="521" y="826" on="0"/>
        <pt x="473" y="750" on="0"/>
        <pt x="429" y="753" on="1"/>
        <pt x="391" y="756" on="0"/>
        <pt x="286" y="799" on="0"/>
        <pt x="268" y="802" on="1"/>
        <pt x="245" y="806" on="0"/>
        <pt x="231" y="786" on="0"/>
      </contour>
      <contour>
        <pt x="176" y="703" on="0"/>
        <pt x="508" y="703" on="0"/>
        <pt x="638" y="550" on="0"/>
        <pt x="638" y="140" on="0"/>
        <pt x="508" y="-13" on="0"/>
        <pt x="176" y="-13" on="0"/>
        <pt x="47" y="140" on="0"/>
        <pt x="47" y="550" on="0"/>
      </contour>
      <contour>
        <pt x="420" y="580" on="0"/>
        <pt x="264" y="580" on="0"/>
        <pt x="207" y="482" on="0"/>
        <pt x="207" y="208" on="0"/>
        <pt x="264" y="110" on="0"/>
        <pt x="420" y="110" on="0"/>
        <pt x="477" y="208" on="0"/>
        <pt x="477" y="482" on="0"/>
      </contour>
    </TTGlyph>
    <TTGlyph name="P" xMin="70" yMin="0" xMax="584" yMax="699">
      <contour>
        <pt x="70" y="0" on="1"/>
        <pt x="70" y="690" on="1"/>
        <pt x="163" y="699" on="0"/>
        <pt x="332" y="699" on="1"/>
        <pt x="477" y="699" on="0"/>
        <pt x="584" y="605" on="0"/>
        <pt x="584" y="343" on="0"/>
        <pt x="483" y="248" on="0"/>
        <pt x="352" y="248" on="1"/>
        <pt x="286" y="248" on="0"/>
        <pt x="222" y="256" on="1"/>
        <pt x="222" y="0" on="1"/>
      </contour>
      <contour>
        <pt x="222" y="365" on="1"/>
        <pt x="329" y="365" on="1"/>
        <pt x="388" y="366" on="0"/>
        <pt x="431" y="410" on="0"/>
        <pt x="431" y="538" on="0"/>
        <pt x="388" y="582" on="0"/>
        <pt x="329" y="582" on="1"/>
        <pt x="222" y="581" on="1"/>
      </contour>
    </TTGlyph>
    <TTGlyph name="Q" xMin="47" yMin="-239" xMax="638" yMax="703">
      <contour>
        <pt x="177" y="703" on="0"/>
        <pt x="509" y="703" on="0"/>
        <pt x="638" y="550" on="0"/>
        <pt x="638" y="140" on="0"/>
        <pt x="509" y="-13" on="0"/>
        <pt x="177" y="-13" on="0"/>
        <pt x="47" y="140" on="0"/>
        <pt x="47" y="550" on="0"/>
      </contour>
      <contour>
        <pt x="421" y="580" on="0"/>
        <pt x="265" y="580" on="0"/>
        <pt x="208" y="482" on="0"/>
        <pt x="208" y="208" on="0"/>
        <pt x="265" y="110" on="0"/>
        <pt x="421" y="110" on="0"/>
        <pt x="478" y="208" on="0"/>
        <pt x="478" y="482" on="0"/>
      </contour>
      <contour>
        <pt x="257" y="-116" on="1"/>
        <pt x="293" y="-35" on="1"/>
        <pt x="413" y="-77" on="0"/>
        <pt x="593" y="-103" on="1"/>
        <pt x="550" y="-239" on="1"/>
        <pt x="400" y="-202" on="0"/>
      </contour>
    </TTGlyph>
    <TTGlyph name="R" xMin="70" yMin="0" xMax="614" yMax="699">
      <contour>
        <pt x="614" y="0" on="1"/>
        <pt x="453" y="0" on="1"/>
        <pt x="401" y="211" on="1"/>
        <pt x="391" y="244" on="0"/>
        <pt x="358" y="269" on="0"/>
        <pt x="327" y="269" on="1"/>
        <pt x="220" y="270" on="1"/>
        <pt x="220" y="0" on="1"/>
        <pt x="70" y="0" on="1"/>
        <pt x="70" y="690" on="1"/>
        <pt x="163" y="699" on="0"/>
        <pt x="333" y="699" on="1"/>
        <pt x="472" y="699" on="0"/>
        <pt x="588" y="611" on="0"/>
        <pt x="588" y="495" on="1"/>
        <pt x="588" y="419" on="0"/>
        <pt x="527" y="333" on="0"/>
        <pt x="456" y="324" on="1"/>
        <pt x="456" y="319" on="1"/>
        <pt x="535" y="301" on="0"/>
        <pt x="554" y="215" on="1"/>
      </contour>
      <contour>
        <pt x="220" y="387" on="1"/>
        <pt x="330" y="387" on="1"/>
        <pt x="390" y="387" on="0"/>
        <pt x="434" y="428" on="0"/>
        <pt x="434" y="542" on="0"/>
        <pt x="391" y="582" on="0"/>
        <pt x="330" y="582" on="1"/>
        <pt x="220" y="581" on="1"/>
      </contour>
    </TTGlyph>
    <TTGlyph name="Racute" xMin="70" yMin="0" xMax="614" yMax="935">
      <contour>
        <pt x="277" y="723" on="1"/>
        <pt x="233" y="786" on="1"/>
        <pt x="435" y="935" on="1"/>
        <pt x="502" y="832" on="1"/>
      </contour>
      <contour>
        <pt x="614" y="0" on="1"/>
        <pt x="453" y="0" on="1"/>
        <pt x="401" y="211" on="1"/>
        <pt x="391" y="244" on="0"/>
        <pt x="358" y="269" on="0"/>
        <pt x="327" y="269" on="1"/>
        <pt x="220" y="270" on="1"/>
        <pt x="220" y="0" on="1"/>
        <pt x="70" y="0" on="1"/>
        <pt x="70" y="690" on="1"/>
        <pt x="163" y="699" on="0"/>
        <pt x="333" y="699" on="1"/>
        <pt x="472" y="699" on="0"/>
        <pt x="588" y="611" on="0"/>
        <pt x="588" y="495" on="1"/>
        <pt x="588" y="419" on="0"/>
        <pt x="527" y="333" on="0"/>
        <pt x="456" y="324" on="1"/>
        <pt x="456" y="319" on="1"/>
        <pt x="535" y="301" on="0"/>
        <pt x="554" y="215" on="1"/>
      </contour>
      <contour>
        <pt x="220" y="387" on="1"/>
        <pt x="330" y="387" on="1"/>
        <pt x="390" y="387" on="0"/>
        <pt x="434" y="428" on="0"/>
        <pt x="434" y="542" on="0"/>
        <pt x="391" y="582" on="0"/>
        <pt x="330" y="582" on="1"/>
        <pt x="220" y="581" on="1"/>
      </contour>
    </TTGlyph>
    <TTGlyph name="Rcaron" xMin="70" yMin="0" xMax="614" yMax="928">
      <contour>
        <pt x="287" y="739" on="1"/>
        <pt x="135" y="870" on="1"/>
        <pt x="175" y="928" on="1"/>
        <pt x="314" y="849" on="1"/>
        <pt x="322" y="849" on="1"/>
        <pt x="460" y="928" on="1"/>
        <pt x="501" y="870" on="1"/>
        <pt x="348" y="739" on="1"/>
      </contour>
      <contour>
        <pt x="614" y="0" on="1"/>
        <pt x="453" y="0" on="1"/>
        <pt x="401" y="211" on="1"/>
        <pt x="391" y="244" on="0"/>
        <pt x="358" y="269" on="0"/>
        <pt x="327" y="269" on="1"/>
        <pt x="220" y="270" on="1"/>
        <pt x="220" y="0" on="1"/>
        <pt x="70" y="0" on="1"/>
        <pt x="70" y="690" on="1"/>
        <pt x="163" y="699" on="0"/>
        <pt x="333" y="699" on="1"/>
        <pt x="472" y="699" on="0"/>
        <pt x="588" y="611" on="0"/>
        <pt x="588" y="495" on="1"/>
        <pt x="588" y="419" on="0"/>
        <pt x="527" y="333" on="0"/>
        <pt x="456" y="324" on="1"/>
        <pt x="456" y="319" on="1"/>
        <pt x="535" y="301" on="0"/>
        <pt x="554" y="215" on="1"/>
      </contour>
      <contour>
        <pt x="220" y="387" on="1"/>
        <pt x="330" y="387" on="1"/>
        <pt x="390" y="387" on="0"/>
        <pt x="434" y="428" on="0"/>
        <pt x="434" y="542" on="0"/>
        <pt x="391" y="582" on="0"/>
        <pt x="330" y="582" on="1"/>
        <pt x="220" y="581" on="1"/>
      </contour>
    </TTGlyph>
    <TTGlyph name="Rcommaaccent" xMin="70" yMin="-292" xMax="614" yMax="699">
      <contour>
        <pt x="614" y="0" on="1"/>
        <pt x="453" y="0" on="1"/>
        <pt x="401" y="211" on="1"/>
        <pt x="391" y="244" on="0"/>
        <pt x="358" y="269" on="0"/>
        <pt x="327" y="269" on="1"/>
        <pt x="220" y="270" on="1"/>
        <pt x="220" y="0" on="1"/>
        <pt x="70" y="0" on="1"/>
        <pt x="70" y="690" on="1"/>
        <pt x="163" y="699" on="0"/>
        <pt x="333" y="699" on="1"/>
        <pt x="472" y="699" on="0"/>
        <pt x="588" y="611" on="0"/>
        <pt x="588" y="495" on="1"/>
        <pt x="588" y="419" on="0"/>
        <pt x="527" y="333" on="0"/>
        <pt x="456" y="324" on="1"/>
        <pt x="456" y="319" on="1"/>
        <pt x="535" y="301" on="0"/>
        <pt x="554" y="215" on="1"/>
      </contour>
      <contour>
        <pt x="220" y="387" on="1"/>
        <pt x="330" y="387" on="1"/>
        <pt x="390" y="387" on="0"/>
        <pt x="434" y="428" on="0"/>
        <pt x="434" y="542" on="0"/>
        <pt x="391" y="582" on="0"/>
        <pt x="330" y="582" on="1"/>
        <pt x="220" y="581" on="1"/>
      </contour>
      <contour>
        <pt x="320" y="-52" on="1"/>
        <pt x="352" y="-52" on="1"/>
        <pt x="378" y="-52" on="0"/>
        <pt x="398" y="-71" on="0"/>
        <pt x="398" y="-94" on="1"/>
        <pt x="398" y="-146" on="1"/>
        <pt x="398" y="-227" on="0"/>
        <pt x="352" y="-292" on="1"/>
        <pt x="296" y="-278" on="1"/>
        <pt x="309" y="-233" on="0"/>
        <pt x="309" y="-174" on="1"/>
        <pt x="271" y="-174" on="0"/>
        <pt x="271" y="-137" on="1"/>
        <pt x="272" y="-94" on="1"/>
        <pt x="274" y="-71" on="0"/>
        <pt x="295" y="-52" on="0"/>
      </contour>
    </TTGlyph>
    <TTGlyph name="S" xMin="43" yMin="-13" xMax="544" yMax="703">
      <contour>
        <pt x="325" y="261" on="1"/>
        <pt x="186" y="310" on="1"/>
        <pt x="109" y="338" on="0"/>
        <pt x="43" y="434" on="0"/>
        <pt x="43" y="512" on="1"/>
        <pt x="43" y="626" on="0"/>
        <pt x="154" y="703" on="0"/>
        <pt x="294" y="703" on="1"/>
        <pt x="426" y="703" on="0"/>
        <pt x="521" y="676" on="1"/>
        <pt x="511" y="572" on="1"/>
        <pt x="424" y="575" on="0"/>
        <pt x="295" y="575" on="1"/>
        <pt x="235" y="575" on="0"/>
        <pt x="195" y="554" on="0"/>
        <pt x="195" y="512" on="1"/>
        <pt x="195" y="478" on="0"/>
        <pt x="225" y="448" on="0"/>
        <pt x="267" y="434" on="1"/>
        <pt x="398" y="389" on="1"/>
        <pt x="478" y="361" on="0"/>
        <pt x="544" y="264" on="0"/>
        <pt x="544" y="186" on="1"/>
        <pt x="544" y="70" on="0"/>
        <pt x="432" y="-13" on="0"/>
        <pt x="288" y="-13" on="1"/>
        <pt x="171" y="-13" on="0"/>
        <pt x="51" y="13" on="1"/>
        <pt x="60" y="123" on="1"/>
        <pt x="273" y="118" on="0"/>
        <pt x="288" y="118" on="1"/>
        <pt x="349" y="118" on="0"/>
        <pt x="390" y="144" on="0"/>
        <pt x="390" y="185" on="1"/>
        <pt x="390" y="220" on="0"/>
        <pt x="362" y="249" on="0"/>
      </contour>
    </TTGlyph>
    <TTGlyph name="Sacute" xMin="43" yMin="-13" xMax="544" yMax="935">
      <contour>
        <pt x="477" y="832" on="1"/>
        <pt x="252" y="723" on="1"/>
        <pt x="208" y="786" on="1"/>
        <pt x="410" y="935" on="1"/>
      </contour>
      <contour>
        <pt x="325" y="261" on="1"/>
        <pt x="186" y="310" on="1"/>
        <pt x="109" y="338" on="0"/>
        <pt x="43" y="434" on="0"/>
        <pt x="43" y="512" on="1"/>
        <pt x="43" y="626" on="0"/>
        <pt x="154" y="703" on="0"/>
        <pt x="294" y="703" on="1"/>
        <pt x="426" y="703" on="0"/>
        <pt x="521" y="676" on="1"/>
        <pt x="511" y="572" on="1"/>
        <pt x="424" y="575" on="0"/>
        <pt x="295" y="575" on="1"/>
        <pt x="235" y="575" on="0"/>
        <pt x="195" y="554" on="0"/>
        <pt x="195" y="512" on="1"/>
        <pt x="195" y="478" on="0"/>
        <pt x="225" y="448" on="0"/>
        <pt x="267" y="434" on="1"/>
        <pt x="398" y="389" on="1"/>
        <pt x="478" y="361" on="0"/>
        <pt x="544" y="264" on="0"/>
        <pt x="544" y="186" on="1"/>
        <pt x="544" y="70" on="0"/>
        <pt x="432" y="-13" on="0"/>
        <pt x="288" y="-13" on="1"/>
        <pt x="171" y="-13" on="0"/>
        <pt x="51" y="13" on="1"/>
        <pt x="60" y="123" on="1"/>
        <pt x="273" y="118" on="0"/>
        <pt x="288" y="118" on="1"/>
        <pt x="349" y="118" on="0"/>
        <pt x="390" y="144" on="0"/>
        <pt x="390" y="185" on="1"/>
        <pt x="390" y="220" on="0"/>
        <pt x="362" y="249" on="0"/>
      </contour>
    </TTGlyph>
    <TTGlyph name="Scaron" xMin="43" yMin="-13" xMax="544" yMax="928">
      <contour>
        <pt x="476" y="870" on="1"/>
        <pt x="323" y="739" on="1"/>
        <pt x="262" y="739" on="1"/>
        <pt x="110" y="870" on="1"/>
        <pt x="150" y="928" on="1"/>
        <pt x="289" y="849" on="1"/>
        <pt x="297" y="849" on="1"/>
        <pt x="435" y="928" on="1"/>
      </contour>
      <contour>
        <pt x="325" y="261" on="1"/>
        <pt x="186" y="310" on="1"/>
        <pt x="109" y="338" on="0"/>
        <pt x="43" y="434" on="0"/>
        <pt x="43" y="512" on="1"/>
        <pt x="43" y="626" on="0"/>
        <pt x="154" y="703" on="0"/>
        <pt x="294" y="703" on="1"/>
        <pt x="426" y="703" on="0"/>
        <pt x="521" y="676" on="1"/>
        <pt x="511" y="572" on="1"/>
        <pt x="424" y="575" on="0"/>
        <pt x="295" y="575" on="1"/>
        <pt x="235" y="575" on="0"/>
        <pt x="195" y="554" on="0"/>
        <pt x="195" y="512" on="1"/>
        <pt x="195" y="478" on="0"/>
        <pt x="225" y="448" on="0"/>
        <pt x="267" y="434" on="1"/>
        <pt x="398" y="389" on="1"/>
        <pt x="478" y="361" on="0"/>
        <pt x="544" y="264" on="0"/>
        <pt x="544" y="186" on="1"/>
        <pt x="544" y="70" on="0"/>
        <pt x="432" y="-13" on="0"/>
        <pt x="288" y="-13" on="1"/>
        <pt x="171" y="-13" on="0"/>
        <pt x="51" y="13" on="1"/>
        <pt x="60" y="123" on="1"/>
        <pt x="273" y="118" on="0"/>
        <pt x="288" y="118" on="1"/>
        <pt x="349" y="118" on="0"/>
        <pt x="390" y="144" on="0"/>
        <pt x="390" y="185" on="1"/>
        <pt x="390" y="220" on="0"/>
        <pt x="362" y="249" on="0"/>
      </contour>
    </TTGlyph>
    <TTGlyph name="Scedilla" xMin="43" yMin="-258" xMax="544" yMax="703">
      <contour>
        <pt x="325" y="261" on="1"/>
        <pt x="186" y="310" on="1"/>
        <pt x="109" y="338" on="0"/>
        <pt x="43" y="434" on="0"/>
        <pt x="43" y="512" on="1"/>
        <pt x="43" y="626" on="0"/>
        <pt x="154" y="703" on="0"/>
        <pt x="294" y="703" on="1"/>
        <pt x="426" y="703" on="0"/>
        <pt x="521" y="676" on="1"/>
        <pt x="511" y="572" on="1"/>
        <pt x="424" y="575" on="0"/>
        <pt x="295" y="575" on="1"/>
        <pt x="235" y="575" on="0"/>
        <pt x="195" y="554" on="0"/>
        <pt x="195" y="512" on="1"/>
        <pt x="195" y="478" on="0"/>
        <pt x="225" y="448" on="0"/>
        <pt x="267" y="434" on="1"/>
        <pt x="398" y="389" on="1"/>
        <pt x="478" y="361" on="0"/>
        <pt x="544" y="264" on="0"/>
        <pt x="544" y="186" on="1"/>
        <pt x="544" y="70" on="0"/>
        <pt x="432" y="-13" on="0"/>
        <pt x="288" y="-13" on="1"/>
        <pt x="171" y="-13" on="0"/>
        <pt x="51" y="13" on="1"/>
        <pt x="60" y="123" on="1"/>
        <pt x="273" y="118" on="0"/>
        <pt x="288" y="118" on="1"/>
        <pt x="349" y="118" on="0"/>
        <pt x="390" y="144" on="0"/>
        <pt x="390" y="185" on="1"/>
        <pt x="390" y="220" on="0"/>
        <pt x="362" y="249" on="0"/>
      </contour>
      <contour>
        <pt x="222" y="-117" on="1"/>
        <pt x="236" y="-58" on="1"/>
        <pt x="319" y="-50" on="0"/>
        <pt x="382" y="-73" on="0"/>
        <pt x="381" y="-123" on="1"/>
        <pt x="378" y="-197" on="0"/>
        <pt x="265" y="-270" on="0"/>
        <pt x="181" y="-258" on="1"/>
        <pt x="200" y="-194" on="1"/>
        <pt x="282" y="-194" on="0"/>
        <pt x="286" y="-136" on="1"/>
        <pt x="287" y="-123" on="0"/>
        <pt x="264" y="-117" on="0"/>
      </contour>
    </TTGlyph>
    <TTGlyph name="Scommaaccent" xMin="43" yMin="-292" xMax="544" yMax="703">
      <contour>
        <pt x="325" y="261" on="1"/>
        <pt x="186" y="310" on="1"/>
        <pt x="109" y="338" on="0"/>
        <pt x="43" y="434" on="0"/>
        <pt x="43" y="512" on="1"/>
        <pt x="43" y="626" on="0"/>
        <pt x="154" y="703" on="0"/>
        <pt x="294" y="703" on="1"/>
        <pt x="426" y="703" on="0"/>
        <pt x="521" y="676" on="1"/>
        <pt x="511" y="572" on="1"/>
        <pt x="424" y="575" on="0"/>
        <pt x="295" y="575" on="1"/>
        <pt x="235" y="575" on="0"/>
        <pt x="195" y="554" on="0"/>
        <pt x="195" y="512" on="1"/>
        <pt x="195" y="478" on="0"/>
        <pt x="225" y="448" on="0"/>
        <pt x="267" y="434" on="1"/>
        <pt x="398" y="389" on="1"/>
        <pt x="478" y="361" on="0"/>
        <pt x="544" y="264" on="0"/>
        <pt x="544" y="186" on="1"/>
        <pt x="544" y="70" on="0"/>
        <pt x="432" y="-13" on="0"/>
        <pt x="288" y="-13" on="1"/>
        <pt x="171" y="-13" on="0"/>
        <pt x="51" y="13" on="1"/>
        <pt x="60" y="123" on="1"/>
        <pt x="273" y="118" on="0"/>
        <pt x="288" y="118" on="1"/>
        <pt x="349" y="118" on="0"/>
        <pt x="390" y="144" on="0"/>
        <pt x="390" y="185" on="1"/>
        <pt x="390" y="220" on="0"/>
        <pt x="362" y="249" on="0"/>
      </contour>
      <contour>
        <pt x="264" y="-52" on="1"/>
        <pt x="296" y="-52" on="1"/>
        <pt x="322" y="-52" on="0"/>
        <pt x="342" y="-71" on="0"/>
        <pt x="342" y="-94" on="1"/>
        <pt x="342" y="-146" on="1"/>
        <pt x="342" y="-227" on="0"/>
        <pt x="296" y="-292" on="1"/>
        <pt x="240" y="-278" on="1"/>
        <pt x="253" y="-233" on="0"/>
        <pt x="253" y="-174" on="1"/>
        <pt x="215" y="-174" on="0"/>
        <pt x="215" y="-137" on="1"/>
        <pt x="216" y="-94" on="1"/>
        <pt x="218" y="-71" on="0"/>
        <pt x="239" y="-52" on="0"/>
      </contour>
    </TTGlyph>
    <TTGlyph name="T" xMin="18" yMin="0" xMax="583" yMax="690">
      <contour>
        <pt x="583" y="566" on="1"/>
        <pt x="377" y="566" on="1"/>
        <pt x="377" y="0" on="1"/>
        <pt x="224" y="0" on="1"/>
        <pt x="224" y="566" on="1"/>
        <pt x="18" y="566" on="1"/>
        <pt x="18" y="690" on="1"/>
        <pt x="583" y="690" on="1"/>
      </contour>
    </TTGlyph>
    <TTGlyph name="Tbar" xMin="19" yMin="0" xMax="584" yMax="690">
      <contour>
        <pt x="378" y="566" on="1"/>
        <pt x="378" y="412" on="1"/>
        <pt x="505" y="412" on="1"/>
        <pt x="505" y="339" on="1"/>
        <pt x="378" y="339" on="1"/>
        <pt x="378" y="0" on="1"/>
        <pt x="225" y="0" on="1"/>
        <pt x="225" y="339" on="1"/>
        <pt x="96" y="339" on="1"/>
        <pt x="96" y="412" on="1"/>
        <pt x="225" y="412" on="1"/>
        <pt x="225" y="566" on="1"/>
        <pt x="19" y="566" on="1"/>
        <pt x="19" y="690" on="1"/>
        <pt x="584" y="690" on="1"/>
        <pt x="584" y="566" on="1"/>
      </contour>
    </TTGlyph>
    <TTGlyph name="Tcaron" xMin="18" yMin="0" xMax="583" yMax="928">
      <contour>
        <pt x="270" y="739" on="1"/>
        <pt x="118" y="870" on="1"/>
        <pt x="158" y="928" on="1"/>
        <pt x="297" y="849" on="1"/>
        <pt x="305" y="849" on="1"/>
        <pt x="443" y="928" on="1"/>
        <pt x="484" y="870" on="1"/>
        <pt x="331" y="739" on="1"/>
      </contour>
      <contour>
        <pt x="583" y="566" on="1"/>
        <pt x="377" y="566" on="1"/>
        <pt x="377" y="0" on="1"/>
        <pt x="224" y="0" on="1"/>
        <pt x="224" y="566" on="1"/>
        <pt x="18" y="566" on="1"/>
        <pt x="18" y="690" on="1"/>
        <pt x="583" y="690" on="1"/>
      </contour>
    </TTGlyph>
    <TTGlyph name="Tcedilla" xMin="18" yMin="-245" xMax="583" yMax="690">
      <contour>
        <pt x="583" y="690" on="1"/>
        <pt x="583" y="566" on="1"/>
        <pt x="377" y="566" on="1"/>
        <pt x="377" y="0" on="1"/>
        <pt x="224" y="0" on="1"/>
        <pt x="224" y="566" on="1"/>
        <pt x="18" y="566" on="1"/>
        <pt x="18" y="690" on="1"/>
      </contour>
      <contour>
        <pt x="225" y="-104" on="1"/>
        <pt x="239" y="-46" on="1"/>
        <pt x="321" y="-37" on="0"/>
        <pt x="385" y="-61" on="0"/>
        <pt x="383" y="-111" on="1"/>
        <pt x="380" y="-184" on="0"/>
        <pt x="267" y="-257" on="0"/>
        <pt x="183" y="-245" on="1"/>
        <pt x="202" y="-181" on="1"/>
        <pt x="239" y="-182" on="0"/>
        <pt x="286" y="-153" on="0"/>
        <pt x="288" y="-123" on="1"/>
        <pt x="289" y="-110" on="0"/>
        <pt x="266" y="-104" on="0"/>
      </contour>
    </TTGlyph>
    <TTGlyph name="Thorn" xMin="70" yMin="0" xMax="578" yMax="690">
      <contour>
        <pt x="223" y="690" on="1"/>
        <pt x="223" y="574" on="1"/>
        <pt x="330" y="574" on="1"/>
        <pt x="472" y="574" on="0"/>
        <pt x="578" y="479" on="0"/>
        <pt x="578" y="346" on="1"/>
        <pt x="578" y="214" on="0"/>
        <pt x="478" y="119" on="0"/>
        <pt x="349" y="119" on="1"/>
        <pt x="285" y="119" on="0"/>
        <pt x="223" y="127" on="1"/>
        <pt x="223" y="0" on="1"/>
        <pt x="70" y="0" on="1"/>
        <pt x="70" y="565" on="1"/>
        <pt x="70" y="690" on="1"/>
      </contour>
      <contour>
        <pt x="223" y="237" on="1"/>
        <pt x="326" y="237" on="1"/>
        <pt x="384" y="237" on="0"/>
        <pt x="425" y="281" on="0"/>
        <pt x="425" y="346" on="1"/>
        <pt x="425" y="412" on="0"/>
        <pt x="384" y="457" on="0"/>
        <pt x="326" y="457" on="1"/>
        <pt x="223" y="456" on="1"/>
      </contour>
    </TTGlyph>
    <TTGlyph name="U" xMin="65" yMin="-13" xMax="617" yMax="690">
      <contour>
        <pt x="617" y="690" on="1"/>
        <pt x="617" y="275" on="1"/>
        <pt x="617" y="117" on="0"/>
        <pt x="496" y="-13" on="0"/>
        <pt x="348" y="-13" on="1"/>
        <pt x="192" y="-13" on="0"/>
        <pt x="65" y="117" on="0"/>
        <pt x="65" y="275" on="1"/>
        <pt x="65" y="690" on="1"/>
        <pt x="217" y="690" on="1"/>
        <pt x="217" y="275" on="1"/>
        <pt x="217" y="180" on="0"/>
        <pt x="270" y="110" on="0"/>
        <pt x="341" y="110" on="1"/>
        <pt x="411" y="110" on="0"/>
        <pt x="464" y="180" on="0"/>
        <pt x="464" y="275" on="1"/>
        <pt x="464" y="690" on="1"/>
      </contour>
    </TTGlyph>
    <TTGlyph name="Uacute" xMin="65" yMin="-13" xMax="617" yMax="935">
      <contour>
        <pt x="526" y="832" on="1"/>
        <pt x="301" y="723" on="1"/>
        <pt x="258" y="786" on="1"/>
        <pt x="459" y="935" on="1"/>
      </contour>
      <contour>
        <pt x="617" y="690" on="1"/>
        <pt x="617" y="275" on="1"/>
        <pt x="617" y="117" on="0"/>
        <pt x="496" y="-13" on="0"/>
        <pt x="348" y="-13" on="1"/>
        <pt x="192" y="-13" on="0"/>
        <pt x="65" y="117" on="0"/>
        <pt x="65" y="275" on="1"/>
        <pt x="65" y="690" on="1"/>
        <pt x="217" y="690" on="1"/>
        <pt x="217" y="275" on="1"/>
        <pt x="217" y="180" on="0"/>
        <pt x="270" y="110" on="0"/>
        <pt x="341" y="110" on="1"/>
        <pt x="411" y="110" on="0"/>
        <pt x="464" y="180" on="0"/>
        <pt x="464" y="275" on="1"/>
        <pt x="464" y="690" on="1"/>
      </contour>
    </TTGlyph>
    <TTGlyph name="Ucircumflex" xMin="65" yMin="-13" xMax="617" yMax="909">
      <contour>
        <pt x="528" y="774" on="1"/>
        <pt x="486" y="719" on="1"/>
        <pt x="346" y="814" on="1"/>
        <pt x="338" y="814" on="1"/>
        <pt x="195" y="719" on="1"/>
        <pt x="154" y="777" on="1"/>
        <pt x="288" y="909" on="1"/>
        <pt x="395" y="909" on="1"/>
      </contour>
      <contour>
        <pt x="617" y="690" on="1"/>
        <pt x="617" y="275" on="1"/>
        <pt x="617" y="117" on="0"/>
        <pt x="496" y="-13" on="0"/>
        <pt x="348" y="-13" on="1"/>
        <pt x="192" y="-13" on="0"/>
        <pt x="65" y="117" on="0"/>
        <pt x="65" y="275" on="1"/>
        <pt x="65" y="690" on="1"/>
        <pt x="217" y="690" on="1"/>
        <pt x="217" y="275" on="1"/>
        <pt x="217" y="180" on="0"/>
        <pt x="270" y="110" on="0"/>
        <pt x="341" y="110" on="1"/>
        <pt x="411" y="110" on="0"/>
        <pt x="464" y="180" on="0"/>
        <pt x="464" y="275" on="1"/>
        <pt x="464" y="690" on="1"/>
      </contour>
    </TTGlyph>
    <TTGlyph name="Udieresis" xMin="65" yMin="-13" xMax="617" yMax="886">
      <contour>
        <pt x="225" y="886" on="1"/>
        <pt x="274" y="886" on="1"/>
        <pt x="306" y="886" on="0"/>
        <pt x="306" y="853" on="1"/>
        <pt x="306" y="796" on="1"/>
        <pt x="306" y="763" on="0"/>
        <pt x="274" y="763" on="1"/>
        <pt x="225" y="763" on="1"/>
        <pt x="193" y="763" on="0"/>
        <pt x="193" y="796" on="1"/>
        <pt x="193" y="853" on="1"/>
        <pt x="193" y="886" on="0"/>
      </contour>
      <contour>
        <pt x="407" y="886" on="1"/>
        <pt x="456" y="886" on="1"/>
        <pt x="489" y="886" on="0"/>
        <pt x="489" y="853" on="1"/>
        <pt x="489" y="796" on="1"/>
        <pt x="489" y="763" on="0"/>
        <pt x="456" y="763" on="1"/>
        <pt x="407" y="763" on="1"/>
        <pt x="374" y="763" on="0"/>
        <pt x="374" y="796" on="1"/>
        <pt x="374" y="853" on="1"/>
        <pt x="374" y="886" on="0"/>
      </contour>
      <contour>
        <pt x="617" y="690" on="1"/>
        <pt x="617" y="275" on="1"/>
        <pt x="617" y="117" on="0"/>
        <pt x="496" y="-13" on="0"/>
        <pt x="348" y="-13" on="1"/>
        <pt x="192" y="-13" on="0"/>
        <pt x="65" y="117" on="0"/>
        <pt x="65" y="275" on="1"/>
        <pt x="65" y="690" on="1"/>
        <pt x="217" y="690" on="1"/>
        <pt x="217" y="275" on="1"/>
        <pt x="217" y="180" on="0"/>
        <pt x="270" y="110" on="0"/>
        <pt x="341" y="110" on="1"/>
        <pt x="411" y="110" on="0"/>
        <pt x="464" y="180" on="0"/>
        <pt x="464" y="275" on="1"/>
        <pt x="464" y="690" on="1"/>
      </contour>
    </TTGlyph>
    <TTGlyph name="Ugrave" xMin="65" yMin="-13" xMax="617" yMax="935">
      <contour>
        <pt x="413" y="786" on="1"/>
        <pt x="370" y="723" on="1"/>
        <pt x="144" y="832" on="1"/>
        <pt x="212" y="935" on="1"/>
      </contour>
      <contour>
        <pt x="617" y="690" on="1"/>
        <pt x="617" y="275" on="1"/>
        <pt x="617" y="117" on="0"/>
        <pt x="496" y="-13" on="0"/>
        <pt x="348" y="-13" on="1"/>
        <pt x="192" y="-13" on="0"/>
        <pt x="65" y="117" on="0"/>
        <pt x="65" y="275" on="1"/>
        <pt x="65" y="690" on="1"/>
        <pt x="217" y="690" on="1"/>
        <pt x="217" y="275" on="1"/>
        <pt x="217" y="180" on="0"/>
        <pt x="270" y="110" on="0"/>
        <pt x="341" y="110" on="1"/>
        <pt x="411" y="110" on="0"/>
        <pt x="464" y="180" on="0"/>
        <pt x="464" y="275" on="1"/>
        <pt x="464" y="690" on="1"/>
      </contour>
    </TTGlyph>
    <TTGlyph name="Uhungarumlaut" xMin="65" yMin="-13" xMax="617" yMax="947">
      <contour>
        <pt x="576" y="881" on="1"/>
        <pt x="423" y="714" on="1"/>
        <pt x="364" y="761" on="1"/>
        <pt x="478" y="947" on="1"/>
      </contour>
      <contour>
        <pt x="386" y="881" on="1"/>
        <pt x="234" y="714" on="1"/>
        <pt x="174" y="762" on="1"/>
        <pt x="289" y="947" on="1"/>
      </contour>
      <contour>
        <pt x="617" y="690" on="1"/>
        <pt x="617" y="275" on="1"/>
        <pt x="617" y="117" on="0"/>
        <pt x="496" y="-13" on="0"/>
        <pt x="348" y="-13" on="1"/>
        <pt x="192" y="-13" on="0"/>
        <pt x="65" y="117" on="0"/>
        <pt x="65" y="275" on="1"/>
        <pt x="65" y="690" on="1"/>
        <pt x="217" y="690" on="1"/>
        <pt x="217" y="275" on="1"/>
        <pt x="217" y="180" on="0"/>
        <pt x="270" y="110" on="0"/>
        <pt x="341" y="110" on="1"/>
        <pt x="411" y="110" on="0"/>
        <pt x="464" y="180" on="0"/>
        <pt x="464" y="275" on="1"/>
        <pt x="464" y="690" on="1"/>
      </contour>
    </TTGlyph>
    <TTGlyph name="Umacron" xMin="65" yMin="-13" xMax="617" yMax="872">
      <contour>
        <pt x="491" y="776" on="1"/>
        <pt x="192" y="776" on="1"/>
        <pt x="192" y="872" on="1"/>
        <pt x="491" y="872" on="1"/>
      </contour>
      <contour>
        <pt x="617" y="690" on="1"/>
        <pt x="617" y="275" on="1"/>
        <pt x="617" y="117" on="0"/>
        <pt x="496" y="-13" on="0"/>
        <pt x="348" y="-13" on="1"/>
        <pt x="192" y="-13" on="0"/>
        <pt x="65" y="117" on="0"/>
        <pt x="65" y="275" on="1"/>
        <pt x="65" y="690" on="1"/>
        <pt x="217" y="690" on="1"/>
        <pt x="217" y="275" on="1"/>
        <pt x="217" y="180" on="0"/>
        <pt x="270" y="110" on="0"/>
        <pt x="341" y="110" on="1"/>
        <pt x="411" y="110" on="0"/>
        <pt x="464" y="180" on="0"/>
        <pt x="464" y="275" on="1"/>
        <pt x="464" y="690" on="1"/>
      </contour>
    </TTGlyph>
    <TTGlyph name="Uogonek" xMin="65" yMin="-209" xMax="617" yMax="690">
      <contour>
        <pt x="617" y="690" on="1"/>
        <pt x="617" y="275" on="1"/>
        <pt x="617" y="126" on="0"/>
        <pt x="510" y="-6" on="0"/>
        <pt x="382" y="-13" on="1"/>
        <pt x="342" y="-68" on="0"/>
        <pt x="324" y="-109" on="1"/>
        <pt x="310" y="-139" on="0"/>
        <pt x="349" y="-158" on="0"/>
        <pt x="387" y="-147" on="1"/>
        <pt x="399" y="-202" on="1"/>
        <pt x="293" y="-238" on="0"/>
        <pt x="204" y="-180" on="0"/>
        <pt x="225" y="-120" on="1"/>
        <pt x="243" y="-65" on="0"/>
        <pt x="317" y="-13" on="1"/>
        <pt x="179" y="-7" on="0"/>
        <pt x="65" y="124" on="0"/>
        <pt x="65" y="275" on="1"/>
        <pt x="65" y="690" on="1"/>
        <pt x="217" y="690" on="1"/>
        <pt x="217" y="275" on="1"/>
        <pt x="217" y="180" on="0"/>
        <pt x="270" y="110" on="0"/>
        <pt x="341" y="110" on="1"/>
        <pt x="411" y="110" on="0"/>
        <pt x="464" y="180" on="0"/>
        <pt x="464" y="275" on="1"/>
        <pt x="464" y="690" on="1"/>
      </contour>
    </TTGlyph>
    <TTGlyph name="Uring" xMin="65" yMin="-13" xMax="617" yMax="943">
      <contour>
        <pt x="342" y="943" on="1"/>
        <pt x="390" y="943" on="0"/>
        <pt x="460" y="876" on="0"/>
        <pt x="460" y="780" on="0"/>
        <pt x="390" y="713" on="0"/>
        <pt x="342" y="713" on="1"/>
        <pt x="292" y="713" on="0"/>
        <pt x="224" y="779" on="0"/>
        <pt x="224" y="828" on="1"/>
        <pt x="224" y="876" on="0"/>
        <pt x="293" y="943" on="0"/>
      </contour>
      <contour>
        <pt x="342" y="879" on="1"/>
        <pt x="320" y="879" on="0"/>
        <pt x="291" y="850" on="0"/>
        <pt x="291" y="828" on="1"/>
        <pt x="291" y="805" on="0"/>
        <pt x="320" y="777" on="0"/>
        <pt x="342" y="777" on="1"/>
        <pt x="363" y="777" on="0"/>
        <pt x="392" y="805" on="0"/>
        <pt x="392" y="828" on="1"/>
        <pt x="392" y="850" on="0"/>
        <pt x="363" y="879" on="0"/>
      </contour>
      <contour>
        <pt x="617" y="690" on="1"/>
        <pt x="617" y="275" on="1"/>
        <pt x="617" y="117" on="0"/>
        <pt x="496" y="-13" on="0"/>
        <pt x="348" y="-13" on="1"/>
        <pt x="192" y="-13" on="0"/>
        <pt x="65" y="117" on="0"/>
        <pt x="65" y="275" on="1"/>
        <pt x="65" y="690" on="1"/>
        <pt x="217" y="690" on="1"/>
        <pt x="217" y="275" on="1"/>
        <pt x="217" y="180" on="0"/>
        <pt x="270" y="110" on="0"/>
        <pt x="341" y="110" on="1"/>
        <pt x="411" y="110" on="0"/>
        <pt x="464" y="180" on="0"/>
        <pt x="464" y="275" on="1"/>
        <pt x="464" y="690" on="1"/>
      </contour>
    </TTGlyph>
    <TTGlyph name="V" xMin="7" yMin="0" xMax="629" yMax="690">
      <contour>
        <pt x="629" y="690" on="1"/>
        <pt x="442" y="42" on="1"/>
        <pt x="437" y="23" on="0"/>
        <pt x="408" y="0" on="0"/>
        <pt x="388" y="0" on="1"/>
        <pt x="249" y="0" on="1"/>
        <pt x="229" y="0" on="0"/>
        <pt x="200" y="23" on="0"/>
        <pt x="195" y="42" on="1"/>
        <pt x="7" y="690" on="1"/>
        <pt x="164" y="690" on="1"/>
        <pt x="289" y="192" on="1"/>
        <pt x="299" y="152" on="0"/>
        <pt x="306" y="115" on="1"/>
        <pt x="331" y="115" on="1"/>
        <pt x="334" y="134" on="0"/>
        <pt x="348" y="192" on="1"/>
        <pt x="472" y="690" on="1"/>
      </contour>
    </TTGlyph>
    <TTGlyph name="W" xMin="26" yMin="0" xMax="947" yMax="690">
      <contour>
        <pt x="947" y="690" on="1"/>
        <pt x="838" y="42" on="1"/>
        <pt x="834" y="23" on="0"/>
        <pt x="804" y="0" on="0"/>
        <pt x="783" y="0" on="1"/>
        <pt x="637" y="0" on="1"/>
        <pt x="616" y="0" on="0"/>
        <pt x="586" y="24" on="0"/>
        <pt x="583" y="43" on="1"/>
        <pt x="508" y="494" on="1"/>
        <pt x="500" y="538" on="0"/>
        <pt x="496" y="581" on="1"/>
        <pt x="477" y="581" on="1"/>
        <pt x="477" y="578" on="0"/>
        <pt x="468" y="510" on="0"/>
        <pt x="465" y="493" on="1"/>
        <pt x="391" y="43" on="1"/>
        <pt x="388" y="24" on="0"/>
        <pt x="357" y="0" on="0"/>
        <pt x="336" y="0" on="1"/>
        <pt x="190" y="0" on="1"/>
        <pt x="170" y="0" on="0"/>
        <pt x="139" y="23" on="0"/>
        <pt x="135" y="42" on="1"/>
        <pt x="26" y="690" on="1"/>
        <pt x="182" y="690" on="1"/>
        <pt x="249" y="211" on="1"/>
        <pt x="255" y="166" on="0"/>
        <pt x="258" y="111" on="1"/>
        <pt x="278" y="111" on="1"/>
        <pt x="281" y="139" on="0"/>
        <pt x="293" y="211" on="1"/>
        <pt x="367" y="643" on="1"/>
        <pt x="370" y="664" on="0"/>
        <pt x="399" y="690" on="0"/>
        <pt x="421" y="690" on="1"/>
        <pt x="553" y="690" on="1"/>
        <pt x="574" y="690" on="0"/>
        <pt x="603" y="664" on="0"/>
        <pt x="606" y="643" on="1"/>
        <pt x="680" y="210" on="1"/>
        <pt x="692" y="136" on="0"/>
        <pt x="694" y="111" on="1"/>
        <pt x="715" y="111" on="1"/>
        <pt x="719" y="168" on="0"/>
        <pt x="724" y="209" on="1"/>
        <pt x="792" y="690" on="1"/>
      </contour>
    </TTGlyph>
    <TTGlyph name="Wacute" xMin="26" yMin="0" xMax="947" yMax="934">
      <contour>
        <pt x="672" y="831" on="1"/>
        <pt x="447" y="722" on="1"/>
        <pt x="404" y="786" on="1"/>
        <pt x="605" y="934" on="1"/>
      </contour>
      <contour>
        <pt x="947" y="690" on="1"/>
        <pt x="838" y="42" on="1"/>
        <pt x="834" y="23" on="0"/>
        <pt x="804" y="0" on="0"/>
        <pt x="783" y="0" on="1"/>
        <pt x="637" y="0" on="1"/>
        <pt x="616" y="0" on="0"/>
        <pt x="586" y="24" on="0"/>
        <pt x="583" y="43" on="1"/>
        <pt x="508" y="494" on="1"/>
        <pt x="500" y="538" on="0"/>
        <pt x="496" y="581" on="1"/>
        <pt x="477" y="581" on="1"/>
        <pt x="477" y="578" on="0"/>
        <pt x="468" y="510" on="0"/>
        <pt x="465" y="493" on="1"/>
        <pt x="391" y="43" on="1"/>
        <pt x="388" y="24" on="0"/>
        <pt x="357" y="0" on="0"/>
        <pt x="336" y="0" on="1"/>
        <pt x="190" y="0" on="1"/>
        <pt x="170" y="0" on="0"/>
        <pt x="139" y="23" on="0"/>
        <pt x="135" y="42" on="1"/>
        <pt x="26" y="690" on="1"/>
        <pt x="182" y="690" on="1"/>
        <pt x="249" y="211" on="1"/>
        <pt x="255" y="166" on="0"/>
        <pt x="258" y="111" on="1"/>
        <pt x="278" y="111" on="1"/>
        <pt x="281" y="139" on="0"/>
        <pt x="293" y="211" on="1"/>
        <pt x="367" y="643" on="1"/>
        <pt x="370" y="664" on="0"/>
        <pt x="399" y="690" on="0"/>
        <pt x="421" y="690" on="1"/>
        <pt x="553" y="690" on="1"/>
        <pt x="574" y="690" on="0"/>
        <pt x="603" y="664" on="0"/>
        <pt x="606" y="643" on="1"/>
        <pt x="680" y="210" on="1"/>
        <pt x="692" y="136" on="0"/>
        <pt x="694" y="111" on="1"/>
        <pt x="715" y="111" on="1"/>
        <pt x="719" y="168" on="0"/>
        <pt x="724" y="209" on="1"/>
        <pt x="792" y="690" on="1"/>
      </contour>
    </TTGlyph>
    <TTGlyph name="Wcircumflex" xMin="26" yMin="0" xMax="947" yMax="909">
      <contour>
        <pt x="674" y="774" on="1"/>
        <pt x="632" y="719" on="1"/>
        <pt x="492" y="814" on="1"/>
        <pt x="484" y="814" on="1"/>
        <pt x="341" y="719" on="1"/>
        <pt x="300" y="777" on="1"/>
        <pt x="434" y="909" on="1"/>
        <pt x="541" y="909" on="1"/>
      </contour>
      <contour>
        <pt x="947" y="690" on="1"/>
        <pt x="838" y="42" on="1"/>
        <pt x="834" y="23" on="0"/>
        <pt x="804" y="0" on="0"/>
        <pt x="783" y="0" on="1"/>
        <pt x="637" y="0" on="1"/>
        <pt x="616" y="0" on="0"/>
        <pt x="586" y="24" on="0"/>
        <pt x="583" y="43" on="1"/>
        <pt x="508" y="494" on="1"/>
        <pt x="500" y="538" on="0"/>
        <pt x="496" y="581" on="1"/>
        <pt x="477" y="581" on="1"/>
        <pt x="477" y="578" on="0"/>
        <pt x="468" y="510" on="0"/>
        <pt x="465" y="493" on="1"/>
        <pt x="391" y="43" on="1"/>
        <pt x="388" y="24" on="0"/>
        <pt x="357" y="0" on="0"/>
        <pt x="336" y="0" on="1"/>
        <pt x="190" y="0" on="1"/>
        <pt x="170" y="0" on="0"/>
        <pt x="139" y="23" on="0"/>
        <pt x="135" y="42" on="1"/>
        <pt x="26" y="690" on="1"/>
        <pt x="182" y="690" on="1"/>
        <pt x="249" y="211" on="1"/>
        <pt x="255" y="166" on="0"/>
        <pt x="258" y="111" on="1"/>
        <pt x="278" y="111" on="1"/>
        <pt x="281" y="139" on="0"/>
        <pt x="293" y="211" on="1"/>
        <pt x="367" y="643" on="1"/>
        <pt x="370" y="664" on="0"/>
        <pt x="399" y="690" on="0"/>
        <pt x="421" y="690" on="1"/>
        <pt x="553" y="690" on="1"/>
        <pt x="574" y="690" on="0"/>
        <pt x="603" y="664" on="0"/>
        <pt x="606" y="643" on="1"/>
        <pt x="680" y="210" on="1"/>
        <pt x="692" y="136" on="0"/>
        <pt x="694" y="111" on="1"/>
        <pt x="715" y="111" on="1"/>
        <pt x="719" y="168" on="0"/>
        <pt x="724" y="209" on="1"/>
        <pt x="792" y="690" on="1"/>
      </contour>
    </TTGlyph>
    <TTGlyph name="Wdieresis" xMin="26" yMin="0" xMax="947" yMax="886">
      <contour>
        <pt x="371" y="886" on="1"/>
        <pt x="420" y="886" on="1"/>
        <pt x="452" y="886" on="0"/>
        <pt x="452" y="853" on="1"/>
        <pt x="452" y="795" on="1"/>
        <pt x="452" y="762" on="0"/>
        <pt x="420" y="762" on="1"/>
        <pt x="371" y="762" on="1"/>
        <pt x="339" y="762" on="0"/>
        <pt x="339" y="795" on="1"/>
        <pt x="339" y="853" on="1"/>
        <pt x="339" y="886" on="0"/>
      </contour>
      <contour>
        <pt x="553" y="886" on="1"/>
        <pt x="602" y="886" on="1"/>
        <pt x="635" y="886" on="0"/>
        <pt x="635" y="853" on="1"/>
        <pt x="635" y="795" on="1"/>
        <pt x="635" y="762" on="0"/>
        <pt x="602" y="762" on="1"/>
        <pt x="553" y="762" on="1"/>
        <pt x="520" y="762" on="0"/>
        <pt x="520" y="795" on="1"/>
        <pt x="520" y="853" on="1"/>
        <pt x="520" y="886" on="0"/>
      </contour>
      <contour>
        <pt x="947" y="690" on="1"/>
        <pt x="838" y="42" on="1"/>
        <pt x="834" y="23" on="0"/>
        <pt x="804" y="0" on="0"/>
        <pt x="783" y="0" on="1"/>
        <pt x="637" y="0" on="1"/>
        <pt x="616" y="0" on="0"/>
        <pt x="586" y="24" on="0"/>
        <pt x="583" y="43" on="1"/>
        <pt x="508" y="494" on="1"/>
        <pt x="500" y="538" on="0"/>
        <pt x="496" y="581" on="1"/>
        <pt x="477" y="581" on="1"/>
        <pt x="477" y="578" on="0"/>
        <pt x="468" y="510" on="0"/>
        <pt x="465" y="493" on="1"/>
        <pt x="391" y="43" on="1"/>
        <pt x="388" y="24" on="0"/>
        <pt x="357" y="0" on="0"/>
        <pt x="336" y="0" on="1"/>
        <pt x="190" y="0" on="1"/>
        <pt x="170" y="0" on="0"/>
        <pt x="139" y="23" on="0"/>
        <pt x="135" y="42" on="1"/>
        <pt x="26" y="690" on="1"/>
        <pt x="182" y="690" on="1"/>
        <pt x="249" y="211" on="1"/>
        <pt x="255" y="166" on="0"/>
        <pt x="258" y="111" on="1"/>
        <pt x="278" y="111" on="1"/>
        <pt x="281" y="139" on="0"/>
        <pt x="293" y="211" on="1"/>
        <pt x="367" y="643" on="1"/>
        <pt x="370" y="664" on="0"/>
        <pt x="399" y="690" on="0"/>
        <pt x="421" y="690" on="1"/>
        <pt x="553" y="690" on="1"/>
        <pt x="574" y="690" on="0"/>
        <pt x="603" y="664" on="0"/>
        <pt x="606" y="643" on="1"/>
        <pt x="680" y="210" on="1"/>
        <pt x="692" y="136" on="0"/>
        <pt x="694" y="111" on="1"/>
        <pt x="715" y="111" on="1"/>
        <pt x="719" y="168" on="0"/>
        <pt x="724" y="209" on="1"/>
        <pt x="792" y="690" on="1"/>
      </contour>
    </TTGlyph>
    <TTGlyph name="Wgrave" xMin="26" yMin="0" xMax="947" yMax="934">
      <contour>
        <pt x="559" y="786" on="1"/>
        <pt x="515" y="722" on="1"/>
        <pt x="290" y="831" on="1"/>
        <pt x="358" y="934" on="1"/>
      </contour>
      <contour>
        <pt x="947" y="690" on="1"/>
        <pt x="838" y="42" on="1"/>
        <pt x="834" y="23" on="0"/>
        <pt x="804" y="0" on="0"/>
        <pt x="783" y="0" on="1"/>
        <pt x="637" y="0" on="1"/>
        <pt x="616" y="0" on="0"/>
        <pt x="586" y="24" on="0"/>
        <pt x="583" y="43" on="1"/>
        <pt x="508" y="494" on="1"/>
        <pt x="500" y="538" on="0"/>
        <pt x="496" y="581" on="1"/>
        <pt x="477" y="581" on="1"/>
        <pt x="477" y="578" on="0"/>
        <pt x="468" y="510" on="0"/>
        <pt x="465" y="493" on="1"/>
        <pt x="391" y="43" on="1"/>
        <pt x="388" y="24" on="0"/>
        <pt x="357" y="0" on="0"/>
        <pt x="336" y="0" on="1"/>
        <pt x="190" y="0" on="1"/>
        <pt x="170" y="0" on="0"/>
        <pt x="139" y="23" on="0"/>
        <pt x="135" y="42" on="1"/>
        <pt x="26" y="690" on="1"/>
        <pt x="182" y="690" on="1"/>
        <pt x="249" y="211" on="1"/>
        <pt x="255" y="166" on="0"/>
        <pt x="258" y="111" on="1"/>
        <pt x="278" y="111" on="1"/>
        <pt x="281" y="139" on="0"/>
        <pt x="293" y="211" on="1"/>
        <pt x="367" y="643" on="1"/>
        <pt x="370" y="664" on="0"/>
        <pt x="399" y="690" on="0"/>
        <pt x="421" y="690" on="1"/>
        <pt x="553" y="690" on="1"/>
        <pt x="574" y="690" on="0"/>
        <pt x="603" y="664" on="0"/>
        <pt x="606" y="643" on="1"/>
        <pt x="680" y="210" on="1"/>
        <pt x="692" y="136" on="0"/>
        <pt x="694" y="111" on="1"/>
        <pt x="715" y="111" on="1"/>
        <pt x="719" y="168" on="0"/>
        <pt x="724" y="209" on="1"/>
        <pt x="792" y="690" on="1"/>
      </contour>
    </TTGlyph>
    <TTGlyph name="X" xMin="10" yMin="0" xMax="631" yMax="690">
      <contour>
        <pt x="326" y="307" on="1"/>
        <pt x="314" y="307" on="1"/>
        <pt x="167" y="0" on="1"/>
        <pt x="10" y="0" on="1"/>
        <pt x="190" y="354" on="1"/>
        <pt x="24" y="690" on="1"/>
        <pt x="180" y="690" on="1"/>
        <pt x="313" y="405" on="1"/>
        <pt x="328" y="405" on="1"/>
        <pt x="461" y="690" on="1"/>
        <pt x="617" y="690" on="1"/>
        <pt x="451" y="354" on="1"/>
        <pt x="631" y="0" on="1"/>
        <pt x="473" y="0" on="1"/>
      </contour>
    </TTGlyph>
    <TTGlyph name="Y" xMin="0" yMin="0" xMax="607" yMax="690">
      <contour>
        <pt x="381" y="228" on="1"/>
        <pt x="381" y="0" on="1"/>
        <pt x="228" y="0" on="1"/>
        <pt x="228" y="228" on="1"/>
        <pt x="0" y="690" on="1"/>
        <pt x="159" y="690" on="1"/>
        <pt x="274" y="437" on="1"/>
        <pt x="284" y="415" on="0"/>
        <pt x="300" y="350" on="1"/>
        <pt x="310" y="350" on="1"/>
        <pt x="322" y="404" on="0"/>
        <pt x="335" y="437" on="1"/>
        <pt x="450" y="690" on="1"/>
        <pt x="607" y="690" on="1"/>
      </contour>
    </TTGlyph>
    <TTGlyph name="Yacute" xMin="0" yMin="0" xMax="607" yMax="935">
      <contour>
        <pt x="264" y="723" on="1"/>
        <pt x="220" y="786" on="1"/>
        <pt x="421" y="935" on="1"/>
        <pt x="489" y="832" on="1"/>
      </contour>
      <contour>
        <pt x="381" y="228" on="1"/>
        <pt x="381" y="0" on="1"/>
        <pt x="228" y="0" on="1"/>
        <pt x="228" y="228" on="1"/>
        <pt x="0" y="690" on="1"/>
        <pt x="159" y="690" on="1"/>
        <pt x="274" y="437" on="1"/>
        <pt x="284" y="415" on="0"/>
        <pt x="300" y="350" on="1"/>
        <pt x="310" y="350" on="1"/>
        <pt x="322" y="404" on="0"/>
        <pt x="335" y="437" on="1"/>
        <pt x="450" y="690" on="1"/>
        <pt x="607" y="690" on="1"/>
      </contour>
    </TTGlyph>
    <TTGlyph name="Ycircumflex" xMin="0" yMin="0" xMax="607" yMax="909">
      <contour>
        <pt x="158" y="719" on="1"/>
        <pt x="117" y="777" on="1"/>
        <pt x="251" y="909" on="1"/>
        <pt x="358" y="909" on="1"/>
        <pt x="490" y="774" on="1"/>
        <pt x="449" y="719" on="1"/>
        <pt x="308" y="814" on="1"/>
        <pt x="300" y="814" on="1"/>
      </contour>
      <contour>
        <pt x="381" y="228" on="1"/>
        <pt x="381" y="0" on="1"/>
        <pt x="228" y="0" on="1"/>
        <pt x="228" y="228" on="1"/>
        <pt x="0" y="690" on="1"/>
        <pt x="159" y="690" on="1"/>
        <pt x="274" y="437" on="1"/>
        <pt x="284" y="415" on="0"/>
        <pt x="300" y="350" on="1"/>
        <pt x="310" y="350" on="1"/>
        <pt x="322" y="404" on="0"/>
        <pt x="335" y="437" on="1"/>
        <pt x="450" y="690" on="1"/>
        <pt x="607" y="690" on="1"/>
      </contour>
    </TTGlyph>
    <TTGlyph name="Ydieresis" xMin="0" yMin="0" xMax="607" yMax="886">
      <contour>
        <pt x="236" y="763" on="1"/>
        <pt x="187" y="763" on="1"/>
        <pt x="155" y="763" on="0"/>
        <pt x="155" y="796" on="1"/>
        <pt x="155" y="853" on="1"/>
        <pt x="155" y="886" on="0"/>
        <pt x="187" y="886" on="1"/>
        <pt x="236" y="886" on="1"/>
        <pt x="269" y="886" on="0"/>
        <pt x="269" y="853" on="1"/>
        <pt x="269" y="796" on="1"/>
        <pt x="269" y="763" on="0"/>
      </contour>
      <contour>
        <pt x="418" y="763" on="1"/>
        <pt x="370" y="763" on="1"/>
        <pt x="337" y="763" on="0"/>
        <pt x="337" y="796" on="1"/>
        <pt x="337" y="853" on="1"/>
        <pt x="337" y="886" on="0"/>
        <pt x="370" y="886" on="1"/>
        <pt x="418" y="886" on="1"/>
        <pt x="451" y="886" on="0"/>
        <pt x="451" y="853" on="1"/>
        <pt x="451" y="796" on="1"/>
        <pt x="451" y="763" on="0"/>
      </contour>
      <contour>
        <pt x="381" y="228" on="1"/>
        <pt x="381" y="0" on="1"/>
        <pt x="228" y="0" on="1"/>
        <pt x="228" y="228" on="1"/>
        <pt x="0" y="690" on="1"/>
        <pt x="159" y="690" on="1"/>
        <pt x="274" y="437" on="1"/>
        <pt x="284" y="415" on="0"/>
        <pt x="300" y="350" on="1"/>
        <pt x="310" y="350" on="1"/>
        <pt x="322" y="404" on="0"/>
        <pt x="335" y="437" on="1"/>
        <pt x="450" y="690" on="1"/>
        <pt x="607" y="690" on="1"/>
      </contour>
    </TTGlyph>
    <TTGlyph name="Ygrave" xMin="0" yMin="0" xMax="607" yMax="935">
      <contour>
        <pt x="332" y="723" on="1"/>
        <pt x="107" y="832" on="1"/>
        <pt x="174" y="935" on="1"/>
        <pt x="376" y="786" on="1"/>
      </contour>
      <contour>
        <pt x="381" y="228" on="1"/>
        <pt x="381" y="0" on="1"/>
        <pt x="228" y="0" on="1"/>
        <pt x="228" y="228" on="1"/>
        <pt x="0" y="690" on="1"/>
        <pt x="159" y="690" on="1"/>
        <pt x="274" y="437" on="1"/>
        <pt x="284" y="415" on="0"/>
        <pt x="300" y="350" on="1"/>
        <pt x="310" y="350" on="1"/>
        <pt x="322" y="404" on="0"/>
        <pt x="335" y="437" on="1"/>
        <pt x="450" y="690" on="1"/>
        <pt x="607" y="690" on="1"/>
      </contour>
    </TTGlyph>
    <TTGlyph name="Z" xMin="40" yMin="0" xMax="544" yMax="690">
      <contour>
        <pt x="544" y="117" on="1"/>
        <pt x="544" y="0" on="1"/>
        <pt x="40" y="0" on="1"/>
        <pt x="40" y="117" on="1"/>
        <pt x="368" y="573" on="1"/>
        <pt x="48" y="573" on="1"/>
        <pt x="48" y="690" on="1"/>
        <pt x="536" y="690" on="1"/>
        <pt x="536" y="573" on="1"/>
        <pt x="208" y="117" on="1"/>
      </contour>
    </TTGlyph>
    <TTGlyph name="Zacute" xMin="40" yMin="0" xMax="544" yMax="935">
      <contour>
        <pt x="256" y="723" on="1"/>
        <pt x="212" y="786" on="1"/>
        <pt x="414" y="935" on="1"/>
        <pt x="481" y="832" on="1"/>
      </contour>
      <contour>
        <pt x="544" y="117" on="1"/>
        <pt x="544" y="0" on="1"/>
        <pt x="40" y="0" on="1"/>
        <pt x="40" y="117" on="1"/>
        <pt x="368" y="573" on="1"/>
        <pt x="48" y="573" on="1"/>
        <pt x="48" y="690" on="1"/>
        <pt x="536" y="690" on="1"/>
        <pt x="536" y="573" on="1"/>
        <pt x="208" y="117" on="1"/>
      </contour>
    </TTGlyph>
    <TTGlyph name="Zcaron" xMin="40" yMin="0" xMax="544" yMax="928">
      <contour>
        <pt x="266" y="739" on="1"/>
        <pt x="114" y="870" on="1"/>
        <pt x="155" y="928" on="1"/>
        <pt x="293" y="849" on="1"/>
        <pt x="301" y="849" on="1"/>
        <pt x="439" y="928" on="1"/>
        <pt x="480" y="870" on="1"/>
        <pt x="327" y="739" on="1"/>
      </contour>
      <contour>
        <pt x="544" y="117" on="1"/>
        <pt x="544" y="0" on="1"/>
        <pt x="40" y="0" on="1"/>
        <pt x="40" y="117" on="1"/>
        <pt x="368" y="573" on="1"/>
        <pt x="48" y="573" on="1"/>
        <pt x="48" y="690" on="1"/>
        <pt x="536" y="690" on="1"/>
        <pt x="536" y="573" on="1"/>
        <pt x="208" y="117" on="1"/>
      </contour>
    </TTGlyph>
    <TTGlyph name="Zdotaccent" xMin="40" yMin="0" xMax="544" yMax="887">
      <contour>
        <pt x="319" y="753" on="1"/>
        <pt x="274" y="753" on="1"/>
        <pt x="232" y="753" on="0"/>
        <pt x="232" y="794" on="1"/>
        <pt x="232" y="846" on="1"/>
        <pt x="232" y="887" on="0"/>
        <pt x="274" y="887" on="1"/>
        <pt x="319" y="887" on="1"/>
        <pt x="361" y="887" on="0"/>
        <pt x="361" y="846" on="1"/>
        <pt x="361" y="794" on="1"/>
        <pt x="361" y="753" on="0"/>
      </contour>
      <contour>
        <pt x="544" y="117" on="1"/>
        <pt x="544" y="0" on="1"/>
        <pt x="40" y="0" on="1"/>
        <pt x="40" y="117" on="1"/>
        <pt x="368" y="573" on="1"/>
        <pt x="48" y="573" on="1"/>
        <pt x="48" y="690" on="1"/>
        <pt x="536" y="690" on="1"/>
        <pt x="536" y="573" on="1"/>
        <pt x="208" y="117" on="1"/>
      </contour>
    </TTGlyph>
    <TTGlyph name="a" xMin="36" yMin="-12" xMax="511" yMax="507">
      <contour>
        <pt x="74" y="383" on="1"/>
        <pt x="60" y="483" on="1"/>
        <pt x="193" y="507" on="0"/>
        <pt x="317" y="507" on="1"/>
        <pt x="417" y="507" on="0"/>
        <pt x="511" y="426" on="0"/>
        <pt x="511" y="326" on="1"/>
        <pt x="511" y="0" on="1"/>
        <pt x="394" y="0" on="1"/>
        <pt x="379" y="75" on="1"/>
        <pt x="305" y="-12" on="0"/>
        <pt x="197" y="-12" on="1"/>
        <pt x="126" y="-12" on="0"/>
        <pt x="36" y="63" on="0"/>
        <pt x="36" y="130" on="1"/>
        <pt x="36" y="180" on="1"/>
        <pt x="36" y="239" on="0"/>
        <pt x="116" y="305" on="0"/>
        <pt x="187" y="305" on="1"/>
        <pt x="363" y="305" on="1"/>
        <pt x="363" y="327" on="1"/>
        <pt x="362" y="365" on="0"/>
        <pt x="329" y="391" on="0"/>
        <pt x="282" y="391" on="1"/>
        <pt x="200" y="391" on="0"/>
      </contour>
      <contour>
        <pt x="182" y="169" on="1"/>
        <pt x="182" y="150" on="1"/>
        <pt x="182" y="99" on="0"/>
        <pt x="240" y="99" on="1"/>
        <pt x="300" y="99" on="0"/>
        <pt x="363" y="147" on="1"/>
        <pt x="363" y="216" on="1"/>
        <pt x="230" y="216" on="1"/>
        <pt x="182" y="215" on="0"/>
      </contour>
    </TTGlyph>
    <TTGlyph name="aacute" xMin="36" yMin="-12" xMax="511" yMax="752">
      <contour>
        <pt x="243" y="540" on="1"/>
        <pt x="199" y="604" on="1"/>
        <pt x="400" y="752" on="1"/>
        <pt x="468" y="650" on="1"/>
      </contour>
      <contour>
        <pt x="74" y="383" on="1"/>
        <pt x="60" y="483" on="1"/>
        <pt x="193" y="507" on="0"/>
        <pt x="317" y="507" on="1"/>
        <pt x="417" y="507" on="0"/>
        <pt x="511" y="426" on="0"/>
        <pt x="511" y="326" on="1"/>
        <pt x="511" y="0" on="1"/>
        <pt x="394" y="0" on="1"/>
        <pt x="379" y="75" on="1"/>
        <pt x="305" y="-12" on="0"/>
        <pt x="197" y="-12" on="1"/>
        <pt x="126" y="-12" on="0"/>
        <pt x="36" y="63" on="0"/>
        <pt x="36" y="130" on="1"/>
        <pt x="36" y="180" on="1"/>
        <pt x="36" y="239" on="0"/>
        <pt x="116" y="305" on="0"/>
        <pt x="187" y="305" on="1"/>
        <pt x="363" y="305" on="1"/>
        <pt x="363" y="327" on="1"/>
        <pt x="362" y="365" on="0"/>
        <pt x="329" y="391" on="0"/>
        <pt x="282" y="391" on="1"/>
        <pt x="200" y="391" on="0"/>
      </contour>
      <contour>
        <pt x="182" y="169" on="1"/>
        <pt x="182" y="150" on="1"/>
        <pt x="182" y="99" on="0"/>
        <pt x="240" y="99" on="1"/>
        <pt x="300" y="99" on="0"/>
        <pt x="363" y="147" on="1"/>
        <pt x="363" y="216" on="1"/>
        <pt x="230" y="216" on="1"/>
        <pt x="182" y="215" on="0"/>
      </contour>
    </TTGlyph>
    <TTGlyph name="abreve" xMin="36" yMin="-12" xMax="511" yMax="719">
      <contour>
        <pt x="376" y="719" on="1"/>
        <pt x="446" y="709" on="1"/>
        <pt x="454" y="645" on="0"/>
        <pt x="363" y="558" on="0"/>
        <pt x="283" y="558" on="1"/>
        <pt x="202" y="558" on="0"/>
        <pt x="110" y="645" on="0"/>
        <pt x="118" y="709" on="1"/>
        <pt x="188" y="719" on="1"/>
        <pt x="188" y="654" on="0"/>
        <pt x="283" y="654" on="1"/>
        <pt x="376" y="654" on="0"/>
      </contour>
      <contour>
        <pt x="74" y="383" on="1"/>
        <pt x="60" y="483" on="1"/>
        <pt x="193" y="507" on="0"/>
        <pt x="317" y="507" on="1"/>
        <pt x="417" y="507" on="0"/>
        <pt x="511" y="426" on="0"/>
        <pt x="511" y="326" on="1"/>
        <pt x="511" y="0" on="1"/>
        <pt x="394" y="0" on="1"/>
        <pt x="379" y="75" on="1"/>
        <pt x="305" y="-12" on="0"/>
        <pt x="197" y="-12" on="1"/>
        <pt x="126" y="-12" on="0"/>
        <pt x="36" y="63" on="0"/>
        <pt x="36" y="130" on="1"/>
        <pt x="36" y="180" on="1"/>
        <pt x="36" y="239" on="0"/>
        <pt x="116" y="305" on="0"/>
        <pt x="187" y="305" on="1"/>
        <pt x="363" y="305" on="1"/>
        <pt x="363" y="327" on="1"/>
        <pt x="362" y="365" on="0"/>
        <pt x="329" y="391" on="0"/>
        <pt x="282" y="391" on="1"/>
        <pt x="200" y="391" on="0"/>
      </contour>
      <contour>
        <pt x="182" y="169" on="1"/>
        <pt x="182" y="150" on="1"/>
        <pt x="182" y="99" on="0"/>
        <pt x="240" y="99" on="1"/>
        <pt x="300" y="99" on="0"/>
        <pt x="363" y="147" on="1"/>
        <pt x="363" y="216" on="1"/>
        <pt x="230" y="216" on="1"/>
        <pt x="182" y="215" on="0"/>
      </contour>
    </TTGlyph>
    <TTGlyph name="acircumflex" xMin="36" yMin="-12" xMax="511" yMax="727">
      <contour>
        <pt x="137" y="537" on="1"/>
        <pt x="96" y="595" on="1"/>
        <pt x="230" y="727" on="1"/>
        <pt x="337" y="727" on="1"/>
        <pt x="469" y="592" on="1"/>
        <pt x="428" y="537" on="1"/>
        <pt x="287" y="632" on="1"/>
        <pt x="279" y="632" on="1"/>
      </contour>
      <contour>
        <pt x="74" y="383" on="1"/>
        <pt x="60" y="483" on="1"/>
        <pt x="193" y="507" on="0"/>
        <pt x="317" y="507" on="1"/>
        <pt x="417" y="507" on="0"/>
        <pt x="511" y="426" on="0"/>
        <pt x="511" y="326" on="1"/>
        <pt x="511" y="0" on="1"/>
        <pt x="394" y="0" on="1"/>
        <pt x="379" y="75" on="1"/>
        <pt x="305" y="-12" on="0"/>
        <pt x="197" y="-12" on="1"/>
        <pt x="126" y="-12" on="0"/>
        <pt x="36" y="63" on="0"/>
        <pt x="36" y="130" on="1"/>
        <pt x="36" y="180" on="1"/>
        <pt x="36" y="239" on="0"/>
        <pt x="116" y="305" on="0"/>
        <pt x="187" y="305" on="1"/>
        <pt x="363" y="305" on="1"/>
        <pt x="363" y="327" on="1"/>
        <pt x="362" y="365" on="0"/>
        <pt x="329" y="391" on="0"/>
        <pt x="282" y="391" on="1"/>
        <pt x="200" y="391" on="0"/>
      </contour>
      <contour>
        <pt x="182" y="169" on="1"/>
        <pt x="182" y="150" on="1"/>
        <pt x="182" y="99" on="0"/>
        <pt x="240" y="99" on="1"/>
        <pt x="300" y="99" on="0"/>
        <pt x="363" y="147" on="1"/>
        <pt x="363" y="216" on="1"/>
        <pt x="230" y="216" on="1"/>
        <pt x="182" y="215" on="0"/>
      </contour>
    </TTGlyph>
    <TTGlyph name="acute" xMin="48" yMin="524" xMax="317" yMax="736">
      <contour>
        <pt x="317" y="634" on="1"/>
        <pt x="92" y="524" on="1"/>
        <pt x="48" y="588" on="1"/>
        <pt x="249" y="736" on="1"/>
      </contour>
    </TTGlyph>
    <TTGlyph name="adieresis" xMin="36" yMin="-12" xMax="511" yMax="704">
      <contour>
        <pt x="215" y="580" on="1"/>
        <pt x="167" y="580" on="1"/>
        <pt x="134" y="580" on="0"/>
        <pt x="134" y="613" on="1"/>
        <pt x="134" y="671" on="1"/>
        <pt x="134" y="704" on="0"/>
        <pt x="167" y="704" on="1"/>
        <pt x="215" y="704" on="1"/>
        <pt x="248" y="704" on="0"/>
        <pt x="248" y="671" on="1"/>
        <pt x="248" y="613" on="1"/>
        <pt x="248" y="580" on="0"/>
      </contour>
      <contour>
        <pt x="397" y="580" on="1"/>
        <pt x="349" y="580" on="1"/>
        <pt x="316" y="580" on="0"/>
        <pt x="316" y="613" on="1"/>
        <pt x="316" y="671" on="1"/>
        <pt x="316" y="704" on="0"/>
        <pt x="349" y="704" on="1"/>
        <pt x="397" y="704" on="1"/>
        <pt x="430" y="704" on="0"/>
        <pt x="430" y="671" on="1"/>
        <pt x="430" y="613" on="1"/>
        <pt x="430" y="580" on="0"/>
      </contour>
      <contour>
        <pt x="74" y="383" on="1"/>
        <pt x="60" y="483" on="1"/>
        <pt x="193" y="507" on="0"/>
        <pt x="317" y="507" on="1"/>
        <pt x="417" y="507" on="0"/>
        <pt x="511" y="426" on="0"/>
        <pt x="511" y="326" on="1"/>
        <pt x="511" y="0" on="1"/>
        <pt x="394" y="0" on="1"/>
        <pt x="379" y="75" on="1"/>
        <pt x="305" y="-12" on="0"/>
        <pt x="197" y="-12" on="1"/>
        <pt x="126" y="-12" on="0"/>
        <pt x="36" y="63" on="0"/>
        <pt x="36" y="130" on="1"/>
        <pt x="36" y="180" on="1"/>
        <pt x="36" y="239" on="0"/>
        <pt x="116" y="305" on="0"/>
        <pt x="187" y="305" on="1"/>
        <pt x="363" y="305" on="1"/>
        <pt x="363" y="327" on="1"/>
        <pt x="362" y="365" on="0"/>
        <pt x="329" y="391" on="0"/>
        <pt x="282" y="391" on="1"/>
        <pt x="200" y="391" on="0"/>
      </contour>
      <contour>
        <pt x="182" y="169" on="1"/>
        <pt x="182" y="150" on="1"/>
        <pt x="182" y="99" on="0"/>
        <pt x="240" y="99" on="1"/>
        <pt x="300" y="99" on="0"/>
        <pt x="363" y="147" on="1"/>
        <pt x="363" y="216" on="1"/>
        <pt x="230" y="216" on="1"/>
        <pt x="182" y="215" on="0"/>
      </contour>
    </TTGlyph>
    <TTGlyph name="ae" xMin="36" yMin="-12" xMax="839" yMax="507">
      <contour>
        <pt x="690" y="197" on="1"/>
        <pt x="512" y="197" on="1"/>
        <pt x="519" y="143" on="0"/>
        <pt x="571" y="106" on="0"/>
        <pt x="631" y="106" on="1"/>
        <pt x="708" y="106" on="0"/>
        <pt x="813" y="117" on="1"/>
        <pt x="827" y="25" on="1"/>
        <pt x="750" y="-12" on="0"/>
        <pt x="613" y="-12" on="1"/>
        <pt x="444" y="-12" on="0"/>
        <pt x="390" y="85" on="1"/>
        <pt x="314" y="-12" on="0"/>
        <pt x="195" y="-12" on="1"/>
        <pt x="125" y="-12" on="0"/>
        <pt x="36" y="63" on="0"/>
        <pt x="36" y="130" on="1"/>
        <pt x="36" y="180" on="1"/>
        <pt x="36" y="238" on="0"/>
        <pt x="116" y="304" on="0"/>
        <pt x="186" y="304" on="1"/>
        <pt x="359" y="304" on="1"/>
        <pt x="359" y="327" on="1"/>
        <pt x="359" y="364" on="0"/>
        <pt x="326" y="391" on="0"/>
        <pt x="280" y="391" on="1"/>
        <pt x="199" y="391" on="0"/>
        <pt x="73" y="383" on="1"/>
        <pt x="60" y="483" on="1"/>
        <pt x="191" y="507" on="0"/>
        <pt x="314" y="507" on="1"/>
        <pt x="404" y="507" on="0"/>
        <pt x="450" y="475" on="1"/>
        <pt x="505" y="507" on="0"/>
        <pt x="608" y="507" on="1"/>
        <pt x="730" y="507" on="0"/>
        <pt x="839" y="422" on="0"/>
        <pt x="839" y="335" on="1"/>
        <pt x="840" y="266" on="0"/>
        <pt x="769" y="197" on="0"/>
      </contour>
      <contour>
        <pt x="510" y="286" on="1"/>
        <pt x="649" y="286" on="1"/>
        <pt x="676" y="286" on="0"/>
        <pt x="695" y="312" on="0"/>
        <pt x="695" y="337" on="1"/>
        <pt x="695" y="372" on="0"/>
        <pt x="659" y="399" on="0"/>
        <pt x="613" y="399" on="1"/>
        <pt x="555" y="399" on="0"/>
        <pt x="512" y="354" on="0"/>
      </contour>
      <contour>
        <pt x="182" y="169" on="1"/>
        <pt x="182" y="150" on="1"/>
        <pt x="182" y="99" on="0"/>
        <pt x="238" y="99" on="1"/>
        <pt x="300" y="99" on="0"/>
        <pt x="367" y="152" on="1"/>
        <pt x="360" y="183" on="0"/>
        <pt x="359" y="216" on="1"/>
        <pt x="229" y="216" on="1"/>
        <pt x="182" y="215" on="0"/>
      </contour>
    </TTGlyph>
    <TTGlyph name="agrave" xMin="36" yMin="-12" xMax="511" yMax="752">
      <contour>
        <pt x="311" y="540" on="1"/>
        <pt x="86" y="650" on="1"/>
        <pt x="153" y="752" on="1"/>
        <pt x="355" y="604" on="1"/>
      </contour>
      <contour>
        <pt x="74" y="383" on="1"/>
        <pt x="60" y="483" on="1"/>
        <pt x="193" y="507" on="0"/>
        <pt x="317" y="507" on="1"/>
        <pt x="417" y="507" on="0"/>
        <pt x="511" y="426" on="0"/>
        <pt x="511" y="326" on="1"/>
        <pt x="511" y="0" on="1"/>
        <pt x="394" y="0" on="1"/>
        <pt x="379" y="75" on="1"/>
        <pt x="305" y="-12" on="0"/>
        <pt x="197" y="-12" on="1"/>
        <pt x="126" y="-12" on="0"/>
        <pt x="36" y="63" on="0"/>
        <pt x="36" y="130" on="1"/>
        <pt x="36" y="180" on="1"/>
        <pt x="36" y="239" on="0"/>
        <pt x="116" y="305" on="0"/>
        <pt x="187" y="305" on="1"/>
        <pt x="363" y="305" on="1"/>
        <pt x="363" y="327" on="1"/>
        <pt x="362" y="365" on="0"/>
        <pt x="329" y="391" on="0"/>
        <pt x="282" y="391" on="1"/>
        <pt x="200" y="391" on="0"/>
      </contour>
      <contour>
        <pt x="182" y="169" on="1"/>
        <pt x="182" y="150" on="1"/>
        <pt x="182" y="99" on="0"/>
        <pt x="240" y="99" on="1"/>
        <pt x="300" y="99" on="0"/>
        <pt x="363" y="147" on="1"/>
        <pt x="363" y="216" on="1"/>
        <pt x="230" y="216" on="1"/>
        <pt x="182" y="215" on="0"/>
      </contour>
    </TTGlyph>
    <TTGlyph name="amacron" xMin="36" yMin="-12" xMax="511" yMax="689">
      <contour>
        <pt x="433" y="594" on="1"/>
        <pt x="134" y="594" on="1"/>
        <pt x="134" y="689" on="1"/>
        <pt x="433" y="689" on="1"/>
      </contour>
      <contour>
        <pt x="74" y="383" on="1"/>
        <pt x="60" y="483" on="1"/>
        <pt x="193" y="507" on="0"/>
        <pt x="317" y="507" on="1"/>
        <pt x="417" y="507" on="0"/>
        <pt x="511" y="426" on="0"/>
        <pt x="511" y="326" on="1"/>
        <pt x="511" y="0" on="1"/>
        <pt x="394" y="0" on="1"/>
        <pt x="379" y="75" on="1"/>
        <pt x="305" y="-12" on="0"/>
        <pt x="197" y="-12" on="1"/>
        <pt x="126" y="-12" on="0"/>
        <pt x="36" y="63" on="0"/>
        <pt x="36" y="130" on="1"/>
        <pt x="36" y="180" on="1"/>
        <pt x="36" y="239" on="0"/>
        <pt x="116" y="305" on="0"/>
        <pt x="187" y="305" on="1"/>
        <pt x="363" y="305" on="1"/>
        <pt x="363" y="327" on="1"/>
        <pt x="362" y="365" on="0"/>
        <pt x="329" y="391" on="0"/>
        <pt x="282" y="391" on="1"/>
        <pt x="200" y="391" on="0"/>
      </contour>
      <contour>
        <pt x="182" y="169" on="1"/>
        <pt x="182" y="150" on="1"/>
        <pt x="182" y="99" on="0"/>
        <pt x="240" y="99" on="1"/>
        <pt x="300" y="99" on="0"/>
        <pt x="363" y="147" on="1"/>
        <pt x="363" y="216" on="1"/>
        <pt x="230" y="216" on="1"/>
        <pt x="182" y="215" on="0"/>
      </contour>
    </TTGlyph>
    <TTGlyph name="ampersand" xMin="51" yMin="-12" xMax="731" yMax="702">
      <contour>
        <pt x="715" y="108" on="1"/>
        <pt x="731" y="8" on="1"/>
        <pt x="679" y="-12" on="0"/>
        <pt x="604" y="-12" on="1"/>
        <pt x="505" y="-12" on="0"/>
        <pt x="476" y="61" on="1"/>
        <pt x="435" y="22" on="0"/>
        <pt x="336" y="-12" on="0"/>
        <pt x="260" y="-12" on="1"/>
        <pt x="147" y="-12" on="0"/>
        <pt x="51" y="72" on="0"/>
        <pt x="51" y="175" on="1"/>
        <pt x="51" y="258" on="0"/>
        <pt x="114" y="350" on="0"/>
        <pt x="187" y="356" on="1"/>
        <pt x="187" y="360" on="1"/>
        <pt x="126" y="366" on="0"/>
        <pt x="72" y="444" on="0"/>
        <pt x="72" y="521" on="1"/>
        <pt x="72" y="581" on="0"/>
        <pt x="100" y="653" on="0"/>
        <pt x="171" y="690" on="0"/>
        <pt x="261" y="702" on="0"/>
        <pt x="340" y="702" on="1"/>
        <pt x="438" y="702" on="0"/>
        <pt x="503" y="690" on="1"/>
        <pt x="485" y="585" on="1"/>
        <pt x="383" y="588" on="0"/>
        <pt x="336" y="588" on="1"/>
        <pt x="270" y="588" on="0"/>
        <pt x="226" y="554" on="0"/>
        <pt x="226" y="498" on="1"/>
        <pt x="226" y="445" on="0"/>
        <pt x="265" y="407" on="0"/>
        <pt x="319" y="407" on="1"/>
        <pt x="471" y="407" on="1"/>
        <pt x="481" y="513" on="1"/>
        <pt x="605" y="513" on="1"/>
        <pt x="605" y="407" on="1"/>
        <pt x="712" y="407" on="1"/>
        <pt x="712" y="304" on="1"/>
        <pt x="605" y="304" on="1"/>
        <pt x="605" y="159" on="1"/>
        <pt x="605" y="130" on="0"/>
        <pt x="626" y="108" on="0"/>
        <pt x="653" y="108" on="1"/>
      </contour>
      <contour>
        <pt x="466" y="304" on="1"/>
        <pt x="311" y="304" on="1"/>
        <pt x="253" y="304" on="0"/>
        <pt x="212" y="263" on="0"/>
        <pt x="212" y="205" on="1"/>
        <pt x="212" y="148" on="0"/>
        <pt x="248" y="110" on="0"/>
        <pt x="303" y="110" on="1"/>
        <pt x="402" y="112" on="0"/>
        <pt x="466" y="155" on="1"/>
      </contour>
    </TTGlyph>
    <TTGlyph name="aogonek" xMin="36" yMin="-200" xMax="526" yMax="507">
      <contour>
        <pt x="514" y="-138" on="1"/>
        <pt x="526" y="-193" on="1"/>
        <pt x="420" y="-229" on="0"/>
        <pt x="331" y="-171" on="0"/>
        <pt x="352" y="-111" on="1"/>
        <pt x="369" y="-56" on="0"/>
        <pt x="449" y="0" on="1"/>
        <pt x="394" y="0" on="1"/>
        <pt x="379" y="75" on="1"/>
        <pt x="305" y="-12" on="0"/>
        <pt x="197" y="-12" on="1"/>
        <pt x="126" y="-12" on="0"/>
        <pt x="36" y="63" on="0"/>
        <pt x="36" y="130" on="1"/>
        <pt x="36" y="180" on="1"/>
        <pt x="36" y="239" on="0"/>
        <pt x="116" y="305" on="0"/>
        <pt x="187" y="305" on="1"/>
        <pt x="363" y="305" on="1"/>
        <pt x="363" y="327" on="1"/>
        <pt x="362" y="365" on="0"/>
        <pt x="329" y="391" on="0"/>
        <pt x="282" y="391" on="1"/>
        <pt x="200" y="391" on="0"/>
        <pt x="74" y="383" on="1"/>
        <pt x="60" y="483" on="1"/>
        <pt x="193" y="507" on="0"/>
        <pt x="317" y="507" on="1"/>
        <pt x="417" y="507" on="0"/>
        <pt x="511" y="426" on="0"/>
        <pt x="511" y="326" on="1"/>
        <pt x="511" y="0" on="1"/>
        <pt x="469" y="-57" on="0"/>
        <pt x="451" y="-100" on="1"/>
        <pt x="437" y="-130" on="0"/>
        <pt x="476" y="-149" on="0"/>
      </contour>
      <contour>
        <pt x="182" y="169" on="1"/>
        <pt x="182" y="150" on="1"/>
        <pt x="182" y="99" on="0"/>
        <pt x="240" y="99" on="1"/>
        <pt x="300" y="99" on="0"/>
        <pt x="363" y="147" on="1"/>
        <pt x="363" y="216" on="1"/>
        <pt x="230" y="216" on="1"/>
        <pt x="182" y="215" on="0"/>
      </contour>
    </TTGlyph>
    <TTGlyph name="approxequal" xMin="64" yMin="115" xMax="516" yMax="464">
      <contour>
        <pt x="156" y="315" on="1"/>
        <pt x="64" y="315" on="1"/>
        <pt x="49" y="392" on="0"/>
        <pt x="114" y="468" on="0"/>
        <pt x="179" y="464" on="1"/>
        <pt x="206" y="462" on="0"/>
        <pt x="362" y="416" on="0"/>
        <pt x="390" y="414" on="1"/>
        <pt x="412" y="413" on="0"/>
        <pt x="423" y="431" on="0"/>
        <pt x="423" y="459" on="1"/>
        <pt x="516" y="459" on="1"/>
        <pt x="531" y="385" on="0"/>
        <pt x="472" y="309" on="0"/>
        <pt x="401" y="311" on="1"/>
        <pt x="370" y="312" on="0"/>
        <pt x="216" y="359" on="0"/>
        <pt x="190" y="361" on="1"/>
        <pt x="168" y="362" on="0"/>
        <pt x="156" y="343" on="0"/>
      </contour>
      <contour>
        <pt x="156" y="118" on="1"/>
        <pt x="64" y="118" on="1"/>
        <pt x="49" y="196" on="0"/>
        <pt x="114" y="272" on="0"/>
        <pt x="179" y="268" on="1"/>
        <pt x="207" y="266" on="0"/>
        <pt x="362" y="219" on="0"/>
        <pt x="390" y="217" on="1"/>
        <pt x="412" y="216" on="0"/>
        <pt x="423" y="234" on="0"/>
        <pt x="423" y="262" on="1"/>
        <pt x="516" y="262" on="1"/>
        <pt x="531" y="189" on="0"/>
        <pt x="472" y="113" on="0"/>
        <pt x="401" y="115" on="1"/>
        <pt x="370" y="116" on="0"/>
        <pt x="216" y="163" on="0"/>
        <pt x="190" y="165" on="1"/>
        <pt x="168" y="166" on="0"/>
        <pt x="156" y="147" on="0"/>
      </contour>
    </TTGlyph>
    <TTGlyph name="aring" xMin="36" yMin="-12" xMax="511" yMax="760">
      <contour>
        <pt x="332" y="530" on="0"/>
        <pt x="234" y="530" on="0"/>
        <pt x="165" y="597" on="0"/>
        <pt x="165" y="693" on="0"/>
        <pt x="234" y="760" on="0"/>
        <pt x="283" y="760" on="1"/>
        <pt x="331" y="760" on="0"/>
        <pt x="401" y="693" on="0"/>
        <pt x="401" y="597" on="0"/>
      </contour>
      <contour>
        <pt x="304" y="697" on="0"/>
        <pt x="262" y="697" on="0"/>
        <pt x="233" y="668" on="0"/>
        <pt x="233" y="622" on="0"/>
        <pt x="262" y="594" on="0"/>
        <pt x="304" y="594" on="0"/>
        <pt x="333" y="622" on="0"/>
        <pt x="333" y="668" on="0"/>
      </contour>
      <contour>
        <pt x="74" y="383" on="1"/>
        <pt x="60" y="483" on="1"/>
        <pt x="193" y="507" on="0"/>
        <pt x="317" y="507" on="1"/>
        <pt x="417" y="507" on="0"/>
        <pt x="511" y="426" on="0"/>
        <pt x="511" y="326" on="1"/>
        <pt x="511" y="0" on="1"/>
        <pt x="394" y="0" on="1"/>
        <pt x="379" y="75" on="1"/>
        <pt x="305" y="-12" on="0"/>
        <pt x="197" y="-12" on="1"/>
        <pt x="126" y="-12" on="0"/>
        <pt x="36" y="63" on="0"/>
        <pt x="36" y="130" on="1"/>
        <pt x="36" y="180" on="1"/>
        <pt x="36" y="239" on="0"/>
        <pt x="116" y="305" on="0"/>
        <pt x="187" y="305" on="1"/>
        <pt x="363" y="305" on="1"/>
        <pt x="363" y="327" on="1"/>
        <pt x="362" y="365" on="0"/>
        <pt x="329" y="391" on="0"/>
        <pt x="282" y="391" on="1"/>
        <pt x="200" y="391" on="0"/>
      </contour>
      <contour>
        <pt x="182" y="169" on="1"/>
        <pt x="182" y="150" on="1"/>
        <pt x="182" y="99" on="0"/>
        <pt x="240" y="99" on="1"/>
        <pt x="300" y="99" on="0"/>
        <pt x="363" y="147" on="1"/>
        <pt x="363" y="216" on="1"/>
        <pt x="230" y="216" on="1"/>
        <pt x="182" y="215" on="0"/>
      </contour>
    </TTGlyph>
    <TTGlyph name="asciicircum" xMin="30" yMin="370" xMax="432" yMax="627">
      <contour>
        <pt x="432" y="402" on="1"/>
        <pt x="374" y="370" on="1"/>
        <pt x="236" y="535" on="1"/>
        <pt x="228" y="535" on="1"/>
        <pt x="87" y="370" on="1"/>
        <pt x="30" y="402" on="1"/>
        <pt x="178" y="627" on="1"/>
        <pt x="285" y="627" on="1"/>
      </contour>
    </TTGlyph>
    <TTGlyph name="asciitilde" xMin="62" yMin="213" xMax="452" yMax="363">
      <contour>
        <pt x="129" y="217" on="1"/>
        <pt x="62" y="217" on="1"/>
        <pt x="51" y="289" on="0"/>
        <pt x="99" y="364" on="0"/>
        <pt x="143" y="363" on="1"/>
        <pt x="175" y="361" on="0"/>
        <pt x="333" y="314" on="0"/>
        <pt x="349" y="312" on="1"/>
        <pt x="372" y="308" on="0"/>
        <pt x="385" y="328" on="0"/>
        <pt x="385" y="358" on="1"/>
        <pt x="452" y="358" on="1"/>
        <pt x="463" y="287" on="0"/>
        <pt x="416" y="211" on="0"/>
        <pt x="371" y="213" on="1"/>
        <pt x="336" y="214" on="0"/>
        <pt x="180" y="261" on="0"/>
        <pt x="164" y="263" on="1"/>
        <pt x="141" y="267" on="0"/>
        <pt x="129" y="247" on="0"/>
      </contour>
    </TTGlyph>
    <TTGlyph name="asterisk" xMin="38" yMin="346" xMax="414" yMax="691">
      <contour>
        <pt x="255" y="524" on="1"/>
        <pt x="361" y="395" on="1"/>
        <pt x="296" y="346" on="1"/>
        <pt x="226" y="468" on="1"/>
        <pt x="156" y="347" on="1"/>
        <pt x="90" y="395" on="1"/>
        <pt x="197" y="523" on="1"/>
        <pt x="185" y="691" on="1"/>
        <pt x="267" y="691" on="1"/>
      </contour>
      <contour>
        <pt x="414" y="534" on="1"/>
        <pt x="292" y="505" on="1"/>
        <pt x="273" y="527" on="1"/>
        <pt x="273" y="563" on="1"/>
        <pt x="389" y="612" on="1"/>
      </contour>
      <contour>
        <pt x="179" y="563" on="1"/>
        <pt x="179" y="527" on="1"/>
        <pt x="161" y="505" on="1"/>
        <pt x="38" y="534" on="1"/>
        <pt x="63" y="612" on="1"/>
      </contour>
    </TTGlyph>
    <TTGlyph name="at" xMin="57" yMin="-69" xMax="699" yMax="601">
      <contour>
        <pt x="373" y="601" on="1"/>
        <pt x="525" y="601" on="1"/>
        <pt x="612" y="601" on="0"/>
        <pt x="699" y="524" on="0"/>
        <pt x="699" y="435" on="1"/>
        <pt x="699" y="135" on="1"/>
        <pt x="590" y="135" on="1"/>
        <pt x="577" y="204" on="1"/>
        <pt x="549" y="172" on="0"/>
        <pt x="456" y="124" on="0"/>
        <pt x="402" y="124" on="1"/>
        <pt x="340" y="124" on="0"/>
        <pt x="261" y="190" on="0"/>
        <pt x="261" y="250" on="1"/>
        <pt x="261" y="298" on="1"/>
        <pt x="261" y="350" on="0"/>
        <pt x="327" y="408" on="0"/>
        <pt x="388" y="408" on="1"/>
        <pt x="562" y="408" on="1"/>
        <pt x="562" y="433" on="1"/>
        <pt x="562" y="467" on="0"/>
        <pt x="533" y="491" on="0"/>
        <pt x="495" y="491" on="1"/>
        <pt x="373" y="491" on="1"/>
        <pt x="326" y="491" on="0"/>
        <pt x="281" y="489" on="0"/>
        <pt x="232" y="473" on="0"/>
        <pt x="214" y="449" on="0"/>
        <pt x="196" y="395" on="0"/>
        <pt x="193" y="326" on="0"/>
        <pt x="193" y="268" on="1"/>
        <pt x="193" y="208" on="0"/>
        <pt x="196" y="138" on="0"/>
        <pt x="219" y="82" on="0"/>
        <pt x="237" y="59" on="0"/>
        <pt x="301" y="44" on="0"/>
        <pt x="351" y="43" on="0"/>
        <pt x="411" y="43" on="1"/>
        <pt x="414" y="43" on="0"/>
        <pt x="416" y="43" on="1"/>
        <pt x="698" y="43" on="1"/>
        <pt x="698" y="-56" on="1"/>
        <pt x="525" y="-69" on="0"/>
        <pt x="417" y="-69" on="1"/>
        <pt x="331" y="-69" on="0"/>
        <pt x="224" y="-62" on="0"/>
        <pt x="137" y="-33" on="0"/>
        <pt x="93" y="8" on="0"/>
        <pt x="64" y="91" on="0"/>
        <pt x="57" y="188" on="0"/>
        <pt x="57" y="268" on="1"/>
        <pt x="57" y="347" on="0"/>
        <pt x="63" y="442" on="0"/>
        <pt x="89" y="524" on="0"/>
        <pt x="127" y="564" on="0"/>
        <pt x="203" y="593" on="0"/>
        <pt x="297" y="601" on="0"/>
      </contour>
      <contour>
        <pt x="562" y="334" on="1"/>
        <pt x="441" y="330" on="1"/>
        <pt x="415" y="329" on="0"/>
        <pt x="394" y="310" on="0"/>
        <pt x="394" y="289" on="1"/>
        <pt x="394" y="273" on="1"/>
        <pt x="394" y="227" on="0"/>
        <pt x="442" y="227" on="1"/>
        <pt x="512" y="227" on="0"/>
        <pt x="562" y="271" on="1"/>
      </contour>
    </TTGlyph>
    <TTGlyph name="atilde" xMin="36" yMin="-12" xMax="511" yMax="716">
      <contour>
        <pt x="172" y="575" on="1"/>
        <pt x="109" y="575" on="1"/>
        <pt x="98" y="645" on="0"/>
        <pt x="148" y="719" on="0"/>
        <pt x="190" y="716" on="1"/>
        <pt x="226" y="713" on="0"/>
        <pt x="327" y="672" on="0"/>
        <pt x="350" y="668" on="1"/>
        <pt x="374" y="664" on="0"/>
        <pt x="388" y="684" on="0"/>
        <pt x="388" y="711" on="1"/>
        <pt x="452" y="711" on="1"/>
        <pt x="462" y="643" on="0"/>
        <pt x="414" y="568" on="0"/>
        <pt x="370" y="571" on="1"/>
        <pt x="332" y="574" on="0"/>
        <pt x="229" y="617" on="0"/>
        <pt x="210" y="620" on="1"/>
        <pt x="186" y="623" on="0"/>
        <pt x="172" y="603" on="0"/>
      </contour>
      <contour>
        <pt x="74" y="383" on="1"/>
        <pt x="60" y="483" on="1"/>
        <pt x="193" y="507" on="0"/>
        <pt x="317" y="507" on="1"/>
        <pt x="417" y="507" on="0"/>
        <pt x="511" y="426" on="0"/>
        <pt x="511" y="326" on="1"/>
        <pt x="511" y="0" on="1"/>
        <pt x="394" y="0" on="1"/>
        <pt x="379" y="75" on="1"/>
        <pt x="305" y="-12" on="0"/>
        <pt x="197" y="-12" on="1"/>
        <pt x="126" y="-12" on="0"/>
        <pt x="36" y="63" on="0"/>
        <pt x="36" y="130" on="1"/>
        <pt x="36" y="180" on="1"/>
        <pt x="36" y="239" on="0"/>
        <pt x="116" y="305" on="0"/>
        <pt x="187" y="305" on="1"/>
        <pt x="363" y="305" on="1"/>
        <pt x="363" y="327" on="1"/>
        <pt x="362" y="365" on="0"/>
        <pt x="329" y="391" on="0"/>
        <pt x="282" y="391" on="1"/>
        <pt x="200" y="391" on="0"/>
      </contour>
      <contour>
        <pt x="182" y="169" on="1"/>
        <pt x="182" y="150" on="1"/>
        <pt x="182" y="99" on="0"/>
        <pt x="240" y="99" on="1"/>
        <pt x="300" y="99" on="0"/>
        <pt x="363" y="147" on="1"/>
        <pt x="363" y="216" on="1"/>
        <pt x="230" y="216" on="1"/>
        <pt x="182" y="215" on="0"/>
      </contour>
    </TTGlyph>
    <TTGlyph name="b" xMin="59" yMin="-12" xMax="551" yMax="700">
      <contour>
        <pt x="208" y="700" on="1"/>
        <pt x="208" y="543" on="1"/>
        <pt x="208" y="474" on="0"/>
        <pt x="195" y="427" on="1"/>
        <pt x="273" y="507" on="0"/>
        <pt x="370" y="507" on="1"/>
        <pt x="466" y="507" on="0"/>
        <pt x="551" y="388" on="0"/>
        <pt x="551" y="251" on="1"/>
        <pt x="551" y="124" on="0"/>
        <pt x="447" y="-12" on="0"/>
        <pt x="310" y="-12" on="1"/>
        <pt x="250" y="-12" on="0"/>
        <pt x="101" y="8" on="0"/>
        <pt x="59" y="26" on="1"/>
        <pt x="59" y="700" on="1"/>
      </contour>
      <contour>
        <pt x="207" y="347" on="1"/>
        <pt x="207" y="107" on="1"/>
        <pt x="258" y="96" on="0"/>
        <pt x="307" y="98" on="1"/>
        <pt x="358" y="100" on="0"/>
        <pt x="399" y="164" on="0"/>
        <pt x="399" y="250" on="1"/>
        <pt x="399" y="332" on="0"/>
        <pt x="365" y="389" on="0"/>
        <pt x="311" y="389" on="1"/>
        <pt x="270" y="389" on="0"/>
      </contour>
    </TTGlyph>
    <TTGlyph name="backslash" xMin="20" yMin="-72" xMax="531" yMax="690">
      <contour>
        <pt x="531" y="-72" on="1"/>
        <pt x="413" y="-72" on="1"/>
        <pt x="20" y="690" on="1"/>
        <pt x="138" y="690" on="1"/>
      </contour>
    </TTGlyph>
    <TTGlyph name="bar" xMin="78" yMin="-169" xMax="182" yMax="781">
      <contour>
        <pt x="182" y="-169" on="1"/>
        <pt x="78" y="-169" on="1"/>
        <pt x="78" y="781" on="1"/>
        <pt x="182" y="781" on="1"/>
      </contour>
    </TTGlyph>
    <TTGlyph name="braceleft" xMin="34" yMin="-165" xMax="307" yMax="768">
      <contour>
        <pt x="303" y="768" on="1"/>
        <pt x="303" y="677" on="1"/>
        <pt x="258" y="677" on="0"/>
        <pt x="227" y="652" on="0"/>
        <pt x="227" y="615" on="1"/>
        <pt x="227" y="464" on="1"/>
        <pt x="228" y="399" on="0"/>
        <pt x="185" y="338" on="0"/>
        <pt x="124" y="328" on="1"/>
        <pt x="185" y="311" on="0"/>
        <pt x="230" y="251" on="0"/>
        <pt x="231" y="196" on="1"/>
        <pt x="231" y="-14" on="1"/>
        <pt x="231" y="-51" on="0"/>
        <pt x="262" y="-74" on="0"/>
        <pt x="307" y="-74" on="1"/>
        <pt x="307" y="-165" on="1"/>
        <pt x="196" y="-179" on="0"/>
        <pt x="90" y="-104" on="0"/>
        <pt x="90" y="-26" on="1"/>
        <pt x="90" y="213" on="1"/>
        <pt x="90" y="231" on="0"/>
        <pt x="86" y="251" on="0"/>
        <pt x="66" y="267" on="0"/>
        <pt x="56" y="271" on="0"/>
        <pt x="34" y="280" on="1"/>
        <pt x="34" y="376" on="1"/>
        <pt x="55" y="383" on="0"/>
        <pt x="67" y="387" on="0"/>
        <pt x="84" y="403" on="0"/>
        <pt x="86" y="425" on="0"/>
        <pt x="86" y="447" on="1"/>
        <pt x="86" y="629" on="1"/>
        <pt x="86" y="706" on="0"/>
        <pt x="192" y="782" on="0"/>
      </contour>
    </TTGlyph>
    <TTGlyph name="braceright" xMin="33" yMin="-165" xMax="306" yMax="768">
      <contour>
        <pt x="37" y="677" on="1"/>
        <pt x="37" y="768" on="1"/>
        <pt x="148" y="782" on="0"/>
        <pt x="254" y="706" on="0"/>
        <pt x="254" y="629" on="1"/>
        <pt x="254" y="447" on="1"/>
        <pt x="254" y="425" on="0"/>
        <pt x="256" y="403" on="0"/>
        <pt x="273" y="387" on="0"/>
        <pt x="285" y="383" on="0"/>
        <pt x="306" y="376" on="1"/>
        <pt x="306" y="280" on="1"/>
        <pt x="267" y="264" on="0"/>
        <pt x="260" y="255" on="1"/>
        <pt x="250" y="242" on="0"/>
        <pt x="250" y="213" on="1"/>
        <pt x="250" y="-26" on="1"/>
        <pt x="250" y="-104" on="0"/>
        <pt x="144" y="-179" on="0"/>
        <pt x="33" y="-165" on="1"/>
        <pt x="33" y="-74" on="1"/>
        <pt x="78" y="-74" on="0"/>
        <pt x="109" y="-51" on="0"/>
        <pt x="109" y="-14" on="1"/>
        <pt x="109" y="196" on="1"/>
        <pt x="110" y="251" on="0"/>
        <pt x="155" y="311" on="0"/>
        <pt x="216" y="328" on="1"/>
        <pt x="156" y="338" on="0"/>
        <pt x="112" y="399" on="0"/>
        <pt x="113" y="464" on="1"/>
        <pt x="113" y="615" on="1"/>
        <pt x="113" y="652" on="0"/>
        <pt x="82" y="677" on="0"/>
      </contour>
    </TTGlyph>
    <TTGlyph name="bracketleft" xMin="76" yMin="-165" xMax="313" yMax="768">
      <contour>
        <pt x="313" y="676" on="1"/>
        <pt x="233" y="676" on="1"/>
        <pt x="214" y="676" on="0"/>
        <pt x="214" y="657" on="1"/>
        <pt x="214" y="-54" on="1"/>
        <pt x="214" y="-73" on="0"/>
        <pt x="233" y="-73" on="1"/>
        <pt x="313" y="-73" on="1"/>
        <pt x="313" y="-165" on="1"/>
        <pt x="153" y="-165" on="1"/>
        <pt x="76" y="-165" on="0"/>
        <pt x="76" y="-88" on="1"/>
        <pt x="76" y="691" on="1"/>
        <pt x="76" y="725" on="0"/>
        <pt x="119" y="768" on="0"/>
        <pt x="153" y="768" on="1"/>
        <pt x="313" y="768" on="1"/>
      </contour>
    </TTGlyph>
    <TTGlyph name="bracketright" xMin="33" yMin="-165" xMax="270" yMax="768">
      <contour>
        <pt x="33" y="768" on="1"/>
        <pt x="192" y="768" on="1"/>
        <pt x="226" y="768" on="0"/>
        <pt x="270" y="725" on="0"/>
        <pt x="270" y="691" on="1"/>
        <pt x="270" y="-88" on="1"/>
        <pt x="270" y="-122" on="0"/>
        <pt x="226" y="-165" on="0"/>
        <pt x="192" y="-165" on="1"/>
        <pt x="33" y="-165" on="1"/>
        <pt x="33" y="-73" on="1"/>
        <pt x="113" y="-73" on="1"/>
        <pt x="132" y="-73" on="0"/>
        <pt x="132" y="-54" on="1"/>
        <pt x="132" y="657" on="1"/>
        <pt x="132" y="676" on="0"/>
        <pt x="113" y="676" on="1"/>
        <pt x="33" y="676" on="1"/>
      </contour>
    </TTGlyph>
    <TTGlyph name="breve" xMin="32" yMin="546" xMax="361" yMax="707">
      <contour>
        <pt x="290" y="707" on="1"/>
        <pt x="361" y="697" on="1"/>
        <pt x="369" y="633" on="0"/>
        <pt x="278" y="546" on="0"/>
        <pt x="116" y="546" on="0"/>
        <pt x="24" y="633" on="0"/>
        <pt x="32" y="697" on="1"/>
        <pt x="103" y="707" on="1"/>
        <pt x="103" y="643" on="0"/>
        <pt x="197" y="643" on="1"/>
        <pt x="244" y="643" on="0"/>
        <pt x="291" y="675" on="0"/>
      </contour>
    </TTGlyph>
    <TTGlyph name="brevecy" xMin="32" yMin="546" xMax="361" yMax="701">
      <contour>
        <pt x="262" y="701" on="1"/>
        <pt x="361" y="701" on="1"/>
        <pt x="369" y="637" on="0"/>
        <pt x="277" y="546" on="0"/>
        <pt x="117" y="546" on="0"/>
        <pt x="24" y="638" on="0"/>
        <pt x="32" y="701" on="1"/>
        <pt x="131" y="701" on="1"/>
        <pt x="127" y="619" on="0"/>
        <pt x="197" y="619" on="1"/>
        <pt x="268" y="619" on="0"/>
      </contour>
    </TTGlyph>
    <TTGlyph name="brokenbar" xMin="79" yMin="-169" xMax="183" yMax="781">
      <contour>
        <pt x="183" y="381" on="1"/>
        <pt x="79" y="381" on="1"/>
        <pt x="79" y="781" on="1"/>
        <pt x="183" y="781" on="1"/>
      </contour>
      <contour>
        <pt x="183" y="-169" on="1"/>
        <pt x="79" y="-169" on="1"/>
        <pt x="79" y="231" on="1"/>
        <pt x="183" y="231" on="1"/>
      </contour>
    </TTGlyph>
    <TTGlyph name="bullet" xMin="74" yMin="155" xMax="299" yMax="380">
      <contour>
        <pt x="182" y="380" on="1"/>
        <pt x="196" y="380" on="1"/>
        <pt x="254" y="380" on="0"/>
        <pt x="299" y="335" on="0"/>
        <pt x="299" y="278" on="1"/>
        <pt x="299" y="263" on="1"/>
        <pt x="299" y="202" on="0"/>
        <pt x="254" y="155" on="0"/>
        <pt x="196" y="155" on="1"/>
        <pt x="182" y="155" on="1"/>
        <pt x="120" y="155" on="0"/>
        <pt x="74" y="202" on="0"/>
        <pt x="74" y="263" on="1"/>
        <pt x="74" y="278" on="1"/>
        <pt x="74" y="335" on="0"/>
        <pt x="121" y="380" on="0"/>
      </contour>
    </TTGlyph>
    <TTGlyph name="c" xMin="40" yMin="-12" xMax="478" yMax="507">
      <contour>
        <pt x="465" y="117" on="1"/>
        <pt x="478" y="21" on="1"/>
        <pt x="402" y="-12" on="0"/>
        <pt x="287" y="-12" on="1"/>
        <pt x="151" y="-12" on="0"/>
        <pt x="40" y="105" on="0"/>
        <pt x="40" y="247" on="1"/>
        <pt x="40" y="390" on="0"/>
        <pt x="152" y="507" on="0"/>
        <pt x="289" y="507" on="1"/>
        <pt x="401" y="507" on="0"/>
        <pt x="471" y="476" on="1"/>
        <pt x="455" y="384" on="1"/>
        <pt x="347" y="386" on="0"/>
        <pt x="314" y="386" on="1"/>
        <pt x="246" y="386" on="0"/>
        <pt x="195" y="328" on="0"/>
        <pt x="195" y="166" on="0"/>
        <pt x="246" y="108" on="0"/>
        <pt x="314" y="108" on="1"/>
        <pt x="401" y="108" on="0"/>
      </contour>
    </TTGlyph>
    <TTGlyph name="cacute" xMin="40" yMin="-12" xMax="478" yMax="752">
      <contour>
        <pt x="461" y="650" on="1"/>
        <pt x="236" y="540" on="1"/>
        <pt x="192" y="604" on="1"/>
        <pt x="394" y="752" on="1"/>
      </contour>
      <contour>
        <pt x="465" y="117" on="1"/>
        <pt x="478" y="21" on="1"/>
        <pt x="402" y="-12" on="0"/>
        <pt x="287" y="-12" on="1"/>
        <pt x="151" y="-12" on="0"/>
        <pt x="40" y="105" on="0"/>
        <pt x="40" y="247" on="1"/>
        <pt x="40" y="390" on="0"/>
        <pt x="152" y="507" on="0"/>
        <pt x="289" y="507" on="1"/>
        <pt x="401" y="507" on="0"/>
        <pt x="471" y="476" on="1"/>
        <pt x="455" y="384" on="1"/>
        <pt x="347" y="386" on="0"/>
        <pt x="314" y="386" on="1"/>
        <pt x="246" y="386" on="0"/>
        <pt x="195" y="328" on="0"/>
        <pt x="195" y="166" on="0"/>
        <pt x="246" y="108" on="0"/>
        <pt x="314" y="108" on="1"/>
        <pt x="401" y="108" on="0"/>
      </contour>
    </TTGlyph>
    <TTGlyph name="caron" xMin="42" yMin="551" xMax="409" yMax="741">
      <contour>
        <pt x="409" y="682" on="1"/>
        <pt x="256" y="551" on="1"/>
        <pt x="195" y="551" on="1"/>
        <pt x="42" y="682" on="1"/>
        <pt x="83" y="741" on="1"/>
        <pt x="221" y="661" on="1"/>
        <pt x="229" y="661" on="1"/>
        <pt x="367" y="741" on="1"/>
      </contour>
    </TTGlyph>
    <TTGlyph name="ccaron" xMin="40" yMin="-12" xMax="478" yMax="746">
      <contour>
        <pt x="460" y="688" on="1"/>
        <pt x="307" y="557" on="1"/>
        <pt x="246" y="557" on="1"/>
        <pt x="94" y="688" on="1"/>
        <pt x="134" y="746" on="1"/>
        <pt x="273" y="666" on="1"/>
        <pt x="281" y="666" on="1"/>
        <pt x="419" y="746" on="1"/>
      </contour>
      <contour>
        <pt x="465" y="117" on="1"/>
        <pt x="478" y="21" on="1"/>
        <pt x="402" y="-12" on="0"/>
        <pt x="287" y="-12" on="1"/>
        <pt x="151" y="-12" on="0"/>
        <pt x="40" y="105" on="0"/>
        <pt x="40" y="247" on="1"/>
        <pt x="40" y="390" on="0"/>
        <pt x="152" y="507" on="0"/>
        <pt x="289" y="507" on="1"/>
        <pt x="401" y="507" on="0"/>
        <pt x="471" y="476" on="1"/>
        <pt x="455" y="384" on="1"/>
        <pt x="347" y="386" on="0"/>
        <pt x="314" y="386" on="1"/>
        <pt x="246" y="386" on="0"/>
        <pt x="195" y="328" on="0"/>
        <pt x="195" y="166" on="0"/>
        <pt x="246" y="108" on="0"/>
        <pt x="314" y="108" on="1"/>
        <pt x="401" y="108" on="0"/>
      </contour>
    </TTGlyph>
    <TTGlyph name="ccedilla" xMin="40" yMin="-252" xMax="478" yMax="507">
      <contour>
        <pt x="465" y="117" on="1"/>
        <pt x="478" y="21" on="1"/>
        <pt x="402" y="-12" on="0"/>
        <pt x="287" y="-12" on="1"/>
        <pt x="151" y="-12" on="0"/>
        <pt x="40" y="105" on="0"/>
        <pt x="40" y="247" on="1"/>
        <pt x="40" y="390" on="0"/>
        <pt x="152" y="507" on="0"/>
        <pt x="289" y="507" on="1"/>
        <pt x="401" y="507" on="0"/>
        <pt x="471" y="476" on="1"/>
        <pt x="455" y="384" on="1"/>
        <pt x="347" y="386" on="0"/>
        <pt x="314" y="386" on="1"/>
        <pt x="246" y="386" on="0"/>
        <pt x="195" y="328" on="0"/>
        <pt x="195" y="166" on="0"/>
        <pt x="246" y="108" on="0"/>
        <pt x="314" y="108" on="1"/>
        <pt x="401" y="108" on="0"/>
      </contour>
      <contour>
        <pt x="205" y="-110" on="1"/>
        <pt x="220" y="-52" on="1"/>
        <pt x="302" y="-43" on="0"/>
        <pt x="366" y="-67" on="0"/>
        <pt x="364" y="-117" on="1"/>
        <pt x="361" y="-190" on="0"/>
        <pt x="248" y="-263" on="0"/>
        <pt x="164" y="-252" on="1"/>
        <pt x="183" y="-187" on="1"/>
        <pt x="220" y="-188" on="0"/>
        <pt x="267" y="-159" on="0"/>
        <pt x="269" y="-129" on="1"/>
        <pt x="270" y="-116" on="0"/>
        <pt x="247" y="-110" on="0"/>
      </contour>
    </TTGlyph>
    <TTGlyph name="cdotaccent" xMin="40" yMin="-12" xMax="478" yMax="704">
      <contour>
        <pt x="254" y="704" on="1"/>
        <pt x="299" y="704" on="1"/>
        <pt x="341" y="704" on="0"/>
        <pt x="341" y="663" on="1"/>
        <pt x="341" y="611" on="1"/>
        <pt x="341" y="570" on="0"/>
        <pt x="299" y="570" on="1"/>
        <pt x="254" y="570" on="1"/>
        <pt x="212" y="570" on="0"/>
        <pt x="212" y="611" on="1"/>
        <pt x="212" y="663" on="1"/>
        <pt x="212" y="704" on="0"/>
      </contour>
      <contour>
        <pt x="465" y="117" on="1"/>
        <pt x="478" y="21" on="1"/>
        <pt x="402" y="-12" on="0"/>
        <pt x="287" y="-12" on="1"/>
        <pt x="151" y="-12" on="0"/>
        <pt x="40" y="105" on="0"/>
        <pt x="40" y="247" on="1"/>
        <pt x="40" y="390" on="0"/>
        <pt x="152" y="507" on="0"/>
        <pt x="289" y="507" on="1"/>
        <pt x="401" y="507" on="0"/>
        <pt x="471" y="476" on="1"/>
        <pt x="455" y="384" on="1"/>
        <pt x="347" y="386" on="0"/>
        <pt x="314" y="386" on="1"/>
        <pt x="246" y="386" on="0"/>
        <pt x="195" y="328" on="0"/>
        <pt x="195" y="166" on="0"/>
        <pt x="246" y="108" on="0"/>
        <pt x="314" y="108" on="1"/>
        <pt x="401" y="108" on="0"/>
      </contour>
    </TTGlyph>
    <TTGlyph name="cedilla" xMin="24" yMin="-238" xMax="224" yMax="-38">
      <contour>
        <pt x="66" y="-96" on="1"/>
        <pt x="80" y="-38" on="1"/>
        <pt x="163" y="-29" on="0"/>
        <pt x="226" y="-53" on="0"/>
        <pt x="224" y="-103" on="1"/>
        <pt x="221" y="-176" on="0"/>
        <pt x="109" y="-249" on="0"/>
        <pt x="24" y="-238" on="1"/>
        <pt x="43" y="-173" on="1"/>
        <pt x="125" y="-175" on="0"/>
        <pt x="129" y="-115" on="1"/>
        <pt x="130" y="-102" on="0"/>
        <pt x="107" y="-96" on="0"/>
      </contour>
    </TTGlyph>
    <TTGlyph name="cent" xMin="39" yMin="0" xMax="479" yMax="690">
      <contour>
        <pt x="466" y="213" on="1"/>
        <pt x="479" y="122" on="1"/>
        <pt x="411" y="93" on="0"/>
        <pt x="321" y="90" on="1"/>
        <pt x="311" y="0" on="1"/>
        <pt x="200" y="0" on="1"/>
        <pt x="210" y="94" on="1"/>
        <pt x="118" y="108" on="0"/>
        <pt x="39" y="226" on="0"/>
        <pt x="39" y="348" on="1"/>
        <pt x="39" y="485" on="0"/>
        <pt x="143" y="603" on="0"/>
        <pt x="267" y="607" on="1"/>
        <pt x="276" y="690" on="1"/>
        <pt x="387" y="690" on="1"/>
        <pt x="377" y="602" on="1"/>
        <pt x="434" y="593" on="0"/>
        <pt x="472" y="577" on="1"/>
        <pt x="456" y="487" on="1"/>
        <pt x="384" y="491" on="0"/>
        <pt x="314" y="491" on="1"/>
        <pt x="240" y="491" on="0"/>
        <pt x="185" y="432" on="0"/>
        <pt x="185" y="264" on="0"/>
        <pt x="240" y="205" on="0"/>
        <pt x="314" y="205" on="1"/>
        <pt x="401" y="205" on="0"/>
      </contour>
    </TTGlyph>
    <TTGlyph name="circumflex" xMin="38" yMin="534" xMax="411" yMax="723">
      <contour>
        <pt x="411" y="589" on="1"/>
        <pt x="370" y="534" on="1"/>
        <pt x="229" y="628" on="1"/>
        <pt x="221" y="628" on="1"/>
        <pt x="79" y="534" on="1"/>
        <pt x="38" y="592" on="1"/>
        <pt x="172" y="723" on="1"/>
        <pt x="279" y="723" on="1"/>
      </contour>
    </TTGlyph>
    <TTGlyph name="colon" xMin="52" yMin="0" xMax="196" yMax="451">
      <contour>
        <pt x="104" y="451" on="1"/>
        <pt x="144" y="451" on="1"/>
        <pt x="173" y="451" on="0"/>
        <pt x="196" y="428" on="0"/>
        <pt x="196" y="399" on="1"/>
        <pt x="196" y="351" on="1"/>
        <pt x="196" y="322" on="0"/>
        <pt x="173" y="300" on="0"/>
        <pt x="144" y="300" on="1"/>
        <pt x="104" y="300" on="1"/>
        <pt x="75" y="300" on="0"/>
        <pt x="52" y="322" on="0"/>
        <pt x="52" y="351" on="1"/>
        <pt x="52" y="399" on="1"/>
        <pt x="52" y="428" on="0"/>
        <pt x="75" y="451" on="0"/>
      </contour>
      <contour>
        <pt x="104" y="152" on="1"/>
        <pt x="144" y="152" on="1"/>
        <pt x="173" y="152" on="0"/>
        <pt x="196" y="129" on="0"/>
        <pt x="196" y="100" on="1"/>
        <pt x="196" y="52" on="1"/>
        <pt x="196" y="23" on="0"/>
        <pt x="173" y="0" on="0"/>
        <pt x="144" y="0" on="1"/>
        <pt x="104" y="0" on="1"/>
        <pt x="75" y="0" on="0"/>
        <pt x="52" y="23" on="0"/>
        <pt x="52" y="52" on="1"/>
        <pt x="52" y="100" on="1"/>
        <pt x="52" y="129" on="0"/>
        <pt x="75" y="152" on="0"/>
      </contour>
    </TTGlyph>
    <TTGlyph name="comma" xMin="50" yMin="-147" xMax="190" yMax="151">
      <contour>
        <pt x="104" y="151" on="1"/>
        <pt x="139" y="151" on="1"/>
        <pt x="168" y="151" on="0"/>
        <pt x="190" y="129" on="0"/>
        <pt x="190" y="100" on="1"/>
        <pt x="190" y="36" on="1"/>
        <pt x="190" y="-64" on="0"/>
        <pt x="139" y="-147" on="1"/>
        <pt x="78" y="-128" on="1"/>
        <pt x="92" y="-69" on="0"/>
        <pt x="92" y="0" on="1"/>
        <pt x="52" y="0" on="0"/>
        <pt x="50" y="46" on="1"/>
        <pt x="51" y="100" on="1"/>
        <pt x="52" y="129" on="0"/>
        <pt x="75" y="151" on="0"/>
      </contour>
    </TTGlyph>
    <TTGlyph name="copyright" xMin="43" yMin="-13" xMax="767" yMax="703">
      <contour>
        <pt x="405" y="703" on="1"/>
        <pt x="559" y="703" on="0"/>
        <pt x="767" y="500" on="0"/>
        <pt x="767" y="190" on="0"/>
        <pt x="559" y="-13" on="0"/>
        <pt x="405" y="-13" on="1"/>
        <pt x="252" y="-13" on="0"/>
        <pt x="43" y="190" on="0"/>
        <pt x="43" y="500" on="0"/>
        <pt x="252" y="703" on="0"/>
      </contour>
      <contour>
        <pt x="405" y="632" on="1"/>
        <pt x="286" y="632" on="0"/>
        <pt x="118" y="468" on="0"/>
        <pt x="118" y="222" on="0"/>
        <pt x="286" y="58" on="0"/>
        <pt x="405" y="58" on="1"/>
        <pt x="525" y="58" on="0"/>
        <pt x="692" y="222" on="0"/>
        <pt x="692" y="468" on="0"/>
        <pt x="525" y="632" on="0"/>
      </contour>
      <contour>
        <pt x="547" y="236" on="1"/>
        <pt x="556" y="156" on="1"/>
        <pt x="493" y="138" on="0"/>
        <pt x="410" y="138" on="1"/>
        <pt x="303" y="138" on="0"/>
        <pt x="215" y="232" on="0"/>
        <pt x="215" y="347" on="1"/>
        <pt x="215" y="461" on="0"/>
        <pt x="303" y="554" on="0"/>
        <pt x="410" y="554" on="1"/>
        <pt x="489" y="554" on="0"/>
        <pt x="546" y="540" on="1"/>
        <pt x="537" y="460" on="1"/>
        <pt x="451" y="462" on="0"/>
        <pt x="409" y="462" on="1"/>
        <pt x="361" y="462" on="0"/>
        <pt x="328" y="415" on="0"/>
        <pt x="328" y="347" on="1"/>
        <pt x="328" y="278" on="0"/>
        <pt x="360" y="232" on="0"/>
        <pt x="409" y="232" on="1"/>
        <pt x="506" y="232" on="0"/>
      </contour>
    </TTGlyph>
    <TTGlyph name="currency" xMin="48" yMin="111" xMax="534" yMax="592">
      <contour>
        <pt x="534" y="531" on="1"/>
        <pt x="463" y="460" on="1"/>
        <pt x="494" y="412" on="0"/>
        <pt x="494" y="351" on="1"/>
        <pt x="494" y="293" on="0"/>
        <pt x="462" y="243" on="1"/>
        <pt x="534" y="172" on="1"/>
        <pt x="472" y="111" on="1"/>
        <pt x="401" y="181" on="1"/>
        <pt x="350" y="149" on="0"/>
        <pt x="234" y="149" on="0"/>
        <pt x="183" y="181" on="1"/>
        <pt x="114" y="112" on="1"/>
        <pt x="48" y="177" on="1"/>
        <pt x="118" y="247" on="1"/>
        <pt x="89" y="295" on="0"/>
        <pt x="89" y="351" on="1"/>
        <pt x="89" y="412" on="0"/>
        <pt x="122" y="462" on="1"/>
        <pt x="52" y="531" on="1"/>
        <pt x="114" y="592" on="1"/>
        <pt x="183" y="522" on="1"/>
        <pt x="230" y="554" on="0"/>
        <pt x="292" y="554" on="1"/>
        <pt x="353" y="554" on="0"/>
        <pt x="402" y="521" on="1"/>
        <pt x="473" y="592" on="1"/>
      </contour>
      <contour>
        <pt x="292" y="234" on="1"/>
        <pt x="339" y="234" on="0"/>
        <pt x="408" y="303" on="0"/>
        <pt x="408" y="401" on="0"/>
        <pt x="339" y="471" on="0"/>
        <pt x="292" y="471" on="1"/>
        <pt x="244" y="471" on="0"/>
        <pt x="174" y="401" on="0"/>
        <pt x="174" y="303" on="0"/>
        <pt x="244" y="234" on="0"/>
      </contour>
    </TTGlyph>
    <TTGlyph name="d" xMin="41" yMin="-12" xMax="533" yMax="700">
      <contour>
        <pt x="533" y="700" on="1"/>
        <pt x="533" y="0" on="1"/>
        <pt x="416" y="0" on="1"/>
        <pt x="404" y="72" on="1"/>
        <pt x="333" y="-12" on="0"/>
        <pt x="216" y="-12" on="1"/>
        <pt x="124" y="-12" on="0"/>
        <pt x="41" y="121" on="0"/>
        <pt x="41" y="251" on="1"/>
        <pt x="41" y="393" on="0"/>
        <pt x="133" y="507" on="0"/>
        <pt x="230" y="507" on="1"/>
        <pt x="325" y="507" on="0"/>
        <pt x="390" y="463" on="1"/>
        <pt x="385" y="518" on="0"/>
        <pt x="385" y="566" on="1"/>
        <pt x="385" y="700" on="1"/>
      </contour>
      <contour>
        <pt x="385" y="150" on="1"/>
        <pt x="385" y="378" on="1"/>
        <pt x="318" y="397" on="0"/>
        <pt x="280" y="397" on="1"/>
        <pt x="230" y="397" on="0"/>
        <pt x="193" y="341" on="0"/>
        <pt x="193" y="252" on="1"/>
        <pt x="193" y="167" on="0"/>
        <pt x="229" y="110" on="0"/>
        <pt x="275" y="110" on="1"/>
        <pt x="306" y="110" on="0"/>
        <pt x="350" y="127" on="0"/>
      </contour>
    </TTGlyph>
    <TTGlyph name="dagger" xMin="32" yMin="-110" xMax="439" yMax="691">
      <contour>
        <pt x="297" y="-110" on="1"/>
        <pt x="174" y="-110" on="1"/>
        <pt x="181" y="411" on="1"/>
        <pt x="181" y="485" on="1"/>
        <pt x="174" y="691" on="1"/>
        <pt x="297" y="691" on="1"/>
        <pt x="290" y="485" on="1"/>
        <pt x="290" y="411" on="1"/>
      </contour>
      <contour>
        <pt x="32" y="381" on="1"/>
        <pt x="32" y="493" on="1"/>
        <pt x="161" y="493" on="1"/>
        <pt x="161" y="397" on="1"/>
      </contour>
      <contour>
        <pt x="439" y="493" on="1"/>
        <pt x="439" y="381" on="1"/>
        <pt x="310" y="397" on="1"/>
        <pt x="310" y="493" on="1"/>
      </contour>
    </TTGlyph>
    <TTGlyph name="daggerdbl" xMin="50" yMin="-110" xMax="458" yMax="691">
      <contour>
        <pt x="308" y="492" on="1"/>
        <pt x="308" y="93" on="1"/>
        <pt x="316" y="-110" on="1"/>
        <pt x="192" y="-110" on="1"/>
        <pt x="199" y="93" on="1"/>
        <pt x="199" y="492" on="1"/>
        <pt x="192" y="691" on="1"/>
        <pt x="316" y="691" on="1"/>
      </contour>
      <contour>
        <pt x="179" y="397" on="1"/>
        <pt x="50" y="381" on="1"/>
        <pt x="50" y="493" on="1"/>
        <pt x="179" y="493" on="1"/>
      </contour>
      <contour>
        <pt x="458" y="381" on="1"/>
        <pt x="329" y="397" on="1"/>
        <pt x="329" y="493" on="1"/>
        <pt x="458" y="493" on="1"/>
      </contour>
      <contour>
        <pt x="179" y="184" on="1"/>
        <pt x="179" y="88" on="1"/>
        <pt x="50" y="88" on="1"/>
        <pt x="50" y="200" on="1"/>
      </contour>
      <contour>
        <pt x="458" y="88" on="1"/>
        <pt x="329" y="88" on="1"/>
        <pt x="329" y="184" on="1"/>
        <pt x="458" y="200" on="1"/>
      </contour>
    </TTGlyph>
    <TTGlyph name="dcaron" xMin="41" yMin="-12" xMax="696" yMax="702">
      <contour>
        <pt x="696" y="665" on="1"/>
        <pt x="696" y="618" on="1"/>
        <pt x="696" y="544" on="0"/>
        <pt x="653" y="485" on="1"/>
        <pt x="599" y="498" on="1"/>
        <pt x="612" y="538" on="0"/>
        <pt x="612" y="592" on="1"/>
        <pt x="576" y="592" on="0"/>
        <pt x="576" y="625" on="1"/>
        <pt x="577" y="665" on="1"/>
        <pt x="578" y="686" on="0"/>
        <pt x="598" y="702" on="0"/>
        <pt x="622" y="702" on="1"/>
        <pt x="652" y="702" on="1"/>
        <pt x="677" y="702" on="0"/>
        <pt x="696" y="686" on="0"/>
      </contour>
      <contour>
        <pt x="385" y="700" on="1"/>
        <pt x="533" y="700" on="1"/>
        <pt x="533" y="0" on="1"/>
        <pt x="416" y="0" on="1"/>
        <pt x="404" y="72" on="1"/>
        <pt x="333" y="-12" on="0"/>
        <pt x="216" y="-12" on="1"/>
        <pt x="124" y="-12" on="0"/>
        <pt x="41" y="121" on="0"/>
        <pt x="41" y="251" on="1"/>
        <pt x="41" y="393" on="0"/>
        <pt x="133" y="507" on="0"/>
        <pt x="230" y="507" on="1"/>
        <pt x="325" y="507" on="0"/>
        <pt x="390" y="463" on="1"/>
        <pt x="385" y="518" on="0"/>
        <pt x="385" y="566" on="1"/>
      </contour>
      <contour>
        <pt x="385" y="150" on="1"/>
        <pt x="385" y="378" on="1"/>
        <pt x="318" y="397" on="0"/>
        <pt x="280" y="397" on="1"/>
        <pt x="230" y="397" on="0"/>
        <pt x="193" y="341" on="0"/>
        <pt x="193" y="252" on="1"/>
        <pt x="193" y="167" on="0"/>
        <pt x="229" y="110" on="0"/>
        <pt x="275" y="110" on="1"/>
        <pt x="306" y="110" on="0"/>
        <pt x="350" y="127" on="0"/>
      </contour>
    </TTGlyph>
    <TTGlyph name="dcroat" xMin="41" yMin="-12" xMax="594" yMax="700">
      <contour>
        <pt x="594" y="559" on="1"/>
        <pt x="533" y="559" on="1"/>
        <pt x="533" y="0" on="1"/>
        <pt x="416" y="0" on="1"/>
        <pt x="404" y="72" on="1"/>
        <pt x="333" y="-12" on="0"/>
        <pt x="216" y="-12" on="1"/>
        <pt x="124" y="-12" on="0"/>
        <pt x="41" y="121" on="0"/>
        <pt x="41" y="251" on="1"/>
        <pt x="41" y="393" on="0"/>
        <pt x="133" y="507" on="0"/>
        <pt x="230" y="507" on="1"/>
        <pt x="325" y="507" on="0"/>
        <pt x="390" y="463" on="1"/>
        <pt x="385" y="515" on="0"/>
        <pt x="385" y="559" on="1"/>
        <pt x="255" y="559" on="1"/>
        <pt x="255" y="629" on="1"/>
        <pt x="385" y="629" on="1"/>
        <pt x="385" y="700" on="1"/>
        <pt x="533" y="700" on="1"/>
        <pt x="533" y="629" on="1"/>
        <pt x="594" y="629" on="1"/>
      </contour>
      <contour>
        <pt x="385" y="150" on="1"/>
        <pt x="385" y="378" on="1"/>
        <pt x="318" y="397" on="0"/>
        <pt x="280" y="397" on="1"/>
        <pt x="230" y="397" on="0"/>
        <pt x="193" y="341" on="0"/>
        <pt x="193" y="252" on="1"/>
        <pt x="193" y="167" on="0"/>
        <pt x="229" y="110" on="0"/>
        <pt x="275" y="110" on="1"/>
        <pt x="306" y="110" on="0"/>
        <pt x="350" y="127" on="0"/>
      </contour>
    </TTGlyph>
    <TTGlyph name="degree" xMin="36" yMin="437" xMax="308" yMax="703">
      <contour>
        <pt x="172" y="703" on="1"/>
        <pt x="227" y="703" on="0"/>
        <pt x="308" y="626" on="0"/>
        <pt x="308" y="516" on="0"/>
        <pt x="228" y="437" on="0"/>
        <pt x="116" y="437" on="0"/>
        <pt x="36" y="516" on="0"/>
        <pt x="36" y="626" on="0"/>
        <pt x="116" y="703" on="0"/>
      </contour>
      <contour>
        <pt x="197" y="629" on="0"/>
        <pt x="147" y="629" on="0"/>
        <pt x="114" y="597" on="0"/>
        <pt x="114" y="545" on="0"/>
        <pt x="148" y="511" on="0"/>
        <pt x="196" y="511" on="0"/>
        <pt x="230" y="545" on="0"/>
        <pt x="230" y="597" on="0"/>
      </contour>
    </TTGlyph>
    <TTGlyph name="dieresis" xMin="65" yMin="584" xMax="360" yMax="708">
      <contour>
        <pt x="97" y="708" on="1"/>
        <pt x="146" y="708" on="1"/>
        <pt x="178" y="708" on="0"/>
        <pt x="178" y="675" on="1"/>
        <pt x="178" y="617" on="1"/>
        <pt x="178" y="584" on="0"/>
        <pt x="146" y="584" on="1"/>
        <pt x="97" y="584" on="1"/>
        <pt x="65" y="584" on="0"/>
        <pt x="65" y="617" on="1"/>
        <pt x="65" y="675" on="1"/>
        <pt x="65" y="708" on="0"/>
      </contour>
      <contour>
        <pt x="279" y="708" on="1"/>
        <pt x="327" y="708" on="1"/>
        <pt x="360" y="708" on="0"/>
        <pt x="360" y="675" on="1"/>
        <pt x="360" y="617" on="1"/>
        <pt x="360" y="584" on="0"/>
        <pt x="327" y="584" on="1"/>
        <pt x="279" y="584" on="1"/>
        <pt x="246" y="584" on="0"/>
        <pt x="246" y="617" on="1"/>
        <pt x="246" y="675" on="1"/>
        <pt x="246" y="708" on="0"/>
      </contour>
    </TTGlyph>
</ttFont>
